<svg width="44" height="44" viewBox="0 0 44 44" fill="none" xmlns="http://www.w3.org/2000/svg">
<path d="M21.5 17.5001C21.721 17.5001 21.933 17.5879 22.0893 17.7441C22.2455 17.9004 22.3333 18.1124 22.3333 18.3334V21.6667H25.6667C25.8877 21.6667 26.0996 21.7545 26.2559 21.9108C26.4122 22.0671 26.5 22.279 26.5 22.5001C26.5 22.7211 26.4122 22.933 26.2559 23.0893C26.0996 23.2456 25.8877 23.3334 25.6667 23.3334H22.3333V26.6667C22.3333 26.8877 22.2455 27.0997 22.0893 27.256C21.933 27.4123 21.721 27.5001 21.5 27.5001C21.279 27.5001 21.067 27.4123 20.9107 27.256C20.7545 27.0997 20.6667 26.8877 20.6667 26.6667V23.3334H17.3333C17.1123 23.3334 16.9004 23.2456 16.7441 23.0893C16.5878 22.933 16.5 22.7211 16.5 22.5001C16.5 22.279 16.5878 22.0671 16.7441 21.9108C16.9004 21.7545 17.1123 21.6667 17.3333 21.6667H20.6667V18.3334C20.6667 18.1124 20.7545 17.9004 20.9107 17.7441C21.067 17.5879 21.279 17.5001 21.5 17.5001Z" fill="black" stroke="black" stroke-width="0.333333"/>
<path fill-rule="evenodd" clip-rule="evenodd" d="M14.15 33C13.3146 33 12.5134 32.6681 11.9226 32.0774C11.3319 31.4866 11 30.6854 11 29.85V15.15C11 14.3146 11.3319 13.5134 11.9226 12.9226C12.5134 12.3319 13.3146 12 14.15 12H28.85C29.6854 12 30.4866 12.3319 31.0774 12.9226C31.6681 13.5134 32 14.3146 32 15.15V29.85C32 30.6854 31.6681 31.4866 31.0774 32.0774C30.4866 32.6681 29.6854 33 28.85 33H14.15ZM13.1 29.85C13.1 30.1285 13.2106 30.3955 13.4075 30.5925C13.6045 30.7894 13.8715 30.9 14.15 30.9H28.85C29.1285 30.9 29.3955 30.7894 29.5925 30.5925C29.7894 30.3955 29.9 30.1285 29.9 29.85V15.15C29.9 14.8715 29.7894 14.6045 29.5925 14.4075C29.3955 14.2106 29.1285 14.1 28.85 14.1H14.15C13.8715 14.1 13.6045 14.2106 13.4075 14.4075C13.2106 14.6045 13.1 14.8715 13.1 15.15V29.85Z" fill="black" stroke="black" stroke-width="0.42"/>
</svg>
