<svg width="24" height="24" viewBox="0 0 24 24" fill="none" xmlns="http://www.w3.org/2000/svg">
<g clip-path="url(#clip0_3524_37316)">
<path d="M16.9886 11.2283C18.5166 11.2283 19.9821 11.8353 21.0625 12.9158C22.143 13.9962 22.75 15.4617 22.75 16.9897C22.75 18.5177 22.143 19.9831 21.0625 21.0635C19.9821 22.144 18.5166 22.751 16.9886 22.751C15.4606 22.751 13.9952 22.144 12.9147 21.0635C11.8343 19.9831 11.2273 18.5177 11.2273 16.9897C11.2273 15.4617 11.8343 13.9962 12.9147 12.9158C13.9952 11.8353 15.4606 11.2283 16.9886 11.2283ZM11.2273 0.75C17.0138 0.75 21.7046 5.44078 21.7046 11.2273C21.7046 11.5028 21.6941 11.7762 21.6731 12.0464C21.212 11.6088 20.692 11.2379 20.1281 10.9444C20.0728 9.2081 19.5109 7.52584 18.5116 6.10485C17.5122 4.68386 16.1191 3.58621 14.5037 2.9471C12.8883 2.30799 11.1213 2.15532 9.42021 2.50791C7.71916 2.86051 6.15838 3.70295 4.93012 4.93149C3.70186 6.16002 2.85977 7.72099 2.50757 9.42212C2.15537 11.1233 2.30843 12.8903 2.94792 14.5055C3.5874 16.1207 4.68537 17.5136 6.10659 18.5127C7.52781 19.5117 9.2102 20.0732 10.9466 20.128C11.2399 20.6937 11.6117 21.2132 12.0464 21.6721C11.7772 21.693 11.5038 21.7035 11.2273 21.7035C5.44079 21.7035 0.75 17.0127 0.75 11.2273C0.75 5.44183 5.44079 0.751048 11.2273 0.751048V0.75ZM16.9886 13.3202L16.8944 13.3286C16.7897 13.3477 16.6934 13.3982 16.6181 13.4735C16.5429 13.5487 16.4924 13.645 16.4733 13.7497L16.4649 13.844V16.4628L13.844 16.4659L13.7497 16.4743C13.6451 16.4934 13.5487 16.5439 13.4735 16.6192C13.3983 16.6944 13.3477 16.7907 13.3286 16.8954L13.3202 16.9897L13.3286 17.0839C13.3477 17.1886 13.3983 17.2849 13.4735 17.3602C13.5487 17.4354 13.6451 17.4859 13.7497 17.505L13.844 17.5134H16.4649V20.1364L16.4733 20.2307C16.4926 20.3351 16.5432 20.4313 16.6184 20.5063C16.6936 20.5813 16.7899 20.6317 16.8944 20.6507L16.9886 20.6602L17.0829 20.6507C17.1876 20.6316 17.2839 20.5811 17.3591 20.5059C17.4344 20.4306 17.4849 20.3343 17.504 20.2296L17.5124 20.1354V17.5124L20.1343 17.5134L20.2286 17.505C20.3333 17.4859 20.4296 17.4354 20.5048 17.3602C20.5801 17.2849 20.6306 17.1886 20.6497 17.0839L20.6592 16.9897L20.6508 16.8954C20.6316 16.7906 20.5809 16.6941 20.5055 16.6189C20.43 16.5437 20.3335 16.4932 20.2286 16.4743L20.1343 16.4659H17.5124V13.8471L17.504 13.7528C17.4851 13.648 17.4346 13.5514 17.3594 13.476C17.2842 13.4006 17.1877 13.3499 17.0829 13.3307L16.9886 13.3223V13.3202ZM7.52116 14.1425C8.20911 15.0183 9.18526 15.6218 10.2761 15.8458C10.1867 16.368 10.1589 16.8988 10.1934 17.4275C8.64762 17.1721 7.25361 16.3469 6.28614 15.1146C6.22231 15.0335 6.17508 14.9406 6.14714 14.8413C6.1192 14.7419 6.11111 14.6381 6.12332 14.5356C6.13552 14.4331 6.1678 14.3341 6.21829 14.2441C6.26878 14.154 6.33651 14.0749 6.4176 14.011C6.4987 13.9472 6.59157 13.9 6.69091 13.872C6.79026 13.8441 6.89413 13.836 6.99661 13.8482C7.09909 13.8604 7.19815 13.8927 7.28816 13.9432C7.37816 13.9937 7.45733 14.0614 7.52116 14.1425ZM8.08473 7.82388C8.25973 7.81893 8.43394 7.84912 8.59707 7.91267C8.7602 7.97622 8.90893 8.07184 9.03446 8.19387C9.15999 8.3159 9.25978 8.46187 9.32791 8.62313C9.39605 8.7844 9.43116 8.95769 9.43116 9.13276C9.43116 9.30783 9.39605 9.48112 9.32791 9.64238C9.25978 9.80365 9.15999 9.94961 9.03446 10.0716C8.90893 10.1937 8.7602 10.2893 8.59707 10.3528C8.43394 10.4164 8.25973 10.4466 8.08473 10.4416C7.744 10.432 7.42047 10.2899 7.18288 10.0455C6.94528 9.80104 6.81236 9.47362 6.81236 9.13276C6.81236 8.7919 6.94528 8.46447 7.18288 8.22006C7.42047 7.97565 7.744 7.83352 8.08473 7.82388ZM14.3698 7.82388C14.5448 7.81893 14.7191 7.84912 14.8822 7.91267C15.0453 7.97622 15.194 8.07184 15.3196 8.19387C15.4451 8.3159 15.5449 8.46187 15.613 8.62313C15.6812 8.7844 15.7163 8.95769 15.7163 9.13276C15.7163 9.30783 15.6812 9.48112 15.613 9.64238C15.5449 9.80365 15.4451 9.94961 15.3196 10.0716C15.194 10.1937 15.0453 10.2893 14.8822 10.3528C14.7191 10.4164 14.5448 10.4466 14.3698 10.4416C14.0291 10.432 13.7056 10.2899 13.468 10.0455C13.2304 9.80104 13.0975 9.47362 13.0975 9.13276C13.0975 8.7919 13.2304 8.46447 13.468 8.22006C13.7056 7.97565 14.0291 7.83352 14.3698 7.82388Z" fill="#A0A0A0"/>
</g>
<defs>
<clipPath id="clip0_3524_37316">
<rect width="22.5" height="22.5" fill="white" transform="translate(0.75 0.75)"/>
</clipPath>
</defs>
</svg>
