<svg width="24" height="24" viewBox="0 0 24 24" fill="none" xmlns="http://www.w3.org/2000/svg">
<path d="M17.5879 11.4435C19.2178 11.4435 20.7809 12.0909 21.9334 13.2434C23.0859 14.3959 23.7333 15.959 23.7333 17.5889C23.7333 19.2188 23.0859 20.7819 21.9334 21.9344C20.7809 23.0869 19.2178 23.7343 17.5879 23.7343C15.958 23.7343 14.3949 23.0869 13.2424 21.9344C12.0899 20.7819 11.4424 19.2188 11.4424 17.5889C11.4424 15.959 12.0899 14.3959 13.2424 13.2434C14.3949 12.0909 15.958 11.4435 17.5879 11.4435ZM11.4424 0.266602C17.6147 0.266602 22.6182 5.2701 22.6182 11.4424C22.6182 11.7362 22.607 12.0278 22.5847 12.3161C22.0928 11.8494 21.5381 11.4537 20.9366 11.1407C20.8777 9.28858 20.2783 7.49416 19.2124 5.97844C18.1464 4.46272 16.6603 3.2919 14.9373 2.61017C13.2142 1.92845 11.3294 1.76561 9.51489 2.14171C7.70043 2.51781 6.0356 3.41642 4.72546 4.72685C3.41532 6.03729 2.51709 7.70232 2.1414 9.51687C1.76572 11.3314 1.92899 13.2162 2.61111 14.9391C3.29322 16.662 4.46439 18.1478 5.98036 19.2134C7.49632 20.2791 9.29088 20.878 11.143 20.9365C11.4558 21.5399 11.8525 22.0941 12.3162 22.5835C12.029 22.6058 11.7374 22.617 11.4424 22.617C5.27017 22.617 0.266663 17.6135 0.266663 11.4424C0.266663 5.27122 5.27017 0.267719 11.4424 0.267719V0.266602ZM17.5879 13.6748L17.4873 13.6838C17.3757 13.7042 17.2729 13.7581 17.1927 13.8383C17.1124 13.9185 17.0585 14.0213 17.0381 14.1329L17.0292 14.2335V17.0269L14.2336 17.0302L14.133 17.0392C14.0214 17.0596 13.9186 17.1135 13.8384 17.1937C13.7581 17.2739 13.7042 17.3767 13.6838 17.4883L13.6749 17.5889L13.6838 17.6895C13.7042 17.8011 13.7581 17.9039 13.8384 17.9841C13.9186 18.0643 14.0214 18.1182 14.133 18.1386L14.2336 18.1476H17.0292V20.9454L17.0381 21.046C17.0587 21.1574 17.1127 21.2599 17.193 21.34C17.2732 21.42 17.3758 21.4737 17.4873 21.4941L17.5879 21.5041L17.6884 21.4941C17.8001 21.4737 17.9028 21.4198 17.9831 21.3395C18.0633 21.2593 18.1172 21.1565 18.1376 21.0449L18.1466 20.9443V18.1465L20.9433 18.1476L21.0439 18.1386C21.1555 18.1182 21.2583 18.0643 21.3385 17.9841C21.4187 17.9039 21.4726 17.8011 21.493 17.6895L21.5031 17.5889L21.4942 17.4883C21.4737 17.3766 21.4196 17.2737 21.3392 17.1934C21.2587 17.1132 21.1557 17.0594 21.0439 17.0392L20.9433 17.0302H18.1466V14.2369L18.1376 14.1363C18.1174 14.0245 18.0636 13.9214 17.9834 13.841C17.9031 13.7605 17.8002 13.7065 17.6884 13.686L17.5879 13.6771V13.6748ZM7.48924 14.5519C8.22305 15.4861 9.26427 16.1298 10.4279 16.3688C10.3325 16.9258 10.3029 17.492 10.3396 18.056C8.69079 17.7835 7.20385 16.9033 6.17188 15.5888C6.10379 15.5023 6.05341 15.4033 6.02361 15.2973C5.99381 15.1913 5.98518 15.0805 5.9982 14.9712C6.01122 14.8619 6.04564 14.7563 6.0995 14.6603C6.15336 14.5643 6.22561 14.4798 6.31211 14.4117C6.3986 14.3436 6.49767 14.2933 6.60364 14.2635C6.70961 14.2337 6.82041 14.225 6.92971 14.238C7.03902 14.2511 7.14469 14.2855 7.2407 14.3393C7.3367 14.3932 7.42115 14.4654 7.48924 14.5519ZM8.09037 7.81208C8.27704 7.8068 8.46287 7.839 8.63687 7.90679C8.81088 7.97458 8.96952 8.07657 9.10342 8.20673C9.23732 8.3369 9.34376 8.49259 9.41644 8.66461C9.48912 8.83662 9.52657 9.02147 9.52657 9.20821C9.52657 9.39495 9.48912 9.57979 9.41644 9.75181C9.34376 9.92383 9.23732 10.0795 9.10342 10.2097C8.96952 10.3399 8.81088 10.4418 8.63687 10.5096C8.46287 10.5774 8.27704 10.6096 8.09037 10.6043C7.72693 10.5941 7.38183 10.4425 7.1284 10.1818C6.87496 9.92105 6.73318 9.57179 6.73318 9.20821C6.73318 8.84462 6.87496 8.49537 7.1284 8.23467C7.38183 7.97396 7.72693 7.82236 8.09037 7.81208ZM14.7945 7.81208C14.9812 7.8068 15.167 7.839 15.341 7.90679C15.515 7.97458 15.6736 8.07657 15.8075 8.20673C15.9414 8.3369 16.0479 8.49259 16.1206 8.66461C16.1932 8.83662 16.2307 9.02147 16.2307 9.20821C16.2307 9.39495 16.1932 9.57979 16.1206 9.75181C16.0479 9.92383 15.9414 10.0795 15.8075 10.2097C15.6736 10.3399 15.515 10.4418 15.341 10.5096C15.167 10.5774 14.9812 10.6096 14.7945 10.6043C14.4311 10.5941 14.086 10.4425 13.8325 10.1818C13.5791 9.92105 13.4373 9.57179 13.4373 9.20821C13.4373 8.84462 13.5791 8.49537 13.8325 8.23467C14.086 7.97396 14.4311 7.82236 14.7945 7.81208Z" fill="#8700FF"/>
</svg>
