<svg width="32" height="24" viewBox="0 0 32 24" fill="none" xmlns="http://www.w3.org/2000/svg">
<g id="Group">
<path id="Vector" d="M19.142 22C19.142 19.7268 18.239 17.5466 16.6316 15.9391C15.0243 14.3317 12.8442 13.4286 10.571 13.4286C8.29786 13.4286 6.11779 14.3317 4.51042 15.9391C2.90304 17.5466 2.00003 19.7268 2.00003 22" stroke="black" stroke-width="2.5" stroke-linecap="round" stroke-linejoin="round"/>
<path id="Vector_2" d="M10.5711 13.4286C13.7269 13.4286 16.2851 10.8702 16.2851 7.71432C16.2851 4.5584 13.7269 2.00003 10.5711 2.00003C7.41536 2.00003 4.85712 4.5584 4.85712 7.71432C4.85712 10.8702 7.41536 13.4286 10.5711 13.4286Z" stroke="black" stroke-width="2.5" stroke-linecap="round" stroke-linejoin="round"/>
<path id="Vector_3" d="M26.2845 6.28574V14.8572M30.57 10.5715H21.999" stroke="black" stroke-width="2.5" stroke-linecap="round" stroke-linejoin="round"/>
</g>
</svg>
