<svg width="24" height="24" viewBox="0 0 24 24" fill="none" xmlns="http://www.w3.org/2000/svg">
<path fill-rule="evenodd" clip-rule="evenodd" d="M12 2.75C6.89137 2.75 2.75 6.89137 2.75 12C2.75 17.1086 6.89137 21.25 12 21.25C17.1086 21.25 21.25 17.1086 21.25 12C21.25 6.89137 17.1086 2.75 12 2.75ZM1.25 12C1.25 6.06294 6.06294 1.25 12 1.25C17.9371 1.25 22.75 6.06294 22.75 12C22.75 17.9371 17.9371 22.75 12 22.75C6.06294 22.75 1.25 17.9371 1.25 12Z" fill="#2F363F"/>
<path d="M10 9.5C10 10.3284 9.32843 11 8.5 11C7.67157 11 7 10.3284 7 9.5C7 8.67157 7.67157 8 8.5 8C9.32843 8 10 8.67157 10 9.5Z" fill="#2F363F"/>
<path d="M17 9.5C17 10.3284 16.3284 11 15.5 11C14.6716 11 14 10.3284 14 9.5C14 8.67157 14.6716 8 15.5 8C16.3284 8 17 8.67157 17 9.5Z" fill="#2F363F"/>
<path fill-rule="evenodd" clip-rule="evenodd" d="M7.55 14.4C7.88137 14.1515 8.35147 14.2186 8.6 14.55C10.3 16.8167 13.7 16.8167 15.4 14.55C15.6485 14.2186 16.1186 14.1515 16.45 14.4C16.7814 14.6485 16.8485 15.1186 16.6 15.45C14.3 18.5167 9.7 18.5167 7.4 15.45C7.15147 15.1186 7.21863 14.6485 7.55 14.4Z" fill="#2F363F"/>
</svg>
