<svg width="44" height="44" viewBox="0 0 44 44" fill="none" xmlns="http://www.w3.org/2000/svg">
<path d="M25.142 32C25.142 29.7268 24.239 27.5466 22.6316 25.9391C21.0243 24.3317 18.8442 23.4286 16.571 23.4286C14.2979 23.4286 12.1178 24.3317 10.5104 25.9391C8.90304 27.5466 8.00003 29.7268 8.00003 32" stroke="black" stroke-width="2.5" stroke-linecap="round" stroke-linejoin="round"/>
<path d="M16.5711 23.4286C19.7269 23.4286 22.2851 20.8702 22.2851 17.7143C22.2851 14.5584 19.7269 12 16.5711 12C13.4154 12 10.8571 14.5584 10.8571 17.7143C10.8571 20.8702 13.4154 23.4286 16.5711 23.4286Z" stroke="black" stroke-width="2.5" stroke-linecap="round" stroke-linejoin="round"/>
<path d="M32.2845 16.2857V24.8572M36.57 20.5715H27.999" stroke="black" stroke-width="2.5" stroke-linecap="round" stroke-linejoin="round"/>
</svg>
