<svg width="24" height="24" viewBox="0 0 24 24" fill="none" xmlns="http://www.w3.org/2000/svg">
<path d="M7.875 10.125C7.875 9.82663 7.99353 9.54048 8.2045 9.3295C8.41548 9.11853 8.70163 9 9 9H15C15.2984 9 15.5845 9.11853 15.7955 9.3295C16.0065 9.54048 16.125 9.82663 16.125 10.125C16.125 10.4234 16.0065 10.7095 15.7955 10.9205C15.5845 11.1315 15.2984 11.25 15 11.25H9C8.70163 11.25 8.41548 11.1315 8.2045 10.9205C7.99353 10.7095 7.875 10.4234 7.875 10.125ZM10.875 12.75H9C8.70163 12.75 8.41548 12.8685 8.2045 13.0795C7.99353 13.2905 7.875 13.5766 7.875 13.875C7.875 14.1734 7.99353 14.4595 8.2045 14.6705C8.41548 14.8815 8.70163 15 9 15H10.875C11.1734 15 11.4595 14.8815 11.6705 14.6705C11.8815 14.4595 12 14.1734 12 13.875C12 13.5766 11.8815 13.2905 11.6705 13.0795C11.4595 12.8685 11.1734 12.75 10.875 12.75ZM21.375 4.5V14.6897C21.3757 14.936 21.3275 15.18 21.2332 15.4076C21.1388 15.6351 21.0003 15.8417 20.8256 16.0153L16.0153 20.8256C15.8417 21.0003 15.6351 21.1388 15.4076 21.2332C15.18 21.3275 14.936 21.3757 14.6897 21.375H4.5C4.00272 21.375 3.52581 21.1775 3.17417 20.8258C2.82254 20.4742 2.625 19.9973 2.625 19.5V4.5C2.625 4.00272 2.82254 3.52581 3.17417 3.17417C3.52581 2.82254 4.00272 2.625 4.5 2.625H19.5C19.9973 2.625 20.4742 2.82254 20.8258 3.17417C21.1775 3.52581 21.375 4.00272 21.375 4.5ZM4.875 19.125H13.5V14.625C13.5 14.3266 13.6185 14.0405 13.8295 13.8295C14.0405 13.6185 14.3266 13.5 14.625 13.5H19.125V4.875H4.875V19.125ZM17.9062 15.75H15.75V17.9062L17.9062 15.75Z" fill="#303030"/>
</svg>
