<svg width="24" height="24" viewBox="0 0 24 24" fill="none" xmlns="http://www.w3.org/2000/svg">
<g clip-path="url(#clip0_566_5823)">
<path d="M16.2066 8.49933H18.211V21.75H13.8076V10.8983C13.8076 9.57445 14.8827 8.49933 16.2066 8.49933Z" fill="#8700FF"/>
<path d="M7.20202 7.39773C8.41816 7.39773 9.40404 6.41326 9.40404 5.19886C9.40404 3.98446 8.41816 3 7.20202 3C5.98588 3 5 3.98446 5 5.19886C5 6.41326 5.98588 7.39773 7.20202 7.39773Z" fill="#87DFFF"/>
<path d="M9.40341 8.49933H5V21.75H9.40341V8.49933Z" fill="#87DFFF"/>
<path d="M11.6053 7.39773C12.8215 7.39773 13.8074 6.41326 13.8074 5.19886C13.8074 3.98446 12.8215 3 11.6053 3C10.3892 3 9.40332 3.98446 9.40332 5.19886C9.40332 6.41326 10.3892 7.39773 11.6053 7.39773Z" fill="#87DFFF"/>
<path d="M13.8067 8.49933H9.40332V21.75H13.8067V8.49933Z" fill="#87DFFF"/>
<path d="M16.0096 7.41918C17.2258 7.41918 18.2117 6.4333 18.2117 5.21716C18.2117 4.00101 17.2258 3.01514 16.0096 3.01514C14.7935 3.01514 13.8076 4.00101 13.8076 5.21716C13.8076 6.4333 14.7935 7.41918 16.0096 7.41918Z" fill="#8700FF"/>
</g>
<defs>
<clipPath id="clip0_566_5823">
<rect width="13.2109" height="18.75" fill="white" transform="translate(5 3)"/>
</clipPath>
</defs>
</svg>
