<svg width="44" height="44" viewBox="0 0 44 44" fill="none" xmlns="http://www.w3.org/2000/svg">
<path d="M24.695 9.00134C25.2439 9.00129 25.7832 9.14466 26.2596 9.41724C26.736 9.68982 27.1329 10.0821 27.411 10.5553L28.5506 12.4971H31.45C32.6565 12.4971 33.8136 12.9763 34.6668 13.8293C35.5201 14.6823 35.9996 15.8393 36 17.0458V30.3458C36 30.9433 35.8823 31.535 35.6537 32.087C35.425 32.639 35.0898 33.1406 34.6673 33.5631C34.2448 33.9856 33.7432 34.3208 33.1912 34.5494C32.6392 34.7781 32.0475 34.8958 31.45 34.8958H12.55C11.3433 34.8958 10.186 34.4164 9.33266 33.5631C8.47937 32.7098 8 31.5525 8 30.3458V17.0458C8 15.839 8.47937 14.6817 9.33266 13.8284C10.186 12.9751 11.3433 12.4957 12.55 12.4957H15.462L16.687 10.5021C16.9687 10.0432 17.3633 9.66421 17.8331 9.40123C18.3029 9.13824 18.8324 9.00008 19.3708 8.99994H24.695V9.00134ZM24.695 11.1013H19.3708C19.2176 11.1015 19.0663 11.1351 18.9274 11.1999C18.7886 11.2648 18.6657 11.3592 18.5672 11.4765L18.4762 11.6025L16.946 14.0945C16.8522 14.2476 16.7207 14.374 16.564 14.4618C16.4074 14.5495 16.2309 14.5957 16.0514 14.5957H12.5514C12.2295 14.5956 11.9108 14.6588 11.6134 14.7818C11.316 14.9049 11.0457 15.0853 10.8181 15.3128C10.5904 15.5404 10.4098 15.8105 10.2866 16.1079C10.1634 16.4052 10.1 16.7239 10.1 17.0458V30.3458C10.1 31.6982 11.1976 32.7958 12.55 32.7958H31.45C32.0998 32.7958 32.7229 32.5377 33.1824 32.0782C33.6419 31.6187 33.9 30.9956 33.9 30.3458V17.0458C33.9 16.396 33.6419 15.7728 33.1824 15.3133C32.7229 14.8539 32.0998 14.5957 31.45 14.5957H27.95C27.767 14.5958 27.5871 14.5481 27.4282 14.4572C27.2693 14.3664 27.1369 14.2355 27.0442 14.0777L25.5994 11.6179C25.5068 11.4603 25.3746 11.3297 25.216 11.2388C25.0574 11.148 24.8778 11.1001 24.695 11.0999V11.1013ZM22 16.6958C23.6709 16.6958 25.2733 17.3595 26.4548 18.541C27.6363 19.7225 28.3 21.3249 28.3 22.9958C28.3 24.6666 27.6363 26.2691 26.4548 27.4505C25.2733 28.632 23.6709 29.2958 22 29.2958C20.3291 29.2958 18.7267 28.632 17.5452 27.4505C16.3637 26.2691 15.7 24.6666 15.7 22.9958C15.7 21.3249 16.3637 19.7225 17.5452 18.541C18.7267 17.3595 20.3291 16.6958 22 16.6958ZM22 18.7958C21.4484 18.7958 20.9023 18.9044 20.3927 19.1155C19.8832 19.3265 19.4202 19.6359 19.0302 20.0259C18.6401 20.4159 18.3308 20.8789 18.1197 21.3885C17.9086 21.8981 17.8 22.4442 17.8 22.9958C17.8 23.5473 17.9086 24.0935 18.1197 24.603C18.3308 25.1126 18.6401 25.5756 19.0302 25.9656C19.4202 26.3556 19.8832 26.665 20.3927 26.8761C20.9023 27.0871 21.4484 27.1958 22 27.1958C23.1139 27.1958 24.1822 26.7533 24.9698 25.9656C25.7575 25.178 26.2 24.1097 26.2 22.9958C26.2 21.8819 25.7575 20.8136 24.9698 20.0259C24.1822 19.2383 23.1139 18.7958 22 18.7958Z" fill="black"/>
</svg>
