<svg width="24" height="24" viewBox="0 0 24 24" fill="black" xmlns="http://www.w3.org/2000/svg">
  <g id="Variant=Image">
    <path id="Vector"
      d="M4.22222 11L6.44444 8.77778L12.5556 14.8889L16.4444 11L19.7778 14.3333V4.22222H4.22222V11ZM4.22222 14.1433V19.7778H7.66667L10.9844 16.4611L6.44444 11.9211L4.22222 14.1433ZM10.81 19.7778H19.7778V17.4767L16.4444 14.1433L10.81 19.7778ZM3.11111 2H20.8889C21.1836 2 21.4662 2.11706 21.6746 2.32544C21.8829 2.53381 22 2.81643 22 3.11111V20.8889C22 21.1836 21.8829 21.4662 21.6746 21.6746C21.4662 21.8829 21.1836 22 20.8889 22H3.11111C2.81643 22 2.53381 21.8829 2.32544 21.6746C2.11706 21.4662 2 21.1836 2 20.8889V3.11111C2 2.81643 2.11706 2.53381 2.32544 2.32544C2.53381 2.11706 2.81643 2 3.11111 2ZM15.8889 9.77778C15.4469 9.77778 15.0229 9.60218 14.7104 9.28962C14.3978 8.97706 14.2222 8.55314 14.2222 8.11111C14.2222 7.66908 14.3978 7.24516 14.7104 6.9326C15.0229 6.62004 15.4469 6.44444 15.8889 6.44444C16.3309 6.44444 16.7548 6.62004 17.0674 6.9326C17.38 7.24516 17.5556 7.66908 17.5556 8.11111C17.5556 8.55314 17.38 8.97706 17.0674 9.28962C16.7548 9.60218 16.3309 9.77778 15.8889 9.77778Z"
    />
  </g>
</svg>