<svg width="24" height="24" viewBox="0 0 24 24" fill="none" xmlns="http://www.w3.org/2000/svg">
<path d="M7.33333 11.4L8.66667 10.0667L12.3333 13.7333L14.6667 11.4L16.6667 13.4V7.33333H7.33333V11.4ZM7.33333 13.286V16.6667H9.4L11.3907 14.6767L8.66667 11.9527L7.33333 13.286ZM11.286 16.6667H16.6667V15.286L14.6667 13.286L11.286 16.6667ZM6.66667 6H17.3333C17.5101 6 17.6797 6.07024 17.8047 6.19526C17.9298 6.32029 18 6.48986 18 6.66667V17.3333C18 17.5101 17.9298 17.6797 17.8047 17.8047C17.6797 17.9298 17.5101 18 17.3333 18H6.66667C6.48986 18 6.32029 17.9298 6.19526 17.8047C6.07024 17.6797 6 17.5101 6 17.3333V6.66667C6 6.48986 6.07024 6.32029 6.19526 6.19526C6.32029 6.07024 6.48986 6 6.66667 6ZM14.3333 10.6667C14.0681 10.6667 13.8138 10.5613 13.6262 10.3738C13.4387 10.1862 13.3333 9.93188 13.3333 9.66667C13.3333 9.40145 13.4387 9.1471 13.6262 8.95956C13.8138 8.77202 14.0681 8.66667 14.3333 8.66667C14.5985 8.66667 14.8529 8.77202 15.0404 8.95956C15.228 9.1471 15.3333 9.40145 15.3333 9.66667C15.3333 9.93188 15.228 10.1862 15.0404 10.3738C14.8529 10.5613 14.5985 10.6667 14.3333 10.6667Z" fill="black"/>
</svg>
