<svg width="24" height="24" viewBox="0 0 24 24" fill="none" xmlns="http://www.w3.org/2000/svg">
<path d="M9.66667 13.3333H10.3333C10.5222 13.3333 10.6807 13.2693 10.8087 13.1413C10.9367 13.0133 11.0004 12.8551 11 12.6667V12H10.3333V12.6667H9.66667V11.3333H11C11 11.1444 10.936 10.986 10.808 10.858C10.68 10.73 10.5218 10.6662 10.3333 10.6667H9.66667C9.47778 10.6667 9.31933 10.7307 9.19133 10.8587C9.06333 10.9867 8.99956 11.1449 9 11.3333V12.6667C9 12.8556 9.064 13.014 9.192 13.142C9.32 13.27 9.47822 13.3338 9.66667 13.3333ZM11.6667 13.3333H12.3333V10.6667H11.6667V13.3333ZM13 13.3333H13.6667V12.3333H14.6667V11.6667H13.6667V11.3333H15V10.6667H13V13.3333ZM7.33333 18C6.96667 18 6.65267 17.8693 6.39133 17.608C6.13 17.3467 5.99956 17.0329 6 16.6667V7.33333C6 6.96667 6.13067 6.65267 6.392 6.39133C6.65333 6.13 6.96711 5.99956 7.33333 6H16.6667C17.0333 6 17.3473 6.13067 17.6087 6.392C17.87 6.65333 18.0004 6.96711 18 7.33333V16.6667C18 17.0333 17.8693 17.3473 17.608 17.6087C17.3467 17.87 17.0329 18.0004 16.6667 18H7.33333ZM7.33333 16.6667H16.6667V7.33333H7.33333V16.6667Z" fill="black"/>
</svg>
