<svg width="20" height="20" viewBox="0 0 20 20" fill="none" xmlns="http://www.w3.org/2000/svg">
<g id="Group">
<path id="Vector" fill-rule="evenodd" clip-rule="evenodd" d="M2.22222 0C1.63285 0 1.06762 0.234126 0.650874 0.650874C0.234126 1.06762 0 1.63285 0 2.22222V17.7778C0 18.3671 0.234126 18.9324 0.650874 19.3491C1.06762 19.7659 1.63285 20 2.22222 20H17.7778C18.3671 20 18.9324 19.7659 19.3491 19.3491C19.7659 18.9324 20 18.3671 20 17.7778V2.22222C20 1.63285 19.7659 1.06762 19.3491 0.650874C18.9324 0.234126 18.3671 0 17.7778 0H2.22222ZM15.5 7.55111C15.7085 7.34277 15.8257 7.06014 15.8258 6.76539C15.8259 6.47065 15.7089 6.18793 15.5006 5.97944C15.2922 5.77096 15.0096 5.65377 14.7148 5.65366C14.4201 5.65356 14.1374 5.77055 13.9289 5.97889L8.42889 11.4789L6.07222 9.12222C5.96906 9.01899 5.84658 8.93709 5.71176 8.88119C5.57695 8.82529 5.43245 8.79649 5.2865 8.79644C4.99176 8.79634 4.70905 8.91333 4.50056 9.12167C4.29207 9.33001 4.17488 9.61264 4.17478 9.90738C4.17467 10.2021 4.29166 10.4848 4.5 10.6933L7.56444 13.7578C7.67795 13.8713 7.81271 13.9614 7.96103 14.0229C8.10936 14.0843 8.26834 14.116 8.42889 14.116C8.58944 14.116 8.74842 14.0843 8.89675 14.0229C9.04507 13.9614 9.17983 13.8713 9.29333 13.7578L15.5 7.55111Z" fill="#8700FF"/>
</g>
</svg>
