<svg width="21" height="20" viewBox="0 0 21 20" fill="none" xmlns="http://www.w3.org/2000/svg">
<path d="M10.5 20C11.8679 20 13.1557 19.7378 14.3639 19.2134C15.5719 18.6955 16.633 17.976 17.547 17.0551C18.4674 16.1343 19.1896 15.0728 19.7138 13.8705C20.2379 12.6619 20.5 11.3701 20.5 9.9952C20.5 8.6267 20.2379 7.34133 19.7138 6.13909C19.1896 4.93045 18.4674 3.86571 17.547 2.94485C16.633 2.02397 15.5688 1.30455 14.3542 0.786575C13.1462 0.26219 11.8583 0 10.4904 0C9.12256 0 7.83461 0.26219 6.62656 0.786575C5.4185 1.30455 4.35426 2.02397 3.43385 2.94485C2.51981 3.86571 1.80074 4.93045 1.27661 6.13909C0.758869 7.34133 0.5 8.6267 0.5 9.9952C0.5 11.3701 0.758869 12.6619 1.27661 13.8705C1.80074 15.0728 2.52301 16.1343 3.44344 17.0551C4.36385 17.976 5.42809 18.6955 6.63615 19.2134C7.8442 19.7378 9.13215 20 10.5 20ZM9.43576 14.753C9.23761 14.753 9.05865 14.7114 8.89885 14.6282C8.73905 14.5387 8.58885 14.4045 8.44823 14.2254L6.13759 11.4436C6.0481 11.3221 5.97779 11.2038 5.92665 11.0887C5.88191 10.9672 5.85954 10.8425 5.85954 10.7146C5.85954 10.446 5.95223 10.219 6.13759 10.0336C6.32295 9.84173 6.54986 9.7458 6.81831 9.7458C6.97811 9.7458 7.12192 9.78098 7.24976 9.85131C7.3776 9.91526 7.50544 10.0272 7.63328 10.187L9.407 12.4125L13.2709 6.23501C13.501 5.8705 13.7854 5.68825 14.1241 5.68825C14.3799 5.68825 14.6068 5.77139 14.8049 5.93765C15.0094 6.10391 15.1117 6.32134 15.1117 6.58993C15.1117 6.71143 15.0861 6.83294 15.035 6.95444C14.9902 7.07594 14.9327 7.19105 14.8624 7.29976L10.3849 14.2254C10.2699 14.3916 10.1293 14.5227 9.96309 14.6187C9.80329 14.7083 9.62751 14.753 9.43576 14.753Z" fill="#8700FF"/>
</svg>
