<svg width="20" height="20" viewBox="0 0 20 20" fill="none" xmlns="http://www.w3.org/2000/svg">
<path fill-rule="evenodd" clip-rule="evenodd" d="M10 2.29175C5.74283 2.29175 2.29169 5.74289 2.29169 10.0001C2.29169 14.2573 5.74283 17.7084 10 17.7084C14.2572 17.7084 17.7084 14.2573 17.7084 10.0001C17.7084 5.74289 14.2572 2.29175 10 2.29175ZM1.04169 10.0001C1.04169 5.05253 5.05247 1.04175 10 1.04175C14.9476 1.04175 18.9584 5.05253 18.9584 10.0001C18.9584 14.9476 14.9476 18.9584 10 18.9584C5.05247 18.9584 1.04169 14.9476 1.04169 10.0001Z" fill="white"/>
<path fill-rule="evenodd" clip-rule="evenodd" d="M14.6039 6.63733C14.8501 6.87919 14.8537 7.2749 14.6119 7.52118L8.68208 13.5592C8.58892 13.6566 8.47716 13.7343 8.3534 13.7878C8.22712 13.8424 8.091 13.8705 7.95343 13.8705C7.81585 13.8705 7.67973 13.8424 7.55345 13.7878C7.431 13.7349 7.32031 13.6582 7.22775 13.5623L5.21657 11.5594C4.97198 11.3159 4.97117 10.9201 5.21474 10.6755C5.45831 10.431 5.85404 10.4301 6.09862 10.6737L7.9516 12.519L13.72 6.64533C13.9619 6.39905 14.3576 6.39547 14.6039 6.63733Z" fill="white"/>
</svg>
