<svg width="26" height="26" viewBox="0 0 26 26" fill="none" xmlns="http://www.w3.org/2000/svg">
<circle cx="13" cy="13" r="12.5385" fill="#87DFFF" stroke="#8700FF" stroke-width="0.923077"/>
<path d="M11 10.5L13 6L15.5 10L20 11L17 14.5L17.5 19L13 17L8.5 19L9.5 14.5L6 10.5H11Z" fill="white"/>
<path fill-rule="evenodd" clip-rule="evenodd" d="M11.8695 6.02148C12.2624 4.81225 13.9731 4.81226 14.366 6.02148L15.5314 9.60818C15.5565 9.68544 15.6285 9.73774 15.7097 9.73774H19.481C20.7524 9.73774 21.2811 11.3647 20.2525 12.1121L17.2014 14.3288C17.1357 14.3765 17.1082 14.4612 17.1333 14.5384L18.2987 18.1251C18.6916 19.3343 17.3076 20.3399 16.279 19.5925L13.2279 17.3758C13.1622 17.3281 13.0732 17.3281 13.0075 17.3758L9.95649 19.5925C8.92786 20.3399 7.54386 19.3343 7.93676 18.1251L9.10215 14.5384C9.12725 14.4612 9.09975 14.3765 9.03404 14.3288L5.983 12.1121C4.95437 11.3647 5.48302 9.73774 6.75447 9.73774H10.5258C10.607 9.73774 10.679 9.68544 10.7041 9.60818L11.8695 6.02148ZM13.2961 6.36912C13.2399 6.19637 12.9955 6.19638 12.9394 6.36912L11.774 9.95583C11.5983 10.4966 11.0944 10.8627 10.5258 10.8627H6.75447C6.57283 10.8627 6.49732 11.0952 6.64426 11.2019L9.69529 13.4186C10.1553 13.7529 10.3478 14.3453 10.1721 14.8861L9.0067 18.4728C8.95057 18.6455 9.14828 18.7892 9.29523 18.6824L12.3463 16.4657C12.8063 16.1315 13.4292 16.1315 13.8892 16.4657L16.9402 18.6824C17.0872 18.7892 17.2849 18.6455 17.2288 18.4728L16.0634 14.8861C15.8877 14.3453 16.0802 13.7529 16.5402 13.4186L19.5912 11.2019C19.7382 11.0952 19.6626 10.8627 19.481 10.8627H15.7097C15.1411 10.8627 14.6372 10.4966 14.4614 9.95583L13.2961 6.36912Z" fill="#8700FF"/>
</svg>
