<svg width="36" height="37" viewBox="0 0 36 37" fill="none" xmlns="http://www.w3.org/2000/svg">
<g id="Comment/36">
<path id="Union" d="M8 10.5596V9.65957H7.1V10.5596H8ZM27.3043 23.0596V23.9596H28.2043V23.0596H27.3043ZM17.5 23.0596V22.1596H17.1272L16.8636 22.4232L17.5 23.0596ZM13.5121 27.0474L12.8757 26.411L13.5121 27.0474ZM13 23.0596H13.9V22.1596H13V23.0596ZM8 23.0596H7.1V23.9596H8V23.0596ZM24.0435 9.65957H8V11.4596H24.0435V9.65957ZM28.2043 13.8204C28.2043 11.5225 26.3415 9.65957 24.0435 9.65957V11.4596C25.3473 11.4596 26.4043 12.5166 26.4043 13.8204H28.2043ZM28.2043 23.0596V13.8204H26.4043V23.0596H28.2043ZM17.5 23.9596H27.3043V22.1596H17.5V23.9596ZM16.8636 22.4232L12.8757 26.411L14.1485 27.6838L18.1364 23.696L16.8636 22.4232ZM12.8757 26.411C13.2537 26.0331 13.9 26.3008 13.9 26.8353H12.1C12.1 27.9044 13.3926 28.4398 14.1485 27.6838L12.8757 26.411ZM13.9 26.8353V23.0596H12.1V26.8353H13.9ZM8 23.9596H13V22.1596H8V23.9596ZM7.1 10.5596V23.0596H8.9V10.5596H7.1Z" fill="#8700FF"/>
</g>
</svg>
