<svg width="22" height="20" viewBox="0 0 22 20" fill="none" xmlns="http://www.w3.org/2000/svg">
<path d="M3.95746 13.987C2.37341 13.754 1.25 12.3604 1.25 10.7593V4.74064C1.25 3.13956 2.37342 1.74593 3.95747 1.51302C6.25612 1.17504 8.60776 1 11.0003 1C13.3926 1 15.744 1.17501 18.0425 1.51293C19.6266 1.74583 20.75 3.13946 20.75 4.74056V10.7595C20.75 12.3606 19.6266 13.7542 18.0425 13.9871C16.1331 14.2678 14.1872 14.4361 12.2116 14.485C11.9193 14.4923 11.6402 14.6098 11.4335 14.8165L7.25 19V14.3556C6.14151 14.27 5.04357 14.1467 3.95746 13.987Z" stroke="black" stroke-width="2" stroke-linecap="round" stroke-linejoin="round"/>
</svg>
