<svg width="24" height="24" viewBox="0 0 24 24" fill="none" xmlns="http://www.w3.org/2000/svg">
<g id="Group">
<path id="Vector" d="M5.52939 6.70605H4.35293C3.72889 6.70605 3.13042 6.95395 2.68916 7.39521C2.2479 7.83647 2 8.43495 2 9.05898V19.6471C2 20.2712 2.2479 20.8697 2.68916 21.3109C3.13042 21.7522 3.72889 22.0001 4.35293 22.0001H14.9411C15.5651 22.0001 16.1636 21.7522 16.6049 21.3109C17.0461 20.8697 17.294 20.2712 17.294 19.6471V18.4707" stroke="black" stroke-width="2.35293" stroke-linecap="round" stroke-linejoin="round"/>
<path id="Vector_2" d="M16.1176 4.35305L19.647 7.88244M21.2764 6.21775C21.7397 5.7544 22 5.12597 22 4.4707C22 3.81543 21.7397 3.187 21.2764 2.72365C20.813 2.2603 20.1846 2 19.5293 2C18.874 2 18.2456 2.2603 17.7823 2.72365L7.88232 12.5883V16.1177H11.4117L21.2764 6.21775Z" stroke="black" stroke-width="2.35293" stroke-linecap="round" stroke-linejoin="round"/>
</g>
</svg>
