<svg width="26" height="26" viewBox="0 0 26 26" fill="none" xmlns="http://www.w3.org/2000/svg">
<circle cx="13" cy="13" r="12.5385" stroke="black" stroke-width="0.923077"/>
<path fill-rule="evenodd" clip-rule="evenodd" d="M11.8695 6.02142C12.2624 4.81219 13.9731 4.8122 14.366 6.02142L15.5314 9.60812C15.5565 9.68538 15.6285 9.73768 15.7098 9.73768H19.481C20.7525 9.73768 21.2811 11.3647 20.2525 12.112L17.2015 14.3287C17.1358 14.3765 17.1083 14.4611 17.1334 14.5384L18.2987 18.1251C18.6917 19.3343 17.3076 20.3398 16.279 19.5925L13.228 17.3758C13.1623 17.328 13.0733 17.328 13.0076 17.3758L9.95653 19.5925C8.92791 20.3398 7.54391 19.3343 7.9368 18.1251L9.10219 14.5384C9.1273 14.4611 9.0998 14.3765 9.03408 14.3287L5.98305 12.112C4.95442 11.3647 5.48307 9.73768 6.75452 9.73768H10.5258C10.607 9.73768 10.679 9.68538 10.7041 9.60812L11.8695 6.02142ZM13.2961 6.36906C13.24 6.19631 12.9956 6.19632 12.9395 6.36906L11.7741 9.95577C11.5984 10.4965 11.0944 10.8627 10.5258 10.8627H6.75452C6.57288 10.8627 6.49736 11.0951 6.6443 11.2019L9.69534 13.4186C10.1554 13.7528 10.3478 14.3452 10.1721 14.886L9.00674 18.4727C8.95061 18.6455 9.14833 18.7891 9.29527 18.6823L12.3463 16.4656C12.8063 16.1314 13.4292 16.1314 13.8892 16.4656L16.9403 18.6823C17.0872 18.7891 17.2849 18.6454 17.2288 18.4727L16.0634 14.886C15.8877 14.3452 16.0802 13.7528 16.5402 13.4186L19.5912 11.2019C19.7382 11.0951 19.6627 10.8627 19.481 10.8627H15.7098C15.1411 10.8627 14.6372 10.4965 14.4615 9.95577L13.2961 6.36906Z" fill="black"/>
</svg>
