<svg width="24" height="24" viewBox="0 0 24 24" fill="none" xmlns="http://www.w3.org/2000/svg">
<g clip-path="url(#clip0_166_189)">
<path d="M23.6322 21.591L18.1915 16.1504C19.5014 14.4066 20.2085 12.284 20.2061 10.1031C20.2061 4.53232 15.6738 6.10352e-05 10.103 6.10352e-05C4.53226 6.10352e-05 0 4.53232 0 10.1031C0 15.6739 4.53226 20.2061 10.103 20.2061C12.284 20.2085 14.4065 19.5014 16.1503 18.1915L21.591 23.6322C21.8664 23.8784 22.2256 24.0098 22.5948 23.9995C22.9641 23.9892 23.3154 23.8379 23.5766 23.5767C23.8378 23.3154 23.9891 22.9642 23.9994 22.5949C24.0098 22.2256 23.8783 21.8664 23.6322 21.591ZM2.88658 10.1031C2.88658 8.67582 3.30982 7.28059 4.10277 6.09385C4.89573 4.90711 6.02279 3.98216 7.34142 3.43596C8.66006 2.88977 10.111 2.74686 11.5109 3.02531C12.9108 3.30375 14.1966 3.99106 15.2058 5.00029C16.2151 6.00953 16.9024 7.29538 17.1808 8.69524C17.4593 10.0951 17.3164 11.5461 16.7702 12.8647C16.224 14.1834 15.299 15.3104 14.1123 16.1034C12.9255 16.8963 11.5303 17.3196 10.103 17.3196C8.18982 17.3173 6.35562 16.5562 5.00277 15.2034C3.64992 13.8505 2.88888 12.0163 2.88658 10.1031Z" fill="#D9D9D9"/>
</g>
<defs>
<clipPath id="clip0_166_189">
<rect width="24" height="24" fill="white"/>
</clipPath>
</defs>
</svg>
