<svg width="24" height="24" viewBox="0 0 24 24" fill="none" xmlns="http://www.w3.org/2000/svg">
<g clip-path="url(#clip0_3589_7852)">
<path d="M8.96965 11.9997C8.96965 12.3212 8.84195 12.6295 8.61463 12.8568C8.38731 13.0841 8.07901 13.2118 7.75753 13.2118C7.43606 13.2118 7.12775 13.0841 6.90043 12.8568C6.67312 12.6295 6.54541 12.3212 6.54541 11.9997C6.54541 11.6782 6.67312 11.3699 6.90043 11.1426C7.12775 10.9153 7.43606 10.7876 7.75753 10.7876C8.07901 10.7876 8.38731 10.9153 8.61463 11.1426C8.84195 11.3699 8.96965 11.6782 8.96965 11.9997ZM13.2121 11.9997C13.2121 12.3212 13.0844 12.6295 12.8571 12.8568C12.6297 13.0841 12.3214 13.2118 12 13.2118C11.6785 13.2118 11.3702 13.0841 11.1429 12.8568C10.9155 12.6295 10.7878 12.3212 10.7878 11.9997C10.7878 11.6782 10.9155 11.3699 11.1429 11.1426C11.3702 10.9153 11.6785 10.7876 12 10.7876C12.3214 10.7876 12.6297 10.9153 12.8571 11.1426C13.0844 11.3699 13.2121 11.6782 13.2121 11.9997ZM17.4545 11.9997C17.4545 12.3212 17.3268 12.6295 17.0995 12.8568C16.8722 13.0841 16.5639 13.2118 16.2424 13.2118C15.9209 13.2118 15.6126 13.0841 15.3853 12.8568C15.158 12.6295 15.0303 12.3212 15.0303 11.9997C15.0303 11.6782 15.158 11.3699 15.3853 11.1426C15.6126 10.9153 15.9209 10.7876 16.2424 10.7876C16.5639 10.7876 16.8722 10.9153 17.0995 11.1426C17.3268 11.3699 17.4545 11.6782 17.4545 11.9997Z" fill="#303030"/>
</g>
<defs>
<clipPath id="clip0_3589_7852">
<rect width="10.9091" height="10.9091" fill="white" transform="translate(6.54541 6.54541)"/>
</clipPath>
</defs>
</svg>
