<svg width="44" height="44" viewBox="0 0 44 44" fill="none" xmlns="http://www.w3.org/2000/svg">
<path d="M16.4444 22C16.4444 22.5893 16.2103 23.1546 15.7936 23.5713C15.3768 23.9881 14.8116 24.2222 14.2222 24.2222C13.6329 24.2222 13.0676 23.9881 12.6509 23.5713C12.2341 23.1546 12 22.5893 12 22C12 21.4106 12.2341 20.8454 12.6509 20.4286C13.0676 20.0119 13.6329 19.7778 14.2222 19.7778C14.8116 19.7778 15.3768 20.0119 15.7936 20.4286C16.2103 20.8454 16.4444 21.4106 16.4444 22ZM24.2222 22C24.2222 22.5893 23.9881 23.1546 23.5713 23.5713C23.1546 23.9881 22.5894 24.2222 22 24.2222C21.4106 24.2222 20.8454 23.9881 20.4287 23.5713C20.0119 23.1546 19.7778 22.5893 19.7778 22C19.7778 21.4106 20.0119 20.8454 20.4287 20.4286C20.8454 20.0119 21.4106 19.7778 22 19.7778C22.5894 19.7778 23.1546 20.0119 23.5713 20.4286C23.9881 20.8454 24.2222 21.4106 24.2222 22ZM32 22C32 22.5893 31.7659 23.1546 31.3491 23.5713C30.9324 23.9881 30.3671 24.2222 29.7778 24.2222C29.1884 24.2222 28.6232 23.9881 28.2064 23.5713C27.7897 23.1546 27.5556 22.5893 27.5556 22C27.5556 21.4106 27.7897 20.8454 28.2064 20.4286C28.6232 20.0119 29.1884 19.7778 29.7778 19.7778C30.3671 19.7778 30.9324 20.0119 31.3491 20.4286C31.7659 20.8454 32 21.4106 32 22Z" fill="black"/>
</svg>
