<svg width="24" height="24" viewBox="0 0 24 24" fill="none" xmlns="http://www.w3.org/2000/svg">
<g clip-path="url(#clip0_125_423)">
<path d="M8.9697 12C8.9697 12.3215 8.84199 12.6298 8.61468 12.8571C8.38736 13.0844 8.07905 13.2121 7.75758 13.2121C7.4361 13.2121 7.12779 13.0844 6.90048 12.8571C6.67316 12.6298 6.54546 12.3215 6.54546 12C6.54546 11.6785 6.67316 11.3702 6.90048 11.1429C7.12779 10.9156 7.4361 10.7879 7.75758 10.7879C8.07905 10.7879 8.38736 10.9156 8.61468 11.1429C8.84199 11.3702 8.9697 11.6785 8.9697 12ZM13.2121 12C13.2121 12.3215 13.0844 12.6298 12.8571 12.8571C12.6298 13.0844 12.3215 13.2121 12 13.2121C11.6785 13.2121 11.3702 13.0844 11.1429 12.8571C10.9156 12.6298 10.7879 12.3215 10.7879 12C10.7879 11.6785 10.9156 11.3702 11.1429 11.1429C11.3702 10.9156 11.6785 10.7879 12 10.7879C12.3215 10.7879 12.6298 10.9156 12.8571 11.1429C13.0844 11.3702 13.2121 11.6785 13.2121 12ZM17.4545 12C17.4545 12.3215 17.3268 12.6298 17.0995 12.8571C16.8722 13.0844 16.5639 13.2121 16.2424 13.2121C15.921 13.2121 15.6126 13.0844 15.3853 12.8571C15.158 12.6298 15.0303 12.3215 15.0303 12C15.0303 11.6785 15.158 11.3702 15.3853 11.1429C15.6126 10.9156 15.921 10.7879 16.2424 10.7879C16.5639 10.7879 16.8722 10.9156 17.0995 11.1429C17.3268 11.3702 17.4545 11.6785 17.4545 12Z" fill="black"/>
</g>
<defs>
<clipPath id="clip0_125_423">
<rect width="10.9091" height="10.9091" fill="white" transform="translate(6.54546 6.54545)"/>
</clipPath>
</defs>
</svg>
