<svg width="20" height="20" viewBox="0 0 20 20" fill="none" xmlns="http://www.w3.org/2000/svg">
<g id="tdesign:edit" clip-path="url(#clip0_125_451)">
<path id="Vector" d="M13.9276 0.446834C14.3253 0.0492095 14.8647 -0.174164 15.4271 -0.174164C15.9896 -0.174164 16.5289 0.0492095 16.9267 0.446834L19.5514 3.07156C19.7485 3.26853 19.9048 3.50238 20.0114 3.75977C20.1181 4.01716 20.1729 4.29303 20.1729 4.57164C20.1729 4.85024 20.1181 5.12612 20.0114 5.3835C19.9048 5.64089 19.7485 5.87475 19.5514 6.07171L6.93892 18.6842L0.172943 19.8253L1.3151 13.0593L13.9276 0.446834ZM13.6847 3.68877L16.3095 6.3135L18.0519 4.57111L15.4271 1.94744L13.6847 3.68877ZM14.8089 7.81411L12.1852 5.18938L3.29399 14.0806L2.76056 17.2377L5.91766 16.7053L14.8099 7.81304L14.8089 7.81411Z" fill="black"/>
</g>
<defs>
<clipPath id="clip0_125_451">
<rect width="20" height="20" fill="white"/>
</clipPath>
</defs>
</svg>
