<svg width="14" height="14" viewBox="0 0 14 14" fill="none" xmlns="http://www.w3.org/2000/svg">
<circle cx="7" cy="7" r="5" fill="white"/>
<path d="M14 7C14 10.8733 10.8733 14 7 14C3.12667 14 0 10.8733 0 7C0 3.12667 3.12667 0 7 0C10.8733 0 14 3.12667 14 7ZM6.06667 3.31333L6.48667 7.7C6.53333 7.88667 6.58 8.26 6.95333 8.26H7.09333C7.46667 8.26 7.56 7.88667 7.60667 7.65333L7.93333 3.36C7.98 3.03333 7.93333 2.8 7.79333 2.61333C7.65333 2.42667 7.42 2.33333 7.18667 2.33333H6.86C6.58 2.33333 6.39333 2.42667 6.25333 2.56667C6.06667 2.75333 6.02 3.03333 6.06667 3.31333ZM7.98 10.5933C7.98 10.0333 7.65333 9.70667 7.09333 9.70667H6.90667C6.34667 9.70667 6.02 10.0333 6.02 10.5933V10.7333C6.02 11.2933 6.34667 11.62 6.90667 11.62H7.09333C7.65333 11.62 7.98 11.2933 7.98 10.7333V10.5933Z" fill="#EB5757"/>
</svg>
