<svg width="16" height="16" viewBox="0 0 16 16" fill="none" xmlns="http://www.w3.org/2000/svg">
<path fill-rule="evenodd" clip-rule="evenodd" d="M8 6.5C7.17157 6.5 6.5 7.17157 6.5 8C6.5 8.82843 7.17157 9.5 8 9.5C8.82843 9.5 9.5 8.82843 9.5 8C9.5 7.17157 8.82843 6.5 8 6.5ZM5.5 8C5.5 6.61929 6.61929 5.5 8 5.5C9.38071 5.5 10.5 6.61929 10.5 8C10.5 9.38071 9.38071 10.5 8 10.5C6.61929 10.5 5.5 9.38071 5.5 8Z" fill="#A0A0A0"/>
<path fill-rule="evenodd" clip-rule="evenodd" d="M4.28297 5.66511C3.21134 6.48605 2.39824 7.43717 2.00226 7.94144C1.98588 7.96231 1.98047 7.98258 1.98047 7.99993C1.98047 8.01727 1.98588 8.03755 2.00226 8.05841C2.39824 8.56268 3.21134 9.5138 4.28297 10.3347C5.36084 11.1605 6.64731 11.814 8.00026 11.814C9.35321 11.814 10.6397 11.1605 11.7175 10.3347C12.7892 9.5138 13.6023 8.56268 13.9983 8.05841C14.0146 8.03755 14.0201 8.01727 14.0201 7.99993C14.0201 7.98259 14.0146 7.96231 13.9983 7.94144C13.6023 7.43717 12.7892 6.48605 11.7175 5.66511C10.6397 4.83939 9.35321 4.18585 8.00026 4.18585C6.64731 4.18585 5.36084 4.83939 4.28297 5.66511ZM3.67484 4.87127C4.83267 3.9843 6.33239 3.18585 8.00026 3.18585C9.66813 3.18585 11.1678 3.9843 12.3257 4.87127C13.4897 5.76302 14.3619 6.7853 14.7847 7.32384C15.0985 7.72337 15.0985 8.27648 14.7847 8.67601C14.3619 9.21455 13.4897 10.2368 12.3257 11.1286C11.1678 12.0156 9.66813 12.814 8.00026 12.814C6.33239 12.814 4.83267 12.0156 3.67484 11.1286C2.51078 10.2368 1.63866 9.21455 1.21577 8.67601C0.902036 8.27648 0.902034 7.72338 1.21577 7.32384C1.63866 6.7853 2.51078 5.76303 3.67484 4.87127Z" fill="#A0A0A0"/>
</svg>
