<svg width="114" height="95" viewBox="0 0 114 95" fill="none" xmlns="http://www.w3.org/2000/svg">
<path d="M60.0075 23.744C58.4324 23.744 56.9218 24.3697 55.808 25.4835C54.6943 26.5973 54.0685 28.1079 54.0685 29.683C54.0685 31.2581 54.6943 32.7687 55.808 33.8825C56.9218 34.9962 58.4324 35.622 60.0075 35.622H83.7635C85.3386 35.622 86.8492 34.9962 87.963 33.8825C89.0767 32.7687 89.7025 31.2581 89.7025 29.683C89.7025 28.1079 89.0767 26.5973 87.963 25.4835C86.8492 24.3697 85.3386 23.744 83.7635 23.744H60.0075ZM60.0075 77.1949C58.4324 77.1949 56.9218 77.8206 55.808 78.9343C54.6943 80.0481 54.0685 81.5587 54.0685 83.1338C54.0685 84.709 54.6943 86.2196 55.808 87.3333C56.9218 88.4471 58.4324 89.0728 60.0075 89.0728H83.7635C85.3386 89.0728 86.8492 88.4471 87.963 87.3333C89.0767 86.2196 89.7025 84.709 89.7025 83.1338C89.7025 81.5587 89.0767 80.0481 87.963 78.9343C86.8492 77.8206 85.3386 77.1949 83.7635 77.1949H60.0075Z" fill="#8700FF"/>
<path d="M60.0075 5.92703C58.4324 5.92703 56.9218 6.55275 55.808 7.66652C54.6943 8.7803 54.0685 10.2909 54.0685 11.866C54.0685 13.4411 54.6943 14.9517 55.808 16.0655C56.9218 17.1793 58.4324 17.805 60.0075 17.805H107.519C109.095 17.805 110.605 17.1793 111.719 16.0655C112.833 14.9517 113.458 13.4411 113.458 11.866C113.458 10.2909 112.833 8.7803 111.719 7.66652C110.605 6.55275 109.095 5.92703 107.519 5.92703H60.0075ZM60.0075 59.3779C58.4324 59.3779 56.9218 60.0036 55.808 61.1174C54.6943 62.2312 54.0685 63.7418 54.0685 65.3169C54.0685 66.892 54.6943 68.4026 55.808 69.5164C56.9218 70.6302 58.4324 71.2559 60.0075 71.2559H107.519C109.095 71.2559 110.605 70.6302 111.719 69.5164C112.833 68.4026 113.458 66.892 113.458 65.3169C113.458 63.7418 112.833 62.2312 111.719 61.1174C110.605 60.0036 109.095 59.3779 107.519 59.3779H60.0075Z" fill="#8700FF"/>
<path d="M5.93898 0C4.36387 0 2.85326 0.625714 1.73949 1.73949C0.625712 2.85327 0 4.36387 0 5.93898V35.6339C0 37.209 0.625712 38.7196 1.73949 39.8334C2.85326 40.9472 4.36387 41.5729 5.93898 41.5729H35.6339C37.209 41.5729 38.7196 40.9472 39.8334 39.8334C40.9472 38.7196 41.5729 37.209 41.5729 35.6339V5.93898C41.5729 4.36387 40.9472 2.85327 39.8334 1.73949C38.7196 0.625714 37.209 0 35.6339 0H5.93898ZM5.93898 53.4271C4.36387 53.4271 2.85326 54.0528 1.73949 55.1666C0.625712 56.2804 0 57.791 0 59.3661V89.061C0 90.6361 0.625712 92.1467 1.73949 93.2605C2.85326 94.3743 4.36387 95 5.93898 95H35.6339C37.209 95 38.7196 94.3743 39.8334 93.2605C40.9472 92.1467 41.5729 90.6361 41.5729 89.061V59.3661C41.5729 57.791 40.9472 56.2804 39.8334 55.1666C38.7196 54.0528 37.209 53.4271 35.6339 53.4271H5.93898Z" fill="#8700FF"/>
</svg>
