<svg width="58" height="44" viewBox="0 0 58 44" fill="none" xmlns="http://www.w3.org/2000/svg">
<circle cx="21.9999" cy="22" r="16.6003" fill="#ECEBEC" stroke="#303030" stroke-width="1.63281"/>
<mask id="mask0_500_986" style="mask-type:alpha" maskUnits="userSpaceOnUse" x="7" y="10" width="30" height="30">
<circle cx="22.2013" cy="24.8867" r="14.3283" fill="#E3F6FF" stroke="#D9D9D9" stroke-width="0.0483399"/>
</mask>
<g mask="url(#mask0_500_986)">
<path d="M27.0506 19.8125C27.0506 22.3223 24.9945 24.3584 22.4565 24.3584C19.9184 24.3584 17.8624 22.3223 17.8624 19.8125C17.8624 17.3026 19.9184 15.2665 22.4565 15.2665C24.9945 15.2665 27.0506 17.3026 27.0506 19.8125Z" fill="#303030" stroke="#303030" stroke-width="0.160738"/>
<path d="M16.3445 26.4012H27.9452C29.8607 26.4012 31.4135 27.954 31.4135 29.8695V41.0447H12.8763V29.8695C12.8763 27.954 14.4291 26.4012 16.3445 26.4012Z" fill="#303030" stroke="#303030" stroke-width="0.160738"/>
</g>
<circle cx="35.9999" cy="22" r="16.6003" fill="#ECEBEC" stroke="#303030" stroke-width="1.63281"/>
<mask id="mask1_500_986" style="mask-type:alpha" maskUnits="userSpaceOnUse" x="21" y="10" width="30" height="30">
<circle cx="36.2013" cy="24.8867" r="14.3283" fill="#E3F6FF" stroke="#D9D9D9" stroke-width="0.0483399"/>
</mask>
<g mask="url(#mask1_500_986)">
<path d="M41.0506 19.8125C41.0506 22.3223 38.9945 24.3584 36.4565 24.3584C33.9184 24.3584 31.8624 22.3223 31.8624 19.8125C31.8624 17.3026 33.9184 15.2665 36.4565 15.2665C38.9945 15.2665 41.0506 17.3026 41.0506 19.8125Z" fill="#303030" stroke="#303030" stroke-width="0.160738"/>
<path d="M30.3445 26.4012H41.9452C43.8607 26.4012 45.4135 27.954 45.4135 29.8695V41.0447H26.8763V29.8695C26.8763 27.954 28.4291 26.4012 30.3445 26.4012Z" fill="#303030" stroke="#303030" stroke-width="0.160738"/>
</g>
</svg>
