<svg width="24" height="24" viewBox="0 0 24 24" fill="none" xmlns="http://www.w3.org/2000/svg">
<path d="M14.102 2.664C14.73 2.248 15.794 1.951 16.597 2.754L21.244 7.402C22.05 8.206 21.752 9.27 21.335 9.897C21.1092 10.237 20.8154 10.5264 20.472 10.747C20.138 10.96 19.716 11.121 19.261 11.097C19.0409 11.0814 18.8214 11.0577 18.603 11.026L18.535 11.016C18.3004 10.9824 18.0645 10.958 17.828 10.943C17.324 10.918 17.13 11.003 17.068 11.063L14.578 13.554C14.498 13.634 14.398 13.812 14.322 14.154C14.249 14.484 14.217 14.89 14.209 15.34C14.202 15.772 14.217 16.214 14.233 16.64L14.234 16.687C14.249 17.11 14.264 17.542 14.243 17.881C14.178 18.912 13.375 19.671 12.585 20.022C11.795 20.372 10.668 20.459 9.885 19.675L7.635 17.425L3.53 21.53C3.46134 21.6037 3.37854 21.6628 3.28654 21.7038C3.19454 21.7448 3.09523 21.7668 2.99452 21.7686C2.89382 21.7704 2.79379 21.7518 2.7004 21.7141C2.60702 21.6764 2.52218 21.6203 2.45096 21.549C2.37974 21.4778 2.3236 21.393 2.28588 21.2996C2.24816 21.2062 2.22963 21.1062 2.23141 21.0055C2.23319 20.9048 2.25523 20.8055 2.29622 20.7135C2.33721 20.6215 2.39631 20.5387 2.47 20.47L6.574 16.365L4.324 14.115C3.541 13.331 3.627 12.205 3.978 11.415C4.328 10.625 5.088 9.822 6.118 9.757C6.458 9.736 6.89 9.751 7.313 9.766L7.36 9.767C7.786 9.782 8.228 9.798 8.66 9.791C9.11 9.783 9.516 9.751 9.846 9.678C10.188 9.602 10.366 9.501 10.446 9.421L12.936 6.931C12.997 6.87 13.082 6.675 13.056 6.171C13.041 5.93446 13.0166 5.69861 12.983 5.464L12.974 5.396C12.9423 5.17761 12.9186 4.95813 12.903 4.738C12.878 4.283 13.039 3.861 13.251 3.527C13.467 3.187 13.766 2.887 14.102 2.664Z" fill="black"/>
</svg>
