<svg width="36" height="36" viewBox="0 0 36 36" fill="none" xmlns="http://www.w3.org/2000/svg">
<path d="M23.4521 16.5008C25.7158 16.5008 27.5294 14.4907 27.5294 12.0007C27.5294 9.51067 25.7158 7.50065 23.4521 7.50065C21.1884 7.50065 19.3611 9.51067 19.3611 12.0007C19.3611 14.4907 21.1884 16.5008 23.4521 16.5008ZM12.5429 16.5008C14.8065 16.5008 16.6202 14.4907 16.6202 12.0007C16.6202 9.51067 14.8065 7.50065 12.5429 7.50065C10.2792 7.50065 8.45192 9.51067 8.45192 12.0007C8.45192 14.4907 10.2792 16.5008 12.5429 16.5008ZM12.5429 19.5008C9.36556 19.5008 2.99731 21.2558 2.99731 24.7509V27.0009C2.99731 27.8259 3.61095 28.5009 4.36096 28.5009H20.7248C21.4748 28.5009 22.0884 27.8259 22.0884 27.0009V24.7509C22.0884 21.2558 15.7202 19.5008 12.5429 19.5008ZM23.4521 19.5008C23.0566 19.5008 22.6066 19.5308 22.1293 19.5758C22.1566 19.5908 22.1703 19.6208 22.1839 19.6358C23.7385 20.8808 24.8157 22.5458 24.8157 24.7509V27.0009C24.8157 27.5259 24.7203 28.0359 24.5703 28.5009H31.634C32.384 28.5009 32.9977 27.8259 32.9977 27.0009V24.7509C32.9977 21.2558 26.6294 19.5008 23.4521 19.5008Z" fill="#EEEEEE"/>
</svg>
