<svg width="28" height="28" viewBox="0 0 28 28" fill="#303030" xmlns="http://www.w3.org/2000/svg">
  <path
    d="M14 0C21.7322 0 28 6.2678 28 14C28 21.7322 21.7322 28 14 28C11.7351 28.003 9.5036 27.4542 7.49841 26.4012L1.49241 27.965C1.29173 28.0173 1.08087 28.0162 0.880739 27.9619C0.680605 27.9075 0.498142 27.8018 0.351434 27.6553C0.204725 27.5087 0.0988657 27.3264 0.044346 27.1263C-0.0101737 26.9262 -0.0114605 26.7153 0.0406132 26.5146L1.60301 20.51C0.547133 18.5027 -0.00310752 16.2681 1.32007e-05 14C1.32007e-05 6.2678 6.26781 0 14 0ZM15.7528 15.4H9.45001L9.30721 15.4098C9.05589 15.4444 8.82559 15.5688 8.65889 15.76C8.49218 15.9512 8.40033 16.1963 8.40033 16.45C8.40033 16.7037 8.49218 16.9488 8.65889 17.14C8.82559 17.3312 9.05589 17.4556 9.30721 17.4902L9.45001 17.5H15.7528L15.8942 17.4902C16.1455 17.4556 16.3758 17.3312 16.5425 17.14C16.7092 16.9488 16.8011 16.7037 16.8011 16.45C16.8011 16.1963 16.7092 15.9512 16.5425 15.76C16.3758 15.5688 16.1455 15.4444 15.8942 15.4098L15.7528 15.4ZM18.55 10.5H9.45001L9.30721 10.5098C9.05589 10.5444 8.82559 10.6688 8.65889 10.86C8.49218 11.0512 8.40033 11.2963 8.40033 11.55C8.40033 11.8037 8.49218 12.0488 8.65889 12.24C8.82559 12.4312 9.05589 12.5556 9.30721 12.5902L9.45001 12.6H18.55L18.6928 12.5902C18.9441 12.5556 19.1744 12.4312 19.3411 12.24C19.5078 12.0488 19.5997 11.8037 19.5997 11.55C19.5997 11.2963 19.5078 11.0512 19.3411 10.86C19.1744 10.6688 18.9441 10.5444 18.6928 10.5098L18.55 10.5Z"
  />
</svg>