<svg width="44" height="44" viewBox="0 0 44 44" fill="none" xmlns="http://www.w3.org/2000/svg">
<circle cx="22" cy="22" r="14" fill="#303030"/>
<path d="M22 14.6111C21.0928 14.6109 20.2114 14.9127 19.4948 15.469C18.7782 16.0254 18.2673 16.8045 18.0427 17.6834C17.8181 18.5624 17.8925 19.4911 18.2543 20.323C18.6162 21.1549 19.2447 21.8426 20.0408 22.2777C18.6214 22.6921 17.3696 23.5451 16.4647 24.7145C15.5597 25.8839 15.0481 27.3097 15.0031 28.7877C15.0007 28.8643 15.0135 28.9406 15.0406 29.0123C15.0677 29.084 15.1087 29.1496 15.1612 29.2055C15.2137 29.2613 15.2768 29.3062 15.3466 29.3377C15.4165 29.3692 15.4919 29.3866 15.5686 29.3889H28.4322C28.5868 29.3842 28.7332 29.3183 28.8393 29.2057C28.9453 29.0931 29.0023 28.943 28.9977 28.7885C28.9527 27.3105 28.4411 25.8847 27.5361 24.7153C26.6312 23.5459 25.3794 22.6929 23.96 22.2784C24.7565 21.8436 25.3855 21.1558 25.7476 20.3236C26.1097 19.4914 26.1842 18.5624 25.9595 17.6831C25.7347 16.8039 25.2234 16.0246 24.5064 15.4683C23.7894 14.912 22.9075 14.6104 22 14.6111Z" fill="white"/>
</svg>
