<svg width="48" height="48" viewBox="0 0 48 48" fill="none" xmlns="http://www.w3.org/2000/svg">
<g id="Friends_Button">
<g id="Group 36733">
<path id="Vector" d="M30.3786 21.1522C32.6297 21.1522 34.4547 19.3272 34.4547 17.0761C34.4547 14.8249 32.6297 13 30.3786 13C28.1274 13 26.3025 14.8249 26.3025 17.0761C26.3025 19.3272 28.1274 21.1522 30.3786 21.1522Z" fill="#D9D9D9"/>
<path id="Vector_2" d="M34.9983 22.8105H28.4121V35.854H38.2592V26.0714C38.2592 24.2705 36.7993 22.8105 34.9983 22.8105Z" fill="#D9D9D9"/>
<path id="Vector_3" d="M18.4237 21.1522C20.6749 21.1522 22.4998 19.3272 22.4998 17.0761C22.4998 14.8249 20.6749 13 18.4237 13C16.1726 13 14.3477 14.8249 14.3477 17.0761C14.3477 19.3272 16.1726 21.1522 18.4237 21.1522Z" fill="#D9D9D9"/>
<path id="Vector_4" d="M23.0435 22.8105H10V35.854H26.3043V26.0714C26.3043 24.2705 24.8444 22.8105 23.0435 22.8105Z" fill="#D9D9D9"/>
</g>
</g>
</svg>
