<svg width="29" height="23" viewBox="0 0 29 23" fill="none" xmlns="http://www.w3.org/2000/svg">
<g id="Group 36733">
<path id="Vector" d="M23.9025 4.5C23.9025 6.21208 22.5146 7.6 20.8025 7.6C19.0904 7.6 17.7025 6.21208 17.7025 4.5C17.7025 2.78792 19.0904 1.4 20.8025 1.4C22.5146 1.4 23.9025 2.78792 23.9025 4.5Z" stroke="#D9D9D9" stroke-width="2.8"/>
<path id="Vector_2" d="M19.8121 21.4543V11.2108H24.9983C26.0261 11.2108 26.8592 12.0439 26.8592 13.0717V21.4543H19.8121Z" stroke="#D9D9D9" stroke-width="2.8"/>
<path id="Vector_3" d="M11.9475 4.5C11.9475 6.21208 10.5596 7.6 8.84753 7.6C7.13545 7.6 5.74753 6.21208 5.74753 4.5C5.74753 2.78792 7.13545 1.4 8.84753 1.4C10.5596 1.4 11.9475 2.78792 11.9475 4.5Z" stroke="#D9D9D9" stroke-width="2.8"/>
<path id="Vector_4" d="M1.4 21.4543V11.2108H13.0435C14.0712 11.2108 14.9043 12.0439 14.9043 13.0717V21.4543H1.4Z" stroke="#D9D9D9" stroke-width="2.8"/>
</g>
</svg>
