<svg width="36" height="36" viewBox="0 0 36 36" fill="none" xmlns="http://www.w3.org/2000/svg">
<path d="M23.4521 16.5003C25.7158 16.5003 27.5294 14.4902 27.5294 12.0002C27.5294 9.51018 25.7158 7.50016 23.4521 7.50016C21.1884 7.50016 19.3611 9.51018 19.3611 12.0002C19.3611 14.4902 21.1884 16.5003 23.4521 16.5003ZM12.5429 16.5003C14.8065 16.5003 16.6202 14.4902 16.6202 12.0002C16.6202 9.51018 14.8065 7.50016 12.5429 7.50016C10.2792 7.50016 8.45192 9.51018 8.45192 12.0002C8.45192 14.4902 10.2792 16.5003 12.5429 16.5003ZM12.5429 19.5003C9.36556 19.5003 2.99731 21.2553 2.99731 24.7504V27.0004C2.99731 27.8254 3.61095 28.5004 4.36096 28.5004H20.7248C21.4748 28.5004 22.0884 27.8254 22.0884 27.0004V24.7504C22.0884 21.2553 15.7202 19.5003 12.5429 19.5003ZM23.4521 19.5003C23.0566 19.5003 22.6066 19.5303 22.1293 19.5753C22.1566 19.5903 22.1703 19.6203 22.1839 19.6353C23.7385 20.8803 24.8157 22.5453 24.8157 24.7504V27.0004C24.8157 27.5254 24.7203 28.0354 24.5703 28.5004H31.634C32.384 28.5004 32.9977 27.8254 32.9977 27.0004V24.7504C32.9977 21.2553 26.6294 19.5003 23.4521 19.5003Z" fill="black"/>
</svg>
