<svg width="28" height="28" viewBox="0 0 28 28" fill="none" xmlns="http://www.w3.org/2000/svg">
<circle cx="14" cy="14" r="14" fill="#303030"/>
<path d="M14.0001 6.61109C13.0929 6.61083 12.2115 6.91269 11.4949 7.46902C10.7783 8.02534 10.2674 8.80446 10.0428 9.6834C9.81816 10.5623 9.89264 11.491 10.2544 12.323C10.6163 13.1549 11.2448 13.8426 12.0409 14.2776C10.6215 14.6921 9.36968 15.5451 8.46475 16.7145C7.55983 17.8839 7.04822 19.3097 7.00321 20.7876C7.00083 20.8643 7.01356 20.9406 7.0407 21.0123C7.06783 21.084 7.10882 21.1496 7.16133 21.2054C7.21385 21.2613 7.27685 21.3062 7.34674 21.3377C7.41663 21.3692 7.49204 21.3865 7.56866 21.3889H20.4323C20.5869 21.3842 20.7333 21.3183 20.8394 21.2057C20.9454 21.0931 21.0024 20.943 20.9978 20.7884C20.9528 19.3105 20.4412 17.8847 19.5362 16.7153C18.6313 15.5458 17.3795 14.6928 15.9601 14.2784C16.7566 13.8436 17.3856 13.1557 17.7477 12.3236C18.1098 11.4914 18.1843 10.5624 17.9596 9.68312C17.7348 8.80387 17.2235 8.02456 16.5065 7.46825C15.7895 6.91194 14.9076 6.61034 14.0001 6.61109Z" fill="white"/>
</svg>
