<svg width="29" height="23" viewBox="0 0 29 23" fill="none" xmlns="http://www.w3.org/2000/svg">
<g id="Group 36733">
<path id="Vector" d="M20.8025 9C23.2878 9 25.3025 6.98528 25.3025 4.5C25.3025 2.01472 23.2878 0 20.8025 0C18.3172 0 16.3025 2.01472 16.3025 4.5C16.3025 6.98528 18.3172 9 20.8025 9Z" fill="#8700FF"/>
<path id="Vector_2" d="M24.9983 9.81079H18.4121V22.8543H28.2592V13.0717C28.2592 11.2707 26.7993 9.81079 24.9983 9.81079Z" fill="#8700FF"/>
<path id="Vector_3" d="M8.84753 9C11.3328 9 13.3475 6.98528 13.3475 4.5C13.3475 2.01472 11.3328 0 8.84753 0C6.36225 0 4.34753 2.01472 4.34753 4.5C4.34753 6.98528 6.36225 9 8.84753 9Z" fill="#8700FF"/>
<path id="Vector_4" d="M13.0435 9.81079H0V22.8543H16.3043V13.0717C16.3043 11.2707 14.8444 9.81079 13.0435 9.81079Z" fill="#8700FF"/>
</g>
</svg>
