<svg width="16" height="16" viewBox="0 0 16 16" fill="none" xmlns="http://www.w3.org/2000/svg">
<path d="M7.35929 2.08206C7.40468 1.80968 7.22067 1.55206 6.94829 1.50667C6.6759 1.46127 6.41829 1.64528 6.37289 1.91767L4.37291 13.9178C4.32751 14.1901 4.51152 14.4478 4.78391 14.4932C5.05629 14.5386 5.31391 14.3545 5.3593 14.0822L5.95663 10.4981C5.97092 10.4994 5.98539 10.5 6 10.5H8.24424C8.52038 10.5 8.74424 10.2761 8.74424 10C8.74424 9.72386 8.52038 9.5 8.24424 9.5H6.12298L6.62328 6.49815C6.63758 6.49937 6.65205 6.5 6.66667 6.5L8.80334 6.5C9.07948 6.5 9.30334 6.27614 9.30334 6C9.30334 5.72386 9.07948 5.5 8.80334 5.5L6.78964 5.5L7.35929 2.08206Z" fill="black"/>
<path d="M11.6275 2.08206C11.6729 1.80968 11.4889 1.55206 11.2165 1.50667C10.9441 1.46127 10.6865 1.64528 10.6411 1.91767L8.64114 13.9178C8.59574 14.1901 8.77975 14.4478 9.05214 14.4932C9.32452 14.5386 9.58213 14.3545 9.62753 14.0822L10.2245 10.5H13.3335C13.6097 10.5 13.8335 10.2761 13.8335 10C13.8335 9.72386 13.6097 9.5 13.3335 9.5H10.3912L10.8912 6.5H14.0002C14.2763 6.5 14.5002 6.27614 14.5002 6C14.5002 5.72386 14.2763 5.5 14.0002 5.5H11.0579L11.6275 2.08206Z" fill="black"/>
<path d="M2.16667 6C2.16667 5.72386 2.39052 5.5 2.66667 5.5H4.51992C4.79607 5.5 5.01992 5.72386 5.01992 6C5.01992 6.27614 4.79607 6.5 4.51992 6.5H2.66667C2.39052 6.5 2.16667 6.27614 2.16667 6Z" fill="black"/>
<path d="M2 9.5C1.72386 9.5 1.5 9.72386 1.5 10C1.5 10.2761 1.72386 10.5 2 10.5H3.84211C4.11826 10.5 4.34211 10.2761 4.34211 10C4.34211 9.72386 4.11826 9.5 3.84211 9.5H2Z" fill="black"/>
</svg>
