<svg width="72" height="24" viewBox="0 0 72 24" fill="none" xmlns="http://www.w3.org/2000/svg">
<g clip-path="url(#clip0_2183_3642)">
<path d="M0.000180682 11.9441C0.000180396 18.4714 5.29817 23.7628 11.8336 23.7628C18.369 23.7628 23.667 18.4714 23.667 11.9441C23.667 5.41688 18.369 0.125488 11.8336 0.125488C5.29817 0.125487 0.000180967 5.41688 0.000180682 11.9441Z" fill="#87DFFF"/>
<path d="M23.6674 11.9441C23.6674 18.4714 28.9654 23.7628 35.5008 23.7628C42.0362 23.7628 47.3342 18.4714 47.3342 11.9441C47.3342 5.41688 42.0362 0.125488 35.5008 0.125488C28.9654 0.125487 23.6674 5.41688 23.6674 11.9441Z" fill="url(#paint0_linear_2183_3642)"/>
<path d="M47.3962 12.0414C47.3962 18.5768 52.6942 23.8748 59.2296 23.8748C65.765 23.8748 71.063 18.5768 71.063 12.0414C71.063 5.506 65.765 0.208008 59.2296 0.208007C52.6942 0.208007 47.3962 5.506 47.3962 12.0414Z" fill="#8700FF"/>
</g>
<defs>
<linearGradient id="paint0_linear_2183_3642" x1="23.6674" y1="11.9441" x2="47.3313" y2="11.9441" gradientUnits="userSpaceOnUse">
<stop stop-color="#87DFFF"/>
<stop offset="0.96" stop-color="#8700FF"/>
</linearGradient>
<clipPath id="clip0_2183_3642">
<rect width="23.7494" height="71.0624" fill="white" transform="translate(71.0625 0.125488) rotate(90)"/>
</clipPath>
</defs>
</svg>
