<svg width="44" height="44" viewBox="0 0 44 44" fill="none" xmlns="http://www.w3.org/2000/svg">
<path d="M22 19.5C21.2044 19.5 20.4413 19.8161 19.8787 20.3787C19.3161 20.9413 19 21.7044 19 22.5C19 23.2956 19.3161 24.0587 19.8787 24.6213C20.4413 25.1839 21.2044 25.5 22 25.5C22.7957 25.5 23.5587 25.1839 24.1213 24.6213C24.6839 24.0587 25 23.2956 25 22.5C25 21.7044 24.6839 20.9413 24.1213 20.3787C23.5587 19.8161 22.7957 19.5 22 19.5ZM22 27.5C20.6739 27.5 19.4022 26.9732 18.4645 26.0355C17.5268 25.0979 17 23.8261 17 22.5C17 21.1739 17.5268 19.9021 18.4645 18.9645C19.4022 18.0268 20.6739 17.5 22 17.5C23.3261 17.5 24.5979 18.0268 25.5355 18.9645C26.4732 19.9021 27 21.1739 27 22.5C27 23.8261 26.4732 25.0979 25.5355 26.0355C24.5979 26.9732 23.3261 27.5 22 27.5ZM22 15C17 15 12.73 18.11 11 22.5C12.73 26.89 17 30 22 30C27 30 31.27 26.89 33 22.5C31.27 18.11 27 15 22 15Z" fill="black"/>
</svg>
