<svg width="44" height="44" viewBox="0 0 44 44" fill="none" xmlns="http://www.w3.org/2000/svg">
<path d="M12 14.27L13.28 13L30 29.72L28.73 31L25.65 27.92C24.5 28.3 23.28 28.5 22 28.5C17 28.5 12.73 25.39 11 21C11.69 19.24 12.79 17.69 14.19 16.46L12 14.27ZM22 18C22.7957 18 23.5587 18.3161 24.1213 18.8787C24.6839 19.4413 25 20.2044 25 21C25.0005 21.3406 24.943 21.6787 24.83 22L21 18.17C21.3213 18.057 21.6594 17.9995 22 18ZM22 13.5C27 13.5 31.27 16.61 33 21C32.1839 23.0732 30.797 24.8727 29 26.19L27.58 24.76C28.9629 23.8034 30.0782 22.5091 30.82 21C30.0116 19.35 28.7564 17.9598 27.1973 16.9875C25.6381 16.0153 23.8375 15.4999 22 15.5C20.91 15.5 19.84 15.68 18.84 16L17.3 14.47C18.74 13.85 20.33 13.5 22 13.5ZM13.18 21C13.9885 22.6501 15.2436 24.0402 16.8027 25.0125C18.3619 25.9848 20.1626 26.5001 22 26.5C22.69 26.5 23.37 26.43 24 26.29L21.72 24C21.0242 23.9254 20.3748 23.6149 19.88 23.12C19.3851 22.6252 19.0746 21.9759 19 21.28L15.6 17.87C14.61 18.72 13.78 19.78 13.18 21Z" fill="#A0A0A0"/>
</svg>
