<svg width="48" height="48" viewBox="0 0 48 48" fill="none" xmlns="http://www.w3.org/2000/svg">
<circle cx="24" cy="24" r="24" fill="black"/>
<path fill-rule="evenodd" clip-rule="evenodd" d="M12.2169 22.1464C12.0779 22.2868 11.9999 22.4765 11.9999 22.6741V36.7685C11.9999 37.1827 12.3357 37.5185 12.7499 37.5185H35.25C35.6642 37.5185 36 37.1827 36 36.7685V22.6741C36 22.4765 35.922 22.2868 35.783 22.1464L24.533 10.7817C24.2395 10.4853 23.7604 10.4853 23.4669 10.7817L12.2169 22.1464ZM23.9999 27.0025C22.5272 27.0025 21.3333 28.1964 21.3333 29.6692V37.5183H26.6666V29.6692C26.6666 28.1964 25.4727 27.0025 23.9999 27.0025Z" fill="#EAEAEA"/>
<path d="M10.5 23.448L22.8985 10.9595C23.5069 10.3468 24.4931 10.3468 25.1015 10.9595L37.5 23.448" stroke="#EAEAEA" stroke-width="2.25" stroke-linecap="round" stroke-linejoin="round"/>
</svg>
