<svg width="48" height="48" viewBox="0 0 48 48" fill="none" xmlns="http://www.w3.org/2000/svg">
<g id="Home_Button">
<circle id="Ellipse 416" cx="24" cy="24" r="18" fill="#D9D9D9"/>
<path id="Union" fill-rule="evenodd" clip-rule="evenodd" d="M14.9999 23.6505L14.4738 24.1805C14.1455 24.5112 13.6112 24.5131 13.2805 24.1848C12.9498 23.8565 12.9479 23.3223 13.2762 22.9916L22.5751 13.6252C23.3614 12.8333 24.6386 12.8333 25.4249 13.6252L34.7238 22.9916C35.0521 23.3223 35.0502 23.8565 34.7195 24.1848C34.3888 24.5131 33.8545 24.5112 33.5262 24.1805L33 23.6504V33.5763C33 33.8869 32.7482 34.1388 32.4375 34.1388H15.5624C15.2518 34.1388 14.9999 33.8869 14.9999 33.5763V23.6505ZM21.9999 28.2517C21.9999 27.1471 22.8954 26.2516 23.9999 26.2516C25.1045 26.2516 26 27.1471 26 28.2517V34.1385H21.9999V28.2517Z" fill="#F5F5F5"/>
</g>
</svg>
