<svg width="48" height="48" viewBox="0 0 48 48" fill="none" xmlns="http://www.w3.org/2000/svg">
<circle cx="24" cy="24" r="24" fill="#EEEEEE"/>
<path fill-rule="evenodd" clip-rule="evenodd" d="M12.2169 22.1464C12.0779 22.2868 11.9999 22.4764 11.9999 22.674V36.7684C11.9999 37.1827 12.3357 37.5184 12.7499 37.5184H35.25C35.6642 37.5184 36 37.1827 36 36.7684V22.674C36 22.4764 35.922 22.2868 35.783 22.1464L24.533 10.7817C24.2395 10.4852 23.7604 10.4852 23.4669 10.7817L12.2169 22.1464ZM23.9999 27.0024C22.5272 27.0024 21.3333 28.1964 21.3333 29.6691V37.5183H26.6666V29.6691C26.6666 28.1964 25.4727 27.0024 23.9999 27.0024Z" fill="#C3C3C3"/>
<path d="M10.5 23.448L22.8985 10.9595C23.5069 10.3468 24.4931 10.3468 25.1015 10.9595L37.5 23.448" stroke="#C3C3C3" stroke-width="2.25" stroke-linecap="round" stroke-linejoin="round"/>
</svg>
