<svg width="23" height="23" viewBox="0 0 23 23" fill="none" xmlns="http://www.w3.org/2000/svg">
<rect width="23" height="23" fill="#EBE8E8"/>
<path d="M-1096 -2360C-1096 -2361.1 -1095.1 -2362 -1094 -2362H2783C2784.1 -2362 2785 -2361.1 2785 -2360V4161C2785 4162.1 2784.1 4163 2783 4163H-1094C-1095.1 4163 -1096 4162.1 -1096 4161V-2360Z" fill="#D9D9D9"/>
<path d="M-1094 -2358H2783V-2366H-1094V-2358ZM2781 -2360V4161H2789V-2360H2781ZM2783 4159H-1094V4167H2783V4159ZM-1092 4161V-2360H-1100V4161H-1092ZM-1094 4159C-1092.9 4159 -1092 4159.9 -1092 4161H-1100C-1100 4164.31 -1097.31 4167 -1094 4167V4159ZM2781 4161C2781 4159.9 2781.9 4159 2783 4159V4167C2786.31 4167 2789 4164.31 2789 4161H2781ZM2783 -2358C2781.9 -2358 2781 -2358.9 2781 -2360H2789C2789 -2363.31 2786.31 -2366 2783 -2366V-2358ZM-1094 -2366C-1097.31 -2366 -1100 -2363.31 -1100 -2360H-1092C-1092 -2358.9 -1092.9 -2358 -1094 -2358V-2366Z" fill="#70787C"/>
<g clip-path="url(#clip0_2539_4431)">
<rect width="375" height="812" transform="translate(-28 -296)" fill="white"/>
<rect width="23" height="23" fill="white"/>
<mask id="path-4-inside-1_2539_4431" fill="white">
<path d="M16.2297 2.30029C14.086 2.30029 12.2543 3.82825 11.248 4.88166C10.2416 3.82825 8.41398 2.30029 6.27136 2.30029C2.5783 2.30029 0 4.8745 0 8.55939C0 12.6196 3.20216 15.2439 6.3 17.7824C7.7625 18.982 9.27614 20.2216 10.4369 21.5961C10.6323 21.8262 10.9186 21.9592 11.2193 21.9592H11.2786C11.5803 21.9592 11.8657 21.8252 12.06 21.5961C13.2228 20.2216 14.7355 18.981 16.199 17.7824C19.2958 15.245 22.5 12.6206 22.5 8.55939C22.5 4.8745 19.9217 2.30029 16.2297 2.30029Z"/>
</mask>
<path d="M16.2297 2.30029C14.086 2.30029 12.2543 3.82825 11.248 4.88166C10.2416 3.82825 8.41398 2.30029 6.27136 2.30029C2.5783 2.30029 0 4.8745 0 8.55939C0 12.6196 3.20216 15.2439 6.3 17.7824C7.7625 18.982 9.27614 20.2216 10.4369 21.5961C10.6323 21.8262 10.9186 21.9592 11.2193 21.9592H11.2786C11.5803 21.9592 11.8657 21.8252 12.06 21.5961C13.2228 20.2216 14.7355 18.981 16.199 17.7824C19.2958 15.245 22.5 12.6206 22.5 8.55939C22.5 4.8745 19.9217 2.30029 16.2297 2.30029Z" fill="#8700FF" stroke="#8700FF" stroke-width="4" mask="url(#path-4-inside-1_2539_4431)"/>
</g>
<defs>
<clipPath id="clip0_2539_4431">
<rect width="375" height="812" fill="white" transform="translate(-28 -296)"/>
</clipPath>
</defs>
</svg>
