<svg width="23" height="20" viewBox="0 0 23 20" fill="none" xmlns="http://www.w3.org/2000/svg">
<path d="M16.2295 1C17.837 1 19.1423 1.55605 20.043 2.45508C20.9434 3.354 21.4999 4.65601 21.5 6.25879C21.5 7.99804 20.8221 9.45583 19.7305 10.8164C18.6198 12.2007 17.1314 13.4249 15.5654 14.708C14.1175 15.8939 12.5304 17.1927 11.2979 18.6494C11.2913 18.6571 11.2828 18.6592 11.2783 18.6592H11.2197C11.2142 18.6592 11.2056 18.6559 11.1992 18.6484C9.96865 17.1918 8.37974 15.8944 6.93457 14.709H6.93359C5.36693 13.4252 3.87898 12.1999 2.76855 10.8154C1.67733 9.45489 1 7.99764 1 6.25879C1.00007 4.65601 1.55646 3.35398 2.45703 2.45508C3.35778 1.55605 4.66338 1 6.27148 1C7.97247 1.00006 9.54511 2.24739 10.5244 3.27246L11.248 4.0293L11.9707 3.27246C12.9492 2.24821 14.5269 1.00008 16.2295 1Z" stroke="#303030" stroke-width="2"/>
</svg>
