<svg width="23" height="23" viewBox="0 0 23 23" fill="none" xmlns="http://www.w3.org/2000/svg">
<rect width="23" height="23" fill="#EBE8E8"/>
<path d="M-1096 -2521C-1096 -2522.1 -1095.1 -2523 -1094 -2523H2783C2784.1 -2523 2785 -2522.1 2785 -2521V4000C2785 4001.1 2784.1 4002 2783 4002H-1094C-1095.1 4002 -1096 4001.1 -1096 4000V-2521Z" fill="#D9D9D9"/>
<path d="M-1094 -2519H2783V-2527H-1094V-2519ZM2781 -2521V4000H2789V-2521H2781ZM2783 3998H-1094V4006H2783V3998ZM-1092 4000V-2521H-1100V4000H-1092ZM-1094 3998C-1092.9 3998 -1092 3998.9 -1092 4000H-1100C-1100 4003.31 -1097.31 4006 -1094 4006V3998ZM2781 4000C2781 3998.9 2781.9 3998 2783 3998V4006C2786.31 4006 2789 4003.31 2789 4000H2781ZM2783 -2519C2781.9 -2519 2781 -2519.9 2781 -2521H2789C2789 -2524.31 2786.31 -2527 2783 -2527V-2519ZM-1094 -2527C-1097.31 -2527 -1100 -2524.31 -1100 -2521H-1092C-1092 -2519.9 -1092.9 -2519 -1094 -2519V-2527Z" fill="#70787C"/>
<g clip-path="url(#clip0_2539_4431)">
<rect width="375" height="812" transform="translate(-28 -457)" fill="white"/>
<mask id="path-4-inside-1_2539_4431" fill="white">
<path d="M16.2297 2.30029C14.086 2.30029 12.2543 3.82825 11.248 4.88166C10.2416 3.82825 8.41398 2.30029 6.27136 2.30029C2.5783 2.30029 0 4.8745 0 8.55939C0 12.6196 3.20216 15.2439 6.3 17.7824C7.7625 18.982 9.27614 20.2216 10.4369 21.5961C10.6323 21.8262 10.9186 21.9592 11.2193 21.9592H11.2786C11.5803 21.9592 11.8657 21.8252 12.06 21.5961C13.2228 20.2216 14.7355 18.981 16.199 17.7824C19.2958 15.245 22.5 12.6206 22.5 8.55939C22.5 4.8745 19.9217 2.30029 16.2297 2.30029Z"/>
</mask>
<path d="M16.2297 2.30029C14.086 2.30029 12.2543 3.82825 11.248 4.88166C10.2416 3.82825 8.41398 2.30029 6.27136 2.30029C2.5783 2.30029 0 4.8745 0 8.55939C0 12.6196 3.20216 15.2439 6.3 17.7824C7.7625 18.982 9.27614 20.2216 10.4369 21.5961C10.6323 21.8262 10.9186 21.9592 11.2193 21.9592H11.2786C11.5803 21.9592 11.8657 21.8252 12.06 21.5961C13.2228 20.2216 14.7355 18.981 16.199 17.7824C19.2958 15.245 22.5 12.6206 22.5 8.55939C22.5 4.8745 19.9217 2.30029 16.2297 2.30029Z" stroke="#8700FF" stroke-width="3" mask="url(#path-4-inside-1_2539_4431)"/>
</g>
<defs>
<clipPath id="clip0_2539_4431">
<rect width="375" height="812" fill="white" transform="translate(-28 -457)"/>
</clipPath>
</defs>
</svg>
