<svg width="26" height="27" viewBox="0 0 26 27" fill="none" xmlns="http://www.w3.org/2000/svg">
<path id="Shape" fill-rule="evenodd" clip-rule="evenodd" d="M12.0808 1.13699C12.5884 0.629305 13.4116 0.629305 13.9192 1.13699L20.4192 7.63699C20.9269 8.14467 20.9269 8.96778 20.4192 9.47546C19.9116 9.98315 19.0884 9.98315 18.5808 9.47546L14.3 5.1947V17.6562C14.3 18.3742 13.718 18.9562 13 18.9562C12.282 18.9562 11.7 18.3742 11.7 17.6562V5.1947L7.41924 9.47546C6.91156 9.98315 6.08844 9.98315 5.58076 9.47546C5.07308 8.96778 5.07308 8.14467 5.58076 7.63699L12.0808 1.13699ZM1.3 16.3562C2.01797 16.3562 2.6 16.9383 2.6 17.6562V19.2162C2.6 20.3298 2.60101 21.0868 2.64882 21.6719C2.69538 22.2418 2.77979 22.5333 2.88338 22.7366C3.13265 23.2258 3.5304 23.6236 4.01963 23.8728C4.22294 23.9764 4.51441 24.0608 5.08435 24.1074C5.66947 24.1552 6.42645 24.1562 7.54 24.1562H18.46C19.5736 24.1562 20.3305 24.1552 20.9156 24.1074C21.4856 24.0608 21.7771 23.9764 21.9804 23.8728C22.4696 23.6236 22.8673 23.2258 23.1166 22.7366C23.2202 22.5333 23.3046 22.2418 23.3512 21.6719C23.399 21.0868 23.4 20.3298 23.4 19.2162V17.6562C23.4 16.9383 23.982 16.3562 24.7 16.3562C25.418 16.3562 26 16.9383 26 17.6562V19.2699C26 20.3164 26 21.1801 25.9425 21.8836C25.8828 22.6143 25.7547 23.286 25.4332 23.917C24.9347 24.8954 24.1392 25.6909 23.1607 26.1895C22.5298 26.5109 21.8581 26.6391 21.1274 26.6988C20.4238 26.7563 19.5602 26.7562 18.5137 26.7562H7.48628C6.43983 26.7562 5.57617 26.7563 4.87263 26.6988C4.1419 26.6391 3.47019 26.5109 2.83925 26.1895C1.86081 25.6909 1.06531 24.8954 0.566767 23.917C0.245289 23.286 0.117156 22.6143 0.0574529 21.8836C-2.96578e-05 21.18 -1.60213e-05 20.3164 5.60679e-07 19.2699L1.18057e-06 17.6562C1.18057e-06 16.9383 0.582031 16.3562 1.3 16.3562Z" fill="black"/>
</svg>
