<svg width="20" height="20" viewBox="0 0 20 20" fill="none" xmlns="http://www.w3.org/2000/svg">
<g id="iconamoon:lock-fill">
<path id="Vector" fill-rule="evenodd" clip-rule="evenodd" d="M8.06251 6.75C8.06251 6.15326 8.31931 5.58097 8.77644 5.15901C9.23356 4.73705 9.85355 4.5 10.5 4.5C11.1465 4.5 11.7665 4.73705 12.2236 5.15901C12.6807 5.58097 12.9375 6.15326 12.9375 6.75V8.25H8.06251V6.75ZM6.4375 8.25V6.75C6.4375 5.75544 6.86552 4.80161 7.62739 4.09835C8.38925 3.39509 9.42257 3 10.5 3C11.5775 3 12.6108 3.39509 13.3726 4.09835C14.1345 4.80161 14.5625 5.75544 14.5625 6.75V8.25H16.1875C16.403 8.25 16.6097 8.32902 16.762 8.46967C16.9144 8.61032 17 8.80109 17 9V15.75C17 16.3467 16.7432 16.919 16.2861 17.341C15.829 17.7629 15.209 18 14.5625 18H6.4375C5.79104 18 5.17105 17.7629 4.71393 17.341C4.25681 16.919 4 16.3467 4 15.75V9C4 8.80109 4.0856 8.61032 4.23798 8.46967C4.39035 8.32902 4.59701 8.25 4.8125 8.25H6.4375Z" fill="black"/>
</g>
</svg>
