<svg width="71" height="44" viewBox="0 0 71 44" fill="none" xmlns="http://www.w3.org/2000/svg">
<g clip-path="url(#clip0_127_650)">
<path d="M47.3336 21.8334C47.3336 28.3688 52.6316 33.6668 59.167 33.6668C65.7024 33.6668 71.0004 28.3688 71.0004 21.8334C71.0004 15.298 65.7024 10 59.167 10C52.6316 10 47.3336 15.298 47.3336 21.8334Z" fill="#8700FF"/>
<path d="M23.6668 21.8334C23.6668 28.3607 28.9648 33.6521 35.5002 33.6521C42.0356 33.6521 47.3336 28.3607 47.3336 21.8334C47.3336 15.3061 42.0356 10.0148 35.5002 10.0148C28.9648 10.0148 23.6668 15.3061 23.6668 21.8334Z" fill="url(#paint0_linear_127_650)"/>
<path d="M-2.42396e-06 21.8334C-2.70927e-06 28.3607 5.29799 33.6521 11.8334 33.6521C18.3688 33.6521 23.6668 28.3607 23.6668 21.8334C23.6668 15.3061 18.3688 10.0148 11.8334 10.0148C5.29799 10.0148 -2.13864e-06 15.3061 -2.42396e-06 21.8334Z" fill="#87DFFF"/>
</g>
<defs>
<linearGradient id="paint0_linear_127_650" x1="23.6668" y1="21.8334" x2="47.3307" y2="21.8334" gradientUnits="userSpaceOnUse">
<stop stop-color="#87DFFF"/>
<stop offset="0.96" stop-color="#8700FF"/>
</linearGradient>
<clipPath id="clip0_127_650">
<rect width="43.6668" height="71.0004" fill="white" transform="translate(71.0004) rotate(90)"/>
</clipPath>
</defs>
</svg>
