<svg width="20" height="20" viewBox="0 0 20 20" fill="none" xmlns="http://www.w3.org/2000/svg">
<g id="solar:menu-dots-bold">
<path id="Vector" d="M4.44444 9.99998C4.44444 10.5893 4.21032 11.1546 3.79357 11.5713C3.37682 11.9881 2.81159 12.2222 2.22222 12.2222C1.63285 12.2222 1.06762 11.9881 0.650874 11.5713C0.234126 11.1546 0 10.5893 0 9.99998C0 9.41061 0.234126 8.84539 0.650874 8.42864C1.06762 8.0119 1.63285 7.77777 2.22222 7.77777C2.81159 7.77777 3.37682 8.0119 3.79357 8.42864C4.21032 8.84539 4.44444 9.41061 4.44444 9.99998ZM12.2222 9.99998C12.2222 10.5893 11.9881 11.1546 11.5713 11.5713C11.1546 11.9881 10.5894 12.2222 10 12.2222C9.41063 12.2222 8.8454 11.9881 8.42865 11.5713C8.0119 11.1546 7.77778 10.5893 7.77778 9.99998C7.77778 9.41061 8.0119 8.84539 8.42865 8.42864C8.8454 8.0119 9.41063 7.77777 10 7.77777C10.5894 7.77777 11.1546 8.0119 11.5713 8.42864C11.9881 8.84539 12.2222 9.41061 12.2222 9.99998ZM20 9.99998C20 10.5893 19.7659 11.1546 19.3491 11.5713C18.9324 11.9881 18.3671 12.2222 17.7778 12.2222C17.1884 12.2222 16.6232 11.9881 16.2064 11.5713C15.7897 11.1546 15.5556 10.5893 15.5556 9.99998C15.5556 9.41061 15.7897 8.84539 16.2064 8.42864C16.6232 8.0119 17.1884 7.77777 17.7778 7.77777C18.3671 7.77777 18.9324 8.0119 19.3491 8.42864C19.7659 8.84539 20 9.41061 20 9.99998Z" fill="black"/>
</g>
</svg>
