<svg width="30" height="30" viewBox="0 0 30 30" fill="none" xmlns="http://www.w3.org/2000/svg">
<g id="Photo">
<g id="Group 5810">
<rect id="Rectangle 933" x="5.31348" y="9.11719" width="19.6064" height="14.7048" fill="#D9D9D9"/>
<rect id="Rectangle 934" x="10.915" y="5.61621" width="8.40274" height="4.9016" rx="2.14737" fill="#D9D9D9"/>
<path id="Vector" d="M17.1343 4.91712C17.5689 4.91709 17.9961 5.03063 18.3733 5.24649C18.7506 5.46235 19.0649 5.77304 19.2852 6.14778L20.1876 7.68554H22.4837C23.4392 7.68554 24.3555 8.06501 25.0312 8.74052C25.7069 9.41602 26.0867 10.3322 26.087 11.2877V21.8203C26.087 22.2935 25.9938 22.762 25.8127 23.1992C25.6316 23.6364 25.3662 24.0336 25.0316 24.3682C24.697 24.7028 24.2998 24.9682 23.8626 25.1493C23.4255 25.3304 22.9569 25.4236 22.4837 25.4236H7.51635C6.5607 25.4236 5.6442 25.0439 4.96846 24.3682C4.29271 23.6924 3.91309 22.7759 3.91309 21.8203V11.2877C3.91309 10.332 4.29271 9.41554 4.96846 8.7398C5.6442 8.06406 6.5607 7.68443 7.51635 7.68443H9.82243L10.7925 6.10565C11.0156 5.74224 11.3281 5.44207 11.7002 5.23381C12.0723 5.02554 12.4915 4.91613 12.9179 4.91602H17.1343V4.91712ZM17.1343 6.58017H12.9179C12.7966 6.58027 12.6767 6.60692 12.5668 6.65825C12.4569 6.70957 12.3595 6.78434 12.2815 6.8773L12.2095 6.97708L10.9977 8.95056C10.9233 9.07176 10.8192 9.17189 10.6952 9.24138C10.5711 9.31087 10.4314 9.3474 10.2892 9.34747H7.51746C7.26257 9.34733 7.01015 9.3974 6.77463 9.49484C6.5391 9.59228 6.32508 9.73518 6.1448 9.91536C5.96451 10.0955 5.8215 10.3095 5.72393 10.5449C5.62635 10.7804 5.57613 11.0328 5.57613 11.2877V21.8203C5.57613 22.8913 6.44535 23.7605 7.51635 23.7605H22.4837C22.9983 23.7605 23.4918 23.5561 23.8557 23.1922C24.2195 22.8284 24.424 22.3349 24.424 21.8203V11.2877C24.424 10.7731 24.2195 10.2796 23.8557 9.91575C23.4918 9.55189 22.9983 9.34747 22.4837 9.34747H19.712C19.5671 9.34755 19.4246 9.30973 19.2988 9.23778C19.1729 9.16582 19.0681 9.06222 18.9947 8.93725L17.8505 6.98928C17.7772 6.86447 17.6725 6.76098 17.5469 6.68903C17.4213 6.61708 17.279 6.57918 17.1343 6.57906V6.58017ZM15 11.0105C16.3232 11.0105 17.5922 11.5362 18.5279 12.4718C19.4635 13.4074 19.9892 14.6764 19.9892 15.9996C19.9892 17.3228 19.4635 18.5918 18.5279 19.5275C17.5922 20.4631 16.3232 20.9888 15 20.9888C13.6768 20.9888 12.4078 20.4631 11.4722 19.5275C10.5366 18.5918 10.0109 17.3228 10.0109 15.9996C10.0109 14.6764 10.5366 13.4074 11.4722 12.4718C12.4078 11.5362 13.6768 11.0105 15 11.0105ZM15 12.6736C14.5633 12.6736 14.1307 12.7596 13.7272 12.9267C13.3237 13.0939 12.957 13.3389 12.6481 13.6477C12.3393 13.9566 12.0943 14.3233 11.9271 14.7268C11.76 15.1303 11.674 15.5629 11.674 15.9996C11.674 16.4364 11.76 16.8689 11.9271 17.2725C12.0943 17.676 12.3393 18.0427 12.6481 18.3515C12.957 18.6604 13.3237 18.9054 13.7272 19.0725C14.1307 19.2397 14.5633 19.3257 15 19.3257C15.8822 19.3257 16.7282 18.9753 17.3519 18.3515C17.9757 17.7278 18.3261 16.8818 18.3261 15.9996C18.3261 15.1175 17.9757 14.2715 17.3519 13.6477C16.7282 13.024 15.8822 12.6736 15 12.6736Z" fill="#A0A0A0"/>
</g>
</g>
</svg>
