<svg width="46" height="46" viewBox="0 0 46 46" fill="none" xmlns="http://www.w3.org/2000/svg">
<g filter="url(#filter0_f_591_15251)">
<path d="M10.4643 37.0564C9.6813 37.2169 9.00289 36.4977 9.20882 35.7254L10.0174 32.6927L13.539 36.426L10.4643 37.0564Z" fill="black" fill-opacity="0.7"/>
<rect x="31.4452" y="8.01334" width="8.41739" height="4.93906" transform="rotate(43.6119 31.4452 8.01334)" fill="black" fill-opacity="0.7"/>
<path d="M30.8375 7.296C30.9311 7.20217 31.0423 7.12773 31.1647 7.07694C31.2871 7.02615 31.4184 7 31.5509 7C31.6834 7 31.8146 7.02615 31.937 7.07694C32.0594 7.12773 32.1706 7.20217 32.2642 7.296L38.3095 13.3413C38.4033 13.4349 38.4777 13.546 38.5285 13.6684C38.5793 13.7908 38.6055 13.9221 38.6055 14.0546C38.6055 14.1871 38.5793 14.3184 38.5285 14.4408C38.4777 14.5632 38.4033 14.6743 38.3095 14.7679L28.2341 24.8434L18.1586 34.9188C18.062 35.0148 17.9468 35.0902 17.8201 35.1405L8.38196 38.5333C8.19886 38.6066 7.99828 38.6245 7.80508 38.5849C7.61188 38.5453 7.43456 38.4498 7.2951 38.3104C7.15565 38.1709 7.06018 37.9936 7.02055 37.8004C6.98092 37.6072 6.99886 37.4066 7.07215 37.2235L10.4651 27.7854C10.5153 27.6587 10.5907 27.5436 10.6867 27.4469L30.8375 7.296ZM28.9454 12.0395L33.566 16.6601L36.1715 14.0546L31.5509 9.43401L28.9454 12.0395ZM32.1413 18.0848L27.5207 13.4642L14.4227 26.5622V27.1527H15.4302C15.6974 27.1527 15.9537 27.2588 16.1427 27.4478C16.3316 27.6367 16.4378 27.893 16.4378 28.1602V29.1677H17.4453C17.7125 29.1677 17.9688 29.2739 18.1577 29.4628C18.3467 29.6518 18.4528 29.9081 18.4528 30.1753V31.1828H19.0433L32.1413 18.0848ZM12.4721 28.5128L12.2585 28.7264L9.9613 35.3705C9.90264 35.5402 10.0653 35.7028 10.2349 35.6442L16.8791 33.347L17.0927 33.1334C16.9005 33.0616 16.7348 32.9328 16.6177 32.7643C16.5007 32.5958 16.4379 32.3955 16.4378 32.1904V31.1828H15.4302C15.163 31.1828 14.9067 31.0767 14.7178 30.8877C14.5288 30.6988 14.4227 30.4425 14.4227 30.1753V29.1677H13.4151C13.21 29.1676 13.0097 29.1048 12.8412 28.9878C12.6727 28.8707 12.5439 28.705 12.4721 28.5128Z" fill="black" fill-opacity="0.7"/>
</g>
<defs>
<filter id="filter0_f_591_15251" x="4" y="4" width="37.6055" height="37.6055" filterUnits="userSpaceOnUse" color-interpolation-filters="sRGB">
<feFlood flood-opacity="0" result="BackgroundImageFix"/>
<feBlend mode="normal" in="SourceGraphic" in2="BackgroundImageFix" result="shape"/>
<feGaussianBlur stdDeviation="1.5" result="effect1_foregroundBlur_591_15251"/>
</filter>
</defs>
</svg>
