<svg width="47" height="46" viewBox="0 0 47 46" fill="none" xmlns="http://www.w3.org/2000/svg">
<path d="M10.9642 37.0566C10.1812 37.2171 9.50277 36.4979 9.70869 35.7256L10.5173 32.6929L14.0389 36.4262L10.9642 37.0566Z" fill="black"/>
<rect x="31.9453" y="8.01318" width="8.41739" height="4.93906" transform="rotate(43.6119 31.9453 8.01318)" fill="black"/>
<path d="M31.3375 7.296C31.4311 7.20217 31.5423 7.12773 31.6647 7.07694C31.7871 7.02615 31.9184 7 32.0509 7C32.1834 7 32.3146 7.02615 32.437 7.07694C32.5594 7.12773 32.6706 7.20217 32.7642 7.296L38.8095 13.3413C38.9033 13.4349 38.9777 13.546 39.0285 13.6684C39.0793 13.7908 39.1055 13.9221 39.1055 14.0546C39.1055 14.1871 39.0793 14.3184 39.0285 14.4408C38.9777 14.5632 38.9033 14.6743 38.8095 14.7679L28.7341 24.8434L18.6587 34.9188C18.562 35.0148 18.4468 35.0902 18.3201 35.1405L8.88196 38.5333C8.69886 38.6066 8.49828 38.6245 8.30508 38.5849C8.11189 38.5453 7.93457 38.4498 7.79511 38.3104C7.65565 38.1709 7.56019 37.9936 7.52056 37.8004C7.48093 37.6072 7.49887 37.4066 7.57216 37.2235L10.9651 27.7854C11.0153 27.6587 11.0907 27.5436 11.1867 27.4469L31.3375 7.296ZM29.4454 12.0395L34.066 16.6601L36.6715 14.0546L32.0509 9.43401L29.4454 12.0395ZM32.6413 18.0848L28.0207 13.4642L14.9227 26.5622V27.1527H15.9302C16.1974 27.1527 16.4537 27.2588 16.6427 27.4478C16.8316 27.6367 16.9378 27.893 16.9378 28.1602V29.1677H17.9453C18.2125 29.1677 18.4688 29.2739 18.6578 29.4628C18.8467 29.6518 18.9529 29.9081 18.9529 30.1753V31.1828H19.5433L32.6413 18.0848ZM12.9721 28.5128L12.7585 28.7264L10.4613 35.3705C10.4027 35.5402 10.5653 35.7028 10.7349 35.6442L17.3791 33.347L17.5927 33.1334C17.4005 33.0616 17.2348 32.9328 17.1177 32.7643C17.0007 32.5958 16.9379 32.3955 16.9378 32.1904V31.1828H15.9302C15.663 31.1828 15.4067 31.0767 15.2178 30.8877C15.0288 30.6988 14.9227 30.4425 14.9227 30.1753V29.1677H13.9152C13.71 29.1676 13.5097 29.1048 13.3412 28.9878C13.1727 28.8707 13.0439 28.705 12.9721 28.5128Z" fill="black"/>
</svg>
