<svg width="47" height="46" viewBox="0 0 47 46" fill="none" xmlns="http://www.w3.org/2000/svg">
<rect x="5.5" y="5" width="35.2841" height="35.2841" rx="17.642" fill="black"/>
<path d="M30.3086 26.7143C30.0173 26.5648 29.68 26.5374 29.369 26.6378C29.0581 26.7382 28.7981 26.9585 28.6449 27.2514C28.5888 27.3622 27.2107 29.9254 23.1457 29.9254C19.1005 29.9254 17.7141 27.3857 17.6448 27.2531C17.4964 26.9551 17.2377 26.7292 16.9255 26.6251C16.6134 26.5211 16.2734 26.5474 15.9803 26.6984C15.6873 26.8493 15.4652 27.1124 15.3629 27.4299C15.2606 27.7473 15.2865 28.0931 15.4348 28.3912C15.5174 28.5573 17.4946 32.4432 23.1457 32.4432C28.7984 32.4432 30.7724 28.5557 30.8532 28.3895C30.9986 28.0938 31.023 27.7515 30.9209 27.4376C30.8189 27.1236 30.5987 26.8636 30.3086 26.7143Z" fill="white"/>
<circle cx="19.0423" cy="17.5264" r="1.98052" fill="white"/>
<circle cx="27.4044" cy="17.5264" r="1.98052" fill="white"/>
</svg>
