<svg width="46" height="46" viewBox="0 0 46 46" fill="none" xmlns="http://www.w3.org/2000/svg">
<g filter="url(#filter0_f_591_15249)">
<rect x="5" y="5.00024" width="35.2841" height="35.2841" rx="17.642" fill="black" fill-opacity="0.4"/>
<g filter="url(#filter1_f_591_15249)">
<path d="M29.8085 26.7144C29.5172 26.565 29.1799 26.5375 28.8689 26.6379C28.558 26.7383 28.298 26.9586 28.1448 27.2516C28.0887 27.3623 26.7106 29.9255 22.6456 29.9255C18.6003 29.9255 17.214 27.3858 17.1447 27.2532C16.9963 26.9552 16.7375 26.7293 16.4254 26.6253C16.1132 26.5212 15.7733 26.5476 15.4802 26.6985C15.1871 26.8494 14.965 27.1125 14.8627 27.43C14.7604 27.7475 14.7863 28.0932 14.9347 28.3913C15.0172 28.5575 16.9945 32.4433 22.6456 32.4433C28.2983 32.4433 30.2722 28.5558 30.3531 28.3896C30.4985 28.0939 30.5229 27.7516 30.4208 27.4377C30.3187 27.1237 30.0986 26.8637 29.8085 26.7144Z" fill="white" fill-opacity="0.7"/>
</g>
<g filter="url(#filter2_f_591_15249)">
<circle cx="18.5422" cy="17.5264" r="1.98052" fill="white" fill-opacity="0.7"/>
<circle cx="26.9044" cy="17.5264" r="1.98052" fill="white" fill-opacity="0.7"/>
</g>
</g>
<defs>
<filter id="filter0_f_591_15249" x="2" y="2" width="41.2841" height="41.2844" filterUnits="userSpaceOnUse" color-interpolation-filters="sRGB">
<feFlood flood-opacity="0" result="BackgroundImageFix"/>
<feBlend mode="normal" in="SourceGraphic" in2="BackgroundImageFix" result="shape"/>
<feGaussianBlur stdDeviation="1.5" result="effect1_foregroundBlur_591_15249"/>
</filter>
<filter id="filter1_f_591_15249" x="13.8011" y="25.5626" width="17.6818" height="7.88068" filterUnits="userSpaceOnUse" color-interpolation-filters="sRGB">
<feFlood flood-opacity="0" result="BackgroundImageFix"/>
<feBlend mode="normal" in="SourceGraphic" in2="BackgroundImageFix" result="shape"/>
<feGaussianBlur stdDeviation="0.5" result="effect1_foregroundBlur_591_15249"/>
</filter>
<filter id="filter2_f_591_15249" x="15.5616" y="14.5459" width="14.3232" height="5.96103" filterUnits="userSpaceOnUse" color-interpolation-filters="sRGB">
<feFlood flood-opacity="0" result="BackgroundImageFix"/>
<feBlend mode="normal" in="SourceGraphic" in2="BackgroundImageFix" result="shape"/>
<feGaussianBlur stdDeviation="0.5" result="effect1_foregroundBlur_591_15249"/>
</filter>
</defs>
</svg>
