<svg width="47" height="46" viewBox="0 0 47 46" fill="none" xmlns="http://www.w3.org/2000/svg">
<rect x="8.64722" y="13.9795" width="30.0632" height="22.5474" fill="white"/>
<rect x="17.2366" y="8.61133" width="12.8842" height="7.51579" rx="2.14737" fill="white"/>
<path d="M26.7725 7.5393C27.439 7.53924 28.0939 7.71333 28.6724 8.04432C29.2509 8.37531 29.7328 8.8517 30.0705 9.4263L31.4543 11.7842H34.975C36.44 11.7842 37.8451 12.3661 38.8812 13.4018C39.9173 14.4376 40.4995 15.8425 40.5 17.3075V33.4575C40.5 34.1831 40.3571 34.9015 40.0794 35.5718C39.8018 36.2421 39.3948 36.8512 38.8818 37.3643C38.3687 37.8773 37.7596 38.2843 37.0893 38.5619C36.419 38.8396 35.7006 38.9825 34.975 38.9825H12.025C10.5597 38.9825 9.15437 38.4004 8.11823 37.3643C7.0821 36.3281 6.5 34.9228 6.5 33.4575V17.3075C6.5 15.8422 7.0821 14.4369 8.11823 13.4007C9.15437 12.3646 10.5597 11.7825 12.025 11.7825H15.561L17.0485 9.3617C17.3905 8.80447 17.8697 8.34422 18.4402 8.02488C19.0107 7.70554 19.6536 7.53777 20.3074 7.5376H26.7725V7.5393ZM26.7725 10.0893H20.3074C20.1214 10.0894 19.9376 10.1303 19.769 10.209C19.6005 10.2877 19.4512 10.4024 19.3316 10.5449L19.2211 10.6979L17.363 13.7239C17.2491 13.9097 17.0894 14.0633 16.8992 14.1698C16.709 14.2764 16.4947 14.3324 16.2767 14.3325H12.0267C11.6359 14.3323 11.2488 14.4091 10.8877 14.5585C10.5266 14.7079 10.1984 14.927 9.92196 15.2033C9.64552 15.4795 9.42623 15.8076 9.27662 16.1686C9.12701 16.5297 9.05 16.9167 9.05 17.3075V33.4575C9.05 35.0997 10.3828 36.4325 12.025 36.4325H34.975C35.764 36.4325 36.5207 36.1191 37.0786 35.5611C37.6366 35.0032 37.95 34.2465 37.95 33.4575V17.3075C37.95 16.5185 37.6366 15.7618 37.0786 15.2039C36.5207 14.6459 35.764 14.3325 34.975 14.3325H30.725C30.5027 14.3326 30.2843 14.2746 30.0914 14.1643C29.8985 14.054 29.7377 13.8951 29.6251 13.7035L27.8707 10.7166C27.7582 10.5252 27.5978 10.3665 27.4052 10.2562C27.2125 10.1459 26.9945 10.0878 26.7725 10.0876V10.0893ZM23.5 16.8825C25.5289 16.8825 27.4747 17.6885 28.9094 19.1231C30.344 20.5578 31.15 22.5036 31.15 24.5325C31.15 26.5614 30.344 28.5072 28.9094 29.9419C27.4747 31.3765 25.5289 32.1825 23.5 32.1825C21.4711 32.1825 19.5253 31.3765 18.0906 29.9419C16.656 28.5072 15.85 26.5614 15.85 24.5325C15.85 22.5036 16.656 20.5578 18.0906 19.1231C19.5253 17.6885 21.4711 16.8825 23.5 16.8825ZM23.5 19.4325C22.8303 19.4325 22.1671 19.5644 21.5483 19.8207C20.9296 20.077 20.3673 20.4527 19.8938 20.9263C19.4202 21.3998 19.0445 21.9621 18.7882 22.5808C18.5319 23.1996 18.4 23.8628 18.4 24.5325C18.4 25.2022 18.5319 25.8654 18.7882 26.4842C19.0445 27.1029 19.4202 27.6652 19.8938 28.1387C20.3673 28.6123 20.9296 28.988 21.5483 29.2443C22.1671 29.5006 22.8303 29.6325 23.5 29.6325C24.8526 29.6325 26.1498 29.0952 27.1062 28.1387C28.0627 27.1823 28.6 25.8851 28.6 24.5325C28.6 23.1799 28.0627 21.8827 27.1062 20.9263C26.1498 19.9698 24.8526 19.4325 23.5 19.4325Z" fill="black"/>
</svg>
