<svg width="57" height="56" viewBox="0 0 57 56" xmlns="http://www.w3.org/2000/svg" fill='none'>
<g id="formkit:add">
<path id="Vector" d="M28.5 52.5C14.99 52.5 4 41.51 4 28C4 14.49 14.99 3.5 28.5 3.5C42.01 3.5 53 14.49 53 28C53 41.51 42.01 52.5 28.5 52.5ZM28.5 7C16.915 7 7.5 16.415 7.5 28C7.5 39.585 16.915 49 28.5 49C40.085 49 49.5 39.585 49.5 28C49.5 16.415 40.085 7 28.5 7Z" fill="current"/>
<path id="Vector_2" d="M28.5 40.25C27.52 40.25 26.75 39.48 26.75 38.5V17.5C26.75 16.52 27.52 15.75 28.5 15.75C29.48 15.75 30.25 16.52 30.25 17.5V38.5C30.25 39.48 29.48 40.25 28.5 40.25Z" fill="current"/>
<path id="Vector_3" d="M39 29.75H18C17.02 29.75 16.25 28.98 16.25 28C16.25 27.02 17.02 26.25 18 26.25H39C39.98 26.25 40.75 27.02 40.75 28C40.75 28.98 39.98 29.75 39 29.75Z" fill="current"/>
</g>
</svg>
