<svg width="46" height="46" viewBox="0 0 46 46" fill="none" xmlns="http://www.w3.org/2000/svg">
<rect x="8.14728" y="13.9795" width="30.0632" height="22.5474" fill="white"/>
<rect x="16.7367" y="8.61111" width="12.8842" height="7.51579" rx="2.14737" fill="white"/>
<g filter="url(#filter0_f_591_15250)">
<path d="M26.2725 7.53927C26.939 7.53921 27.5939 7.7133 28.1724 8.04429C28.7509 8.37528 29.2328 8.85167 29.5705 9.42627L30.9543 11.7842H34.475C35.94 11.7842 37.3451 12.366 38.3812 13.4018C39.4173 14.4376 39.9995 15.8424 40 17.3075V33.4575C40 34.183 39.8571 34.9015 39.5794 35.5718C39.3018 36.2421 38.8948 36.8512 38.3818 37.3642C37.8687 37.8773 37.2596 38.2842 36.5893 38.5619C35.919 38.8396 35.2006 38.9825 34.475 38.9825H11.525C10.0597 38.9825 8.65437 38.4004 7.61823 37.3642C6.5821 36.3281 6 34.9228 6 33.4575V17.3075C6 15.8421 6.5821 14.4368 7.61823 13.4007C8.65437 12.3646 10.0597 11.7825 11.525 11.7825H15.061L16.5485 9.36167C16.8905 8.80444 17.3697 8.34419 17.9402 8.02485C18.5107 7.70551 19.1536 7.53774 19.8074 7.53757H26.2725V7.53927ZM26.2725 10.0893H19.8074C19.6214 10.0894 19.4376 10.1303 19.269 10.209C19.1005 10.2877 18.9512 10.4023 18.8316 10.5449L18.7211 10.6979L16.863 13.7239C16.7491 13.9097 16.5894 14.0632 16.3992 14.1698C16.209 14.2763 15.9947 14.3323 15.7767 14.3325H11.5267C11.1359 14.3322 10.7488 14.409 10.3877 14.5584C10.0266 14.7078 9.69839 14.9269 9.42196 15.2032C9.14552 15.4795 8.92624 15.8075 8.77662 16.1686C8.62701 16.5296 8.55 16.9166 8.55 17.3075V33.4575C8.55 35.0997 9.8828 36.4325 11.525 36.4325H34.475C35.264 36.4325 36.0207 36.119 36.5786 35.5611C37.1366 35.0032 37.45 34.2465 37.45 33.4575V17.3075C37.45 16.5184 37.1366 15.7617 36.5786 15.2038C36.0207 14.6459 35.264 14.3325 34.475 14.3325H30.225C30.0027 14.3326 29.7843 14.2746 29.5914 14.1643C29.3985 14.0539 29.2377 13.8951 29.1251 13.7035L27.3707 10.7166C27.2582 10.5252 27.0978 10.3665 26.9052 10.2562C26.7125 10.1459 26.4945 10.0877 26.2725 10.0876V10.0893ZM23 16.8825C25.0289 16.8825 26.9747 17.6884 28.4094 19.1231C29.844 20.5578 30.65 22.5036 30.65 24.5325C30.65 26.5614 29.844 28.5072 28.4094 29.9418C26.9747 31.3765 25.0289 32.1825 23 32.1825C20.9711 32.1825 19.0253 31.3765 17.5906 29.9418C16.156 28.5072 15.35 26.5614 15.35 24.5325C15.35 22.5036 16.156 20.5578 17.5906 19.1231C19.0253 17.6884 20.9711 16.8825 23 16.8825ZM23 19.4325C22.3303 19.4325 21.6671 19.5644 21.0483 19.8207C20.4296 20.077 19.8673 20.4526 19.3938 20.9262C18.9202 21.3998 18.5445 21.962 18.2882 22.5808C18.0319 23.1995 17.9 23.8627 17.9 24.5325C17.9 25.2022 18.0319 25.8654 18.2882 26.4842C18.5445 27.1029 18.9202 27.6651 19.3938 28.1387C19.8673 28.6123 20.4296 28.988 21.0483 29.2443C21.6671 29.5006 22.3303 29.6325 23 29.6325C24.3526 29.6325 25.6498 29.0951 26.6062 28.1387C27.5627 27.1823 28.1 25.8851 28.1 24.5325C28.1 23.1799 27.5627 21.8827 26.6062 20.9262C25.6498 19.9698 24.3526 19.4325 23 19.4325Z" fill="black" fill-opacity="0.6"/>
</g>
<defs>
<filter id="filter0_f_591_15250" x="3" y="4.53757" width="40" height="37.4449" filterUnits="userSpaceOnUse" color-interpolation-filters="sRGB">
<feFlood flood-opacity="0" result="BackgroundImageFix"/>
<feBlend mode="normal" in="SourceGraphic" in2="BackgroundImageFix" result="shape"/>
<feGaussianBlur stdDeviation="1.5" result="effect1_foregroundBlur_591_15250"/>
</filter>
</defs>
</svg>
