<svg width="43" height="42" viewBox="0 0 43 42" fill="none" xmlns="http://www.w3.org/2000/svg">
<g id="formkit:add">
<path id="Vector" d="M21.5 39.375C11.3675 39.375 3.125 31.1325 3.125 21C3.125 10.8675 11.3675 2.625 21.5 2.625C31.6325 2.625 39.875 10.8675 39.875 21C39.875 31.1325 31.6325 39.375 21.5 39.375ZM21.5 5.25C12.8112 5.25 5.75 12.3112 5.75 21C5.75 29.6887 12.8112 36.75 21.5 36.75C30.1887 36.75 37.25 29.6887 37.25 21C37.25 12.3112 30.1887 5.25 21.5 5.25Z" fill="#A0A0A0"/>
<path id="Vector_2" d="M21.5 30.1875C20.765 30.1875 20.1875 29.61 20.1875 28.875V13.125C20.1875 12.39 20.765 11.8125 21.5 11.8125C22.235 11.8125 22.8125 12.39 22.8125 13.125V28.875C22.8125 29.61 22.235 30.1875 21.5 30.1875Z" fill="#A0A0A0"/>
<path id="Vector_3" d="M29.375 22.3125H13.625C12.89 22.3125 12.3125 21.735 12.3125 21C12.3125 20.265 12.89 19.6875 13.625 19.6875H29.375C30.11 19.6875 30.6875 20.265 30.6875 21C30.6875 21.735 30.11 22.3125 29.375 22.3125Z" fill="#A0A0A0"/>
</g>
</svg>
