<svg width="32" height="32" viewBox="0 0 32 32" fill="none" xmlns="http://www.w3.org/2000/svg">
<g clip-path="url(#clip0_5105_193)">
<path d="M16 31.4849C24.5604 31.4849 31.5 24.5453 31.5 15.9849C31.5 7.42445 24.5604 0.484863 16 0.484863C7.43959 0.484863 0.5 7.42445 0.5 15.9849C0.5 24.5453 7.43959 31.4849 16 31.4849Z" fill="#8700FF" stroke="#8700FF"/>
<mask id="mask0_5105_193" style="mask-type:alpha" maskUnits="userSpaceOnUse" x="3" y="6" width="26" height="30">
<path d="M16 36C23.1797 36 29 29.2843 29 21C29 12.7157 23.1797 6 16 6C8.8203 6 3 12.7157 3 21C3 29.2843 8.8203 36 16 36Z" fill="white"/>
</mask>
<g mask="url(#mask0_5105_193)">
<path d="M16 20.1469C18.7614 20.1469 21 17.9757 21 15.2975C21 12.6193 18.7614 10.4482 16 10.4482C13.2386 10.4482 11 12.6193 11 15.2975C11 17.9757 13.2386 20.1469 16 20.1469Z" fill="white"/>
<path d="M21.4616 20.3673H10.8045C9.00405 20.3673 7.54449 21.741 7.54449 23.4355V33.1673H24.7216V23.4355C24.7216 21.741 23.262 20.3673 21.4616 20.3673Z" fill="white"/>
</g>
</g>
<defs>
<clipPath id="clip0_5105_193">
<rect width="32" height="32" fill="white"/>
</clipPath>
</defs>
</svg>
