<svg width="29" height="29" viewBox="0 0 29 29" fill="none" xmlns="http://www.w3.org/2000/svg">
<circle cx="14.4998" cy="9.3075" r="4.15385" fill="black"/>
<path d="M14.5 1C7.04414 1 0.999985 7.04416 0.999985 14.5C0.999985 18.5116 2.74974 22.1145 5.52768 24.5872C7.91274 26.7102 11.0557 28 14.5 28C17.9442 28 21.0872 26.7102 23.4723 24.5872C26.2502 22.1145 28 18.5116 28 14.5C28 7.04416 21.9558 1 14.5 1Z" stroke="black" stroke-width="2" stroke-linecap="round" stroke-linejoin="round"/>
<path d="M4.35487 21.1463C2.76308 23.0554 9.42769 28.0001 14.4996 28.0001C19.5716 28.0001 26.2362 23.0554 24.6444 21.1463C22.3311 18.3717 18.648 16.577 14.4996 16.577C10.3513 16.577 6.66819 18.3717 4.35487 21.1463Z" fill="black"/>
</svg>
