<svg width="36" height="36" viewBox="0 0 36 36" fill="none" xmlns="http://www.w3.org/2000/svg">
<circle cx="17.4998" cy="12.3075" r="4.15385" fill="black"/>
<path d="M17.5 4C10.0441 4 3.99998 10.0442 3.99998 17.5C3.99998 21.5116 5.74974 25.1145 8.52768 27.5872C10.9127 29.7102 14.0557 31 17.5 31C20.9442 31 24.0872 29.7102 26.4723 27.5872C29.2502 25.1145 31 21.5116 31 17.5C31 10.0442 24.9558 4 17.5 4Z" stroke="black" stroke-width="2" stroke-linecap="round" stroke-linejoin="round"/>
<path d="M7.35487 24.1463C5.76308 26.0554 12.4277 31.0001 17.4996 31.0001C22.5716 31.0001 29.2362 26.0554 27.6444 24.1463C25.3311 21.3717 21.648 19.577 17.4996 19.577C13.3513 19.577 9.66819 21.3717 7.35487 24.1463Z" fill="black"/>
</svg>
