<svg width="44" height="44" viewBox="0 0 44 44" fill="none" xmlns="http://www.w3.org/2000/svg">
<path d="M15.5293 16.7059H14.3529C13.7288 16.7059 13.1304 16.9538 12.6891 17.3951C12.2479 17.8363 12 18.4348 12 19.0589V29.647C12 30.2711 12.2479 30.8695 12.6891 31.3108C13.1304 31.7521 13.7288 32 14.3529 32H24.941C25.5651 32 26.1636 31.7521 26.6048 31.3108C27.0461 30.8695 27.294 30.2711 27.294 29.647V28.4706" stroke="black" stroke-width="2.35293" stroke-linecap="round" stroke-linejoin="round"/>
<path d="M26.1175 14.353L29.6469 17.8824M31.2763 16.2177C31.7396 15.7544 31.9999 15.1259 31.9999 14.4707C31.9999 13.8154 31.7396 13.187 31.2763 12.7236C30.813 12.2603 30.1845 12 29.5292 12C28.874 12 28.2455 12.2603 27.7822 12.7236L17.8823 22.5883V26.1177H21.4117L31.2763 16.2177Z" stroke="black" stroke-width="2.35293" stroke-linecap="round" stroke-linejoin="round"/>
</svg>
