<svg width="44" height="44" viewBox="0 0 44 44" fill="none" xmlns="http://www.w3.org/2000/svg">
<g clip-path="url(#clip0_172_182)">
<circle cx="22" cy="22" r="22" fill="#D9D9D9"/>
<path d="M30.5714 23.4286H23.4286V30.5714C23.4286 30.9503 23.2781 31.3137 23.0102 31.5816C22.7422 31.8495 22.3789 32 22 32C21.6211 32 21.2578 31.8495 20.9898 31.5816C20.7219 31.3137 20.5714 30.9503 20.5714 30.5714V23.4286H13.4286C13.0497 23.4286 12.6863 23.2781 12.4184 23.0102C12.1505 22.7422 12 22.3789 12 22C12 21.6211 12.1505 21.2578 12.4184 20.9898C12.6863 20.7219 13.0497 20.5714 13.4286 20.5714H20.5714V13.4286C20.5714 13.0497 20.7219 12.6863 20.9898 12.4184C21.2578 12.1505 21.6211 12 22 12C22.3789 12 22.7422 12.1505 23.0102 12.4184C23.2781 12.6863 23.4286 13.0497 23.4286 13.4286V20.5714H30.5714C30.9503 20.5714 31.3137 20.7219 31.5816 20.9898C31.8495 21.2578 32 21.6211 32 22C32 22.3789 31.8495 22.7422 31.5816 23.0102C31.3137 23.2781 30.9503 23.4286 30.5714 23.4286Z" fill="#303030"/>
</g>
<defs>
<clipPath id="clip0_172_182">
<rect width="44" height="44" fill="white"/>
</clipPath>
</defs>
</svg>
