<svg width="44" height="45" viewBox="0 0 44 45" fill="none" xmlns="http://www.w3.org/2000/svg">
<g id="Plus_44px" clip-path="url(#clip0_3589_8557)">
<circle id="Ellipse 506" cx="22" cy="22.5" r="22" fill="#D9D9D9"/>
<path id="Vector" d="M30.5714 23.9286H23.4286V31.0714C23.4286 31.4503 23.2781 31.8137 23.0102 32.0816C22.7422 32.3495 22.3789 32.5 22 32.5C21.6211 32.5 21.2578 32.3495 20.9898 32.0816C20.7219 31.8137 20.5714 31.4503 20.5714 31.0714V23.9286H13.4286C13.0497 23.9286 12.6863 23.7781 12.4184 23.5102C12.1505 23.2422 12 22.8789 12 22.5C12 22.1211 12.1505 21.7578 12.4184 21.4898C12.6863 21.2219 13.0497 21.0714 13.4286 21.0714H20.5714V13.9286C20.5714 13.5497 20.7219 13.1863 20.9898 12.9184C21.2578 12.6505 21.6211 12.5 22 12.5C22.3789 12.5 22.7422 12.6505 23.0102 12.9184C23.2781 13.1863 23.4286 13.5497 23.4286 13.9286V21.0714H30.5714C30.9503 21.0714 31.3137 21.2219 31.5816 21.4898C31.8495 21.7578 32 22.1211 32 22.5C32 22.8789 31.8495 23.2422 31.5816 23.5102C31.3137 23.7781 30.9503 23.9286 30.5714 23.9286Z" fill="#303030"/>
</g>
<defs>
<clipPath id="clip0_3589_8557">
<rect width="44" height="44" fill="white" transform="translate(0 0.5)"/>
</clipPath>
</defs>
</svg>
