<svg width="20" height="20" viewBox="0 0 20 20" fill="none" xmlns="http://www.w3.org/2000/svg">
<circle cx="10" cy="10" r="10" fill="#8700FF"/>
<path d="M9.9997 4.07304C13.2732 4.07304 15.9268 6.72668 15.9268 10.0002C15.9268 13.2731 13.2726 15.9261 9.9997 15.9261C6.72621 15.9267 4.07257 13.2731 4.07257 10.0002C4.07257 6.72668 6.72621 4.07304 9.9997 4.07304ZM7.9031 11.6494C7.86699 11.6035 7.8222 11.5652 7.77128 11.5366C7.72037 11.508 7.66432 11.4898 7.60635 11.4829C7.48927 11.4689 7.37145 11.5021 7.2788 11.575C7.23293 11.6111 7.19461 11.6559 7.16605 11.7068C7.13748 11.7577 7.11923 11.8138 7.11232 11.8717C7.09837 11.9888 7.13151 12.1066 7.20443 12.1993C7.53698 12.6226 7.96145 12.9648 8.44572 13.1999C8.92998 13.435 9.46138 13.5569 9.9997 13.5563C10.5372 13.5569 11.0679 13.4353 11.5516 13.2009C12.0353 12.9664 12.4594 12.6251 12.792 12.2028C12.8282 12.157 12.855 12.1046 12.8709 12.0484C12.8868 11.9922 12.8915 11.9335 12.8847 11.8755C12.8779 11.8176 12.8598 11.7615 12.8313 11.7105C12.8028 11.6596 12.7646 11.6147 12.7188 11.5785C12.673 11.5424 12.6205 11.5155 12.5644 11.4996C12.5082 11.4837 12.4495 11.479 12.3915 11.4858C12.3335 11.4926 12.2775 11.5108 12.2265 11.5392C12.1756 11.5677 12.1307 11.6059 12.0945 11.6517C11.8451 11.9687 11.527 12.2248 11.1641 12.4008C10.8012 12.5768 10.403 12.6679 9.9997 12.6674C9.17125 12.6674 8.40562 12.2882 7.9031 11.6494ZM8.22191 8.07424C8.12292 8.07144 8.02436 8.08852 7.93208 8.12447C7.83979 8.16042 7.75566 8.21451 7.68464 8.28355C7.61363 8.35258 7.55718 8.43515 7.51863 8.52638C7.48008 8.61761 7.46022 8.71565 7.46022 8.81469C7.46022 8.91372 7.48008 9.01176 7.51863 9.10299C7.55718 9.19422 7.61363 9.27679 7.68464 9.34582C7.75566 9.41486 7.83979 9.46895 7.93208 9.5049C8.02436 9.54085 8.12292 9.55793 8.22191 9.55513C8.41467 9.54968 8.59769 9.46928 8.7321 9.33101C8.86651 9.19274 8.94171 9.00751 8.94171 8.81469C8.94171 8.62186 8.86651 8.43663 8.7321 8.29836C8.59769 8.1601 8.41467 8.07969 8.22191 8.07424ZM11.7775 8.07424C11.6785 8.07144 11.5799 8.08852 11.4876 8.12447C11.3954 8.16042 11.3112 8.21451 11.2402 8.28355C11.1692 8.35258 11.1127 8.43515 11.0742 8.52638C11.0356 8.61761 11.0158 8.71565 11.0158 8.81469C11.0158 8.91372 11.0356 9.01176 11.0742 9.10299C11.1127 9.19422 11.1692 9.27679 11.2402 9.34582C11.3112 9.41486 11.3954 9.46895 11.4876 9.5049C11.5799 9.54085 11.6785 9.55793 11.7775 9.55513C11.9702 9.54968 12.1533 9.46928 12.2877 9.33101C12.4221 9.19274 12.4973 9.00751 12.4973 8.81469C12.4973 8.62186 12.4221 8.43663 12.2877 8.29836C12.1533 8.1601 11.9702 8.07969 11.7775 8.07424Z" fill="white"/>
</svg>
