<svg width="20" height="20" viewBox="0 0 20 20" fill="none" xmlns="http://www.w3.org/2000/svg">
<circle cx="10" cy="10.0001" r="10" fill="#0047FF"/>
<path d="M5.77755 5.33347C5.26676 5.33347 4.7769 5.53637 4.41571 5.89756C4.05453 6.25874 3.85162 6.7486 3.85162 7.25939V12.2964C3.85162 12.8072 4.05453 13.2971 4.41571 13.6583C4.7769 14.0194 5.26676 14.2224 5.77755 14.2224H6.22199V15.852C6.22199 16.4624 6.91888 16.8108 7.40718 16.4446L10.3701 14.2224H13.7775C14.0305 14.2224 14.2809 14.1725 14.5146 14.0758C14.7482 13.979 14.9605 13.8371 15.1394 13.6583C15.3182 13.4794 15.4601 13.2671 15.5569 13.0334C15.6537 12.7998 15.7035 12.5493 15.7035 12.2964V7.25939C15.7035 7.00648 15.6537 6.75604 15.5569 6.52237C15.4601 6.28871 15.3182 6.07639 15.1394 5.89756C14.9605 5.71872 14.7482 5.57685 14.5146 5.48007C14.2809 5.38328 14.0305 5.33347 13.7775 5.33347H5.77755Z" fill="white"/>
<g clip-path="url(#clip0_125_627)">
<path d="M11.84 9.40282H11.5587V8.55907C11.5587 7.57704 10.7595 6.77782 9.77747 6.77782C8.79543 6.77782 7.99622 7.57704 7.99622 8.55907V9.40282H7.71497C7.40442 9.40282 7.15247 9.65477 7.15247 9.96532V12.2153C7.15247 12.5259 7.40442 12.7778 7.71497 12.7778H11.84C12.1505 12.7778 12.4025 12.5259 12.4025 12.2153V9.96532C12.4025 9.65477 12.1505 9.40282 11.84 9.40282ZM10.6212 9.40282H8.93372V8.55907C8.93372 8.09383 9.31223 7.71532 9.77747 7.71532C10.2427 7.71532 10.6212 8.09383 10.6212 8.55907V9.40282Z" fill="#0029FF"/>
</g>
<defs>
<clipPath id="clip0_125_627">
<rect width="5.25" height="6" fill="white" transform="translate(7.15247 6.77782)"/>
</clipPath>
</defs>
</svg>
