<svg width="20" height="20" viewBox="0 0 20 20" fill="none" xmlns="http://www.w3.org/2000/svg">
<circle cx="10" cy="10.0001" r="10" fill="#0047FF"/>
<path d="M5.77767 5.3335C5.26688 5.3335 4.77702 5.53641 4.41584 5.89759C4.05466 6.25877 3.85175 6.74863 3.85175 7.25942V12.2965C3.85175 12.8072 4.05466 13.2971 4.41584 13.6583C4.77702 14.0195 5.26688 14.2224 5.77767 14.2224H6.22212V15.852C6.22212 16.4624 6.919 16.8108 7.4073 16.4446L10.3703 14.2224H13.7777C14.0306 14.2224 14.281 14.1726 14.5147 14.0758C14.7484 13.979 14.9607 13.8371 15.1395 13.6583C15.3183 13.4795 15.4602 13.2671 15.557 13.0335C15.6538 12.7998 15.7036 12.5494 15.7036 12.2965V7.25942C15.7036 7.00651 15.6538 6.75607 15.557 6.5224C15.4602 6.28874 15.3183 6.07643 15.1395 5.89759C14.9607 5.71875 14.7484 5.57689 14.5147 5.4801C14.281 5.38331 14.0306 5.3335 13.7777 5.3335H5.77767Z" fill="white"/>
</svg>
