<svg width="20" height="20" viewBox="0 0 20 20" fill="none" xmlns="http://www.w3.org/2000/svg">
<circle cx="10" cy="10" r="10" fill="#FF00A8"/>
<g clip-path="url(#clip0_125_615)">
<path d="M12.6804 5.33344C11.5338 5.33344 10.5541 6.15067 10.0159 6.71408C9.47762 6.15067 8.50012 5.33344 7.35413 5.33344C5.37889 5.33344 3.99988 6.71026 3.99988 8.68113C3.99988 10.8528 5.71256 12.2564 7.36945 13.6141C8.15167 14.2557 8.96125 14.9187 9.5821 15.6538C9.68658 15.7769 9.83974 15.848 10.0006 15.848H10.0323C10.1937 15.848 10.3463 15.7764 10.4502 15.6538C11.0722 14.9187 11.8812 14.2551 12.6639 13.6141C14.3203 12.2569 16.0341 10.8533 16.0341 8.68113C16.0341 6.71026 14.6551 5.33344 12.6804 5.33344Z" fill="white"/>
</g>
<defs>
<clipPath id="clip0_125_615">
<rect width="14.2222" height="14.2222" fill="white" transform="translate(2.66663 3.5556)"/>
</clipPath>
</defs>
</svg>
