<svg width="44" height="44" viewBox="0 0 44 44" fill="none" xmlns="http://www.w3.org/2000/svg">
<g id="Notification_Mute">
<path id="Icon" d="M18.6667 31.256C19.5513 31.926 20.7194 32.3334 22 32.3334C23.2806 32.3334 24.4487 31.926 25.3333 31.256M12.6345 27.8081C12.1075 27.8081 11.8132 27.0231 12.132 26.587C12.8717 25.5749 13.5857 24.0906 13.5857 22.3032L13.6162 19.7131C13.6162 14.901 17.3698 11 22 11C26.6984 11 30.5073 14.9585 30.5073 19.8415L30.4768 22.3032C30.4768 24.1029 31.1661 25.5953 31.8758 26.6078C32.1823 27.045 31.8872 27.8081 31.3667 27.8081H12.6345Z" stroke="black" stroke-width="2.5" stroke-linecap="round" stroke-linejoin="round"/>
<line id="Line 14" x1="35.8085" y1="9.414" x2="9.41391" y2="36.7513" stroke="black" stroke-width="2" stroke-linecap="round"/>
</g>
</svg>
