<svg width="20" height="20" viewBox="0 0 20 20" fill="none" xmlns="http://www.w3.org/2000/svg">
<circle cx="10" cy="10" r="10" fill="#A200FF"/>
<g clip-path="url(#clip0_495_17)">
<path d="M13.8496 6.47217H11.3413H8.83295H6.14957C5.32396 6.47217 4.65234 7.14378 4.65234 7.96938V13.5305C4.65234 14.3561 5.32396 15.0277 6.14957 15.0277H13.8496C14.6752 15.0277 15.3468 14.3561 15.3468 13.5305V7.96938C15.3468 7.14378 14.6752 6.47217 13.8496 6.47217ZM5.5079 7.96938C5.5079 7.6154 5.79558 7.32772 6.14957 7.32772H8.83295H10.0871H11.3413H13.8496C14.2036 7.32772 14.4912 7.6154 14.4912 7.96938V8.89122L10.306 11.1659C10.114 11.2702 9.88516 11.2702 9.69319 11.1659L5.5079 8.89122V7.96938ZM7.84945 11.1376L5.5079 12.6407V9.86498L7.84945 11.1376ZM13.8496 14.1721H6.14957C5.83676 14.1721 5.57581 13.947 5.51967 13.6498L8.70768 11.6039L9.28521 11.9178C9.50921 12.0392 9.75467 12.1001 10.0001 12.1001C10.2455 12.1001 10.491 12.0392 10.715 11.9178L11.2925 11.6039L14.4805 13.6498C14.4244 13.9465 14.1634 14.1721 13.8507 14.1721H13.8496ZM14.4912 12.6407L12.1497 11.1376L14.4912 9.86498V12.6407Z" fill="white"/>
<path d="M9.80091 5.95953L8.36786 4.50532C8.21071 4.34586 8.21071 4.08731 8.36786 3.92785C8.525 3.76839 8.77978 3.76839 8.93693 3.92785L9.6871 4.68911V2.99159C9.6871 2.76607 9.86729 2.58325 10.0895 2.58325C10.3117 2.58325 10.4919 2.76607 10.4919 2.99159V4.68906L11.242 3.92785C11.3992 3.76839 11.654 3.76839 11.8111 3.92785C11.9682 4.08731 11.9682 4.34586 11.8111 4.50532L10.3781 5.95953C10.3767 5.96091 10.3754 5.96229 10.374 5.96365C10.2955 6.04339 10.1925 6.08325 10.0895 6.08325C10.0436 6.08325 9.99948 6.07545 9.95835 6.06107C9.90229 6.04151 9.84968 6.00905 9.80493 5.96365C9.80359 5.96229 9.80225 5.96091 9.80091 5.95953Z" fill="white"/>
<path d="M13.8496 6.47217H11.3413H8.83295H6.14957C5.32396 6.47217 4.65234 7.14378 4.65234 7.96938V13.5305C4.65234 14.3561 5.32396 15.0277 6.14957 15.0277H13.8496C14.6752 15.0277 15.3468 14.3561 15.3468 13.5305V7.96938C15.3468 7.14378 14.6752 6.47217 13.8496 6.47217ZM5.5079 7.96938C5.5079 7.6154 5.79558 7.32772 6.14957 7.32772H8.83295H10.0871H11.3413H13.8496C14.2036 7.32772 14.4912 7.6154 14.4912 7.96938V8.89122L10.306 11.1659C10.114 11.2702 9.88516 11.2702 9.69319 11.1659L5.5079 8.89122V7.96938ZM7.84945 11.1376L5.5079 12.6407V9.86498L7.84945 11.1376ZM13.8496 14.1721H6.14957C5.83676 14.1721 5.57581 13.947 5.51967 13.6498L8.70768 11.6039L9.28521 11.9178C9.50921 12.0392 9.75467 12.1001 10.0001 12.1001C10.2455 12.1001 10.491 12.0392 10.715 11.9178L11.2925 11.6039L14.4805 13.6498C14.4244 13.9465 14.1634 14.1721 13.8507 14.1721H13.8496ZM14.4912 12.6407L12.1497 11.1376L14.4912 9.86498V12.6407Z" fill="white"/>
<path d="M9.80091 5.95953L8.36786 4.50532C8.21071 4.34586 8.21071 4.08731 8.36786 3.92785C8.525 3.76839 8.77978 3.76839 8.93693 3.92785L9.6871 4.68911V2.99159C9.6871 2.76607 9.86729 2.58325 10.0895 2.58325C10.3117 2.58325 10.4919 2.76607 10.4919 2.99159V4.68906L11.242 3.92785C11.3992 3.76839 11.654 3.76839 11.8111 3.92785C11.9682 4.08731 11.9682 4.34586 11.8111 4.50532L10.3781 5.95953C10.3767 5.96091 10.3754 5.96229 10.374 5.96365C10.2955 6.04339 10.1925 6.08325 10.0895 6.08325C10.0436 6.08325 9.99948 6.07545 9.95835 6.06107C9.90229 6.04151 9.84968 6.00905 9.80493 5.96365C9.80359 5.96229 9.80225 5.96091 9.80091 5.95953Z" fill="white"/>
</g>
<defs>
<clipPath id="clip0_495_17">
<rect width="14" height="14" fill="white" transform="translate(3 2)"/>
</clipPath>
</defs>
</svg>
