<svg width="12" height="13" viewBox="0 0 12 13" fill="none" xmlns="http://www.w3.org/2000/svg">
<g id="Notification_Mute">
<path id="Icon" d="M4.74999 10.0051C5.08171 10.2564 5.51976 10.4092 5.99998 10.4092C6.4802 10.4092 6.91825 10.2564 7.24997 10.0051M2.48795 8.7122C2.29032 8.7122 2.17994 8.41782 2.29949 8.25427C2.57689 7.87475 2.84463 7.31813 2.84463 6.64784L2.85607 5.67658C2.85607 3.87205 4.26365 2.40918 5.99998 2.40918C7.76189 2.40918 9.1902 3.8936 9.1902 5.72471L9.17876 6.64784C9.17876 7.32274 9.43727 7.8824 9.70339 8.26206C9.81831 8.42602 9.70765 8.7122 9.51247 8.7122H2.48795Z" stroke="#A0A0A0" stroke-width="0.937495" stroke-linecap="round" stroke-linejoin="round"/>
<line id="Line 14" x1="11.0124" y1="2.207" x2="1.98267" y2="11.5592" stroke="#A0A0A0" stroke-linecap="round"/>
</g>
</svg>
