<svg width="27" height="27" viewBox="0 0 27 27" fill="none" xmlns="http://www.w3.org/2000/svg">
<g id="Ping_Emoji" clip-path="url(#clip0_8159_22554)">
<rect id="Rectangle 1083" width="27" height="27" rx="4" fill="white"/>
<path id="Vector" d="M19.2386 13.4783C20.7666 13.4783 22.2321 14.0853 23.3125 15.1658C24.393 16.2462 25 17.7117 25 19.2397C25 20.7677 24.393 22.2331 23.3125 23.3135C22.2321 24.394 20.7666 25.001 19.2386 25.001C17.7106 25.001 16.2452 24.394 15.1647 23.3135C14.0843 22.2331 13.4773 20.7677 13.4773 19.2397C13.4773 17.7117 14.0843 16.2462 15.1647 15.1658C16.2452 14.0853 17.7106 13.4783 19.2386 13.4783ZM13.4773 3C19.2638 3 23.9546 7.69078 23.9546 13.4773C23.9546 13.7528 23.9441 14.0262 23.9231 14.2964C23.462 13.8588 22.942 13.4879 22.3781 13.1944C22.3228 11.4581 21.7609 9.77584 20.7616 8.35485C19.7622 6.93386 18.3691 5.83621 16.7537 5.1971C15.1383 4.55799 13.3713 4.40532 11.6702 4.75791C9.96916 5.11051 8.40838 5.95295 7.18012 7.18149C5.95186 8.41002 5.10977 9.97099 4.75757 11.6721C4.40537 13.3733 4.55843 15.1403 5.19792 16.7555C5.8374 18.3707 6.93537 19.7636 8.35659 20.7627C9.77781 21.7617 11.4602 22.3232 13.1966 22.378C13.4899 22.9437 13.8617 23.4632 14.2964 23.9221C14.0272 23.943 13.7538 23.9535 13.4773 23.9535C7.69079 23.9535 3 19.2627 3 13.4773C3 7.69183 7.69079 3.00105 13.4773 3.00105V3ZM19.2386 15.5702L19.1444 15.5786C19.0397 15.5977 18.9434 15.6482 18.8681 15.7235C18.7929 15.7987 18.7424 15.895 18.7233 15.9997L18.7149 16.094V18.7128L16.094 18.7159L15.9997 18.7243C15.8951 18.7434 15.7987 18.7939 15.7235 18.8692C15.6483 18.9444 15.5977 19.0407 15.5786 19.1454L15.5702 19.2397L15.5786 19.3339C15.5977 19.4386 15.6483 19.5349 15.7235 19.6102C15.7987 19.6854 15.8951 19.7359 15.9997 19.755L16.094 19.7634H18.7149V22.3864L18.7233 22.4807C18.7426 22.5851 18.7932 22.6813 18.8684 22.7563C18.9436 22.8313 19.0399 22.8817 19.1444 22.9007L19.2386 22.9102L19.3329 22.9007C19.4376 22.8816 19.5339 22.8311 19.6091 22.7559C19.6844 22.6806 19.7349 22.5843 19.754 22.4796L19.7624 22.3854V19.7624L22.3843 19.7634L22.4786 19.755C22.5833 19.7359 22.6796 19.6854 22.7548 19.6102C22.8301 19.5349 22.8806 19.4386 22.8997 19.3339L22.9092 19.2397L22.9008 19.1454C22.8816 19.0406 22.8309 18.9441 22.7555 18.8689C22.68 18.7937 22.5835 18.7432 22.4786 18.7243L22.3843 18.7159H19.7624V16.0971L19.754 16.0028C19.7351 15.898 19.6846 15.8014 19.6094 15.726C19.5342 15.6506 19.4377 15.5999 19.3329 15.5807L19.2386 15.5723V15.5702ZM9.77116 16.3925C10.4591 17.2683 11.4353 17.8718 12.5261 18.0958C12.4367 18.618 12.4089 19.1488 12.4434 19.6775C10.8976 19.4221 9.50361 18.5969 8.53614 17.3646C8.47231 17.2835 8.42508 17.1906 8.39714 17.0913C8.3692 16.9919 8.36111 16.8881 8.37332 16.7856C8.38552 16.6831 8.4178 16.5841 8.46829 16.4941C8.51878 16.404 8.58651 16.3249 8.6676 16.261C8.7487 16.1972 8.84157 16.15 8.94091 16.122C9.04026 16.0941 9.14413 16.086 9.24661 16.0982C9.34909 16.1104 9.44815 16.1427 9.53816 16.1932C9.62816 16.2437 9.70733 16.3114 9.77116 16.3925ZM10.3347 10.0739C10.5097 10.0689 10.6839 10.0991 10.8471 10.1627C11.0102 10.2262 11.1589 10.3218 11.2845 10.4439C11.41 10.5659 11.5098 10.7119 11.5779 10.8731C11.6461 11.0344 11.6812 11.2077 11.6812 11.3828C11.6812 11.5578 11.6461 11.7311 11.5779 11.8924C11.5098 12.0536 11.41 12.1996 11.2845 12.3216C11.1589 12.4437 11.0102 12.5393 10.8471 12.6028C10.6839 12.6664 10.5097 12.6966 10.3347 12.6916C9.994 12.682 9.67047 12.5399 9.43288 12.2955C9.19528 12.051 9.06236 11.7236 9.06236 11.3828C9.06236 11.0419 9.19528 10.7145 9.43288 10.4701C9.67047 10.2257 9.994 10.0835 10.3347 10.0739ZM16.6198 10.0739C16.7948 10.0689 16.9691 10.0991 17.1322 10.1627C17.2953 10.2262 17.444 10.3218 17.5696 10.4439C17.6951 10.5659 17.7949 10.7119 17.863 10.8731C17.9312 11.0344 17.9663 11.2077 17.9663 11.3828C17.9663 11.5578 17.9312 11.7311 17.863 11.8924C17.7949 12.0536 17.6951 12.1996 17.5696 12.3216C17.444 12.4437 17.2953 12.5393 17.1322 12.6028C16.9691 12.6664 16.7948 12.6966 16.6198 12.6916C16.2791 12.682 15.9556 12.5399 15.718 12.2955C15.4804 12.051 15.3475 11.7236 15.3475 11.3828C15.3475 11.0419 15.4804 10.7145 15.718 10.4701C15.9556 10.2257 16.2791 10.0835 16.6198 10.0739Z" fill="#8700FF"/>
</g>
<defs>
<clipPath id="clip0_8159_22554">
<rect width="27" height="27" fill="white"/>
</clipPath>
</defs>
</svg>
