<svg width="24" height="24" viewBox="0 0 24 24" fill="none" xmlns="http://www.w3.org/2000/svg">
<path d="M18.5999 7.66675H14.3H10H5.39992C3.98459 7.66675 2.83325 8.81808 2.83325 10.2334V19.7667C2.83325 21.1821 3.98459 22.3334 5.39992 22.3334H18.5999C20.0153 22.3334 21.1666 21.1821 21.1666 19.7667V10.2334C21.1666 8.81808 20.0153 7.66675 18.5999 7.66675ZM4.29992 10.2334C4.29992 9.62658 4.79309 9.13341 5.39992 9.13341H10H12.15H14.3H18.5999C19.2068 9.13341 19.6999 9.62658 19.6999 10.2334V11.8137L12.5252 15.7132C12.1961 15.892 11.8038 15.892 11.4747 15.7132L4.29992 11.8137V10.2334ZM8.314 15.6647L4.29992 18.2414V13.483L8.314 15.6647ZM18.5999 20.8667H5.39992C4.86367 20.8667 4.41634 20.4808 4.32009 19.9712L9.78525 16.464L10.7753 17.0021C11.1593 17.2102 11.5801 17.3147 12.0008 17.3147C12.4216 17.3147 12.8423 17.2102 13.2264 17.0021L14.2164 16.464L19.6816 19.9712C19.5853 20.4799 19.138 20.8667 18.6018 20.8667H18.5999ZM19.6999 18.2414L15.6858 15.6647L19.6999 13.483V18.2414Z" fill="black"/>
<path d="M11.6587 6.7879L9.20204 4.29497C8.93265 4.02161 8.93265 3.57839 9.20204 3.30503C9.47143 3.03166 9.9082 3.03166 10.1776 3.30503L11.4636 4.61005V1.7C11.4636 1.3134 11.7725 1 12.1534 1C12.5344 1 12.8433 1.3134 12.8433 1.7V4.60995L14.1292 3.30503C14.3986 3.03166 14.8354 3.03166 15.1047 3.30503C15.3741 3.57839 15.3741 4.02161 15.1047 4.29497L12.6481 6.7879C12.6458 6.79027 12.6435 6.79263 12.6412 6.79497C12.5065 6.93166 12.33 7 12.1534 7C12.0747 7 11.9991 6.98662 11.9286 6.96197C11.8325 6.92845 11.7423 6.87279 11.6656 6.79497C11.6633 6.79263 11.661 6.79027 11.6587 6.7879Z" fill="black"/>
</svg>
