<svg width="24" height="24" viewBox="0 0 24 24" fill="none" xmlns="http://www.w3.org/2000/svg">
<path fill-rule="evenodd" clip-rule="evenodd" d="M13 21C13 21.5523 12.5523 22 12 22C11.4477 22 11 21.5523 11 21L11 13H3.00012C2.44783 13 2 12.5523 2 12C2 11.4477 2.44818 11 3.00047 11L11 11L11 3.00011C11 2.44783 11.4477 2 12 2C12.5523 2 13 2.44819 13 3.00047L13 11H21C21.5523 11 22 11.4477 22 12C22 12.5523 21.5523 13 21 13L13 13L13 21ZM12 3C11 3 11 3.00011 11 3.00011L12 3ZM13 3.00047C13 3.00047 13 3 12 3L13 3.00047ZM3 12C3 13 3.00012 13 3.00012 13L3 12ZM3.00047 11C3.00047 11 3 11 3 12L3.00047 11Z" fill="#2F363F"/>
</svg>
