<svg width="11" height="18" viewBox="0 0 11 18" fill="none" xmlns="http://www.w3.org/2000/svg">
<g clip-path="url(#clip0_5856_34937)">
<path d="M5.38462 0.5C3.59477 0.5 2.15385 1.94092 2.15385 3.73077V5.88462C0.969231 5.88462 0 6.85385 0 8.03846V12.3462C0 13.5308 0.969231 14.5 2.15385 14.5H8.61539C9.8 14.5 10.7692 13.5308 10.7692 12.3462V8.03846C10.7692 6.85385 9.8 5.88462 8.61539 5.88462H3.23077V3.73077C3.23077 2.50523 4.15908 1.57692 5.38462 1.57692C6.61015 1.57692 7.53846 2.50523 7.53846 3.73077V4.26923H8.61539V3.73077C8.61539 1.94092 7.17446 0.5 5.38462 0.5ZM5.38462 8.57692C5.97692 8.57692 6.46154 9.06154 6.46154 9.65385C6.46154 10.0308 6.24615 10.4007 5.92308 10.5628V11.8077C5.92308 12.1308 5.70769 12.3462 5.38462 12.3462C5.06154 12.3462 4.84615 12.1308 4.84615 11.8077V10.5622C4.52308 10.4007 4.30769 10.0308 4.30769 9.65385C4.30769 9.06154 4.79231 8.57692 5.38462 8.57692Z" fill="black"/>
</g>
<defs>
<clipPath id="clip0_5856_34937">
<rect width="10.7692" height="17" fill="white" transform="translate(0 0.5)"/>
</clipPath>
</defs>
</svg>
