<svg width="20" height="20" viewBox="0 0 20 20" fill="none" xmlns="http://www.w3.org/2000/svg">
<path fill-rule="evenodd" clip-rule="evenodd" d="M7.56251 6.25C7.56251 5.65326 7.81931 5.08097 8.27644 4.65901C8.73356 4.23705 9.35355 4 10 4C10.6465 4 11.2665 4.23705 11.7236 4.65901C12.1807 5.08097 12.4375 5.65326 12.4375 6.25V7.75H7.56251V6.25ZM5.9375 7.75V6.25C5.9375 5.25544 6.36552 4.30161 7.12739 3.59835C7.88925 2.89509 8.92257 2.5 10 2.5C11.0775 2.5 12.1108 2.89509 12.8726 3.59835C13.6345 4.30161 14.0625 5.25544 14.0625 6.25V7.75H15.6875C15.903 7.75 16.1097 7.82902 16.262 7.96967C16.4144 8.11032 16.5 8.30109 16.5 8.5V15.25C16.5 15.8467 16.2432 16.419 15.7861 16.841C15.329 17.2629 14.709 17.5 14.0625 17.5H5.9375C5.29104 17.5 4.67105 17.2629 4.21393 16.841C3.75681 16.419 3.5 15.8467 3.5 15.25V8.5C3.5 8.30109 3.5856 8.11032 3.73798 7.96967C3.89035 7.82902 4.09701 7.75 4.3125 7.75H5.9375Z" fill="black"/>
</svg>
