<svg width="16" height="17" viewBox="0 0 16 17" fill="none" xmlns="http://www.w3.org/2000/svg">
<g id="gridicons:lock">
<path id="Vector" d="M11.9998 5.83325H11.3332V5.16659C11.3332 3.32859 9.83784 1.83325 7.99984 1.83325C6.16184 1.83325 4.6665 3.32859 4.6665 5.16659V5.83325H3.99984C3.64622 5.83325 3.30708 5.97373 3.05703 6.22378C2.80698 6.47382 2.6665 6.81296 2.6665 7.16659V13.8333C2.6665 14.1869 2.80698 14.526 3.05703 14.7761C3.30708 15.0261 3.64622 15.1666 3.99984 15.1666H11.9998C12.3535 15.1666 12.6926 15.0261 12.9426 14.7761C13.1927 14.526 13.3332 14.1869 13.3332 13.8333V7.16659C13.3332 6.81296 13.1927 6.47382 12.9426 6.22378C12.6926 5.97373 12.3535 5.83325 11.9998 5.83325ZM5.99984 5.16659C5.99984 4.06392 6.89717 3.16659 7.99984 3.16659C9.1025 3.16659 9.99984 4.06392 9.99984 5.16659V5.83325H5.99984V5.16659ZM8.6665 10.9819V12.4999H7.33317V10.9819C6.9365 10.7513 6.6665 10.3259 6.6665 9.83325C6.6665 9.47963 6.80698 9.14049 7.05703 8.89044C7.30708 8.64039 7.64621 8.49992 7.99984 8.49992C8.35346 8.49992 8.6926 8.64039 8.94265 8.89044C9.19269 9.14049 9.33317 9.47963 9.33317 9.83325C9.33317 10.3253 9.06317 10.7506 8.6665 10.9819Z" fill="#303030"/>
</g>
</svg>
