<svg width="58" height="44" viewBox="0 0 58 44" fill="none" xmlns="http://www.w3.org/2000/svg">
<circle cx="22.585" cy="22" r="17.415" fill="black"/>
<g clip-path="url(#clip0_4586_62029)">
<path d="M27.017 17.886H29.1446V31.9513H24.4705V20.4325C24.4705 19.0272 25.6117 17.886 27.017 17.886Z" fill="#8700FF"/>
<path d="M17.4589 16.7167C18.7498 16.7167 19.7963 15.6717 19.7963 14.3826C19.7963 13.0936 18.7498 12.0486 17.4589 12.0486C16.1679 12.0486 15.1214 13.0936 15.1214 14.3826C15.1214 15.6717 16.1679 16.7167 17.4589 16.7167Z" fill="#87DFFF"/>
<path d="M19.7956 17.886H15.1214V31.9513H19.7956V17.886Z" fill="#87DFFF"/>
<path d="M22.133 16.7167C23.424 16.7167 24.4704 15.6717 24.4704 14.3826C24.4704 13.0936 23.424 12.0486 22.133 12.0486C20.8421 12.0486 19.7956 13.0936 19.7956 14.3826C19.7956 15.6717 20.8421 16.7167 22.133 16.7167Z" fill="#87DFFF"/>
<path d="M24.4698 17.886H19.7956V31.9513H24.4698V17.886Z" fill="#87DFFF"/>
<path d="M26.8079 16.7395C28.0988 16.7395 29.1453 15.693 29.1453 14.4021C29.1453 13.1112 28.0988 12.0647 26.8079 12.0647C25.517 12.0647 24.4705 13.1112 24.4705 14.4021C24.4705 15.693 25.517 16.7395 26.8079 16.7395Z" fill="#8700FF"/>
</g>
<circle cx="35.415" cy="22" r="17.415" fill="black"/>
<g clip-path="url(#clip1_4586_62029)">
<path d="M39.847 17.886H41.9746V31.9513H37.3005V20.4325C37.3005 19.0272 38.4417 17.886 39.847 17.886Z" fill="#8700FF"/>
<path d="M30.2889 16.7167C31.5798 16.7167 32.6263 15.6717 32.6263 14.3826C32.6263 13.0936 31.5798 12.0486 30.2889 12.0486C28.9979 12.0486 27.9514 13.0936 27.9514 14.3826C27.9514 15.6717 28.9979 16.7167 30.2889 16.7167Z" fill="#87DFFF"/>
<path d="M32.6256 17.886H27.9514V31.9513H32.6256V17.886Z" fill="#87DFFF"/>
<path d="M34.963 16.7167C36.254 16.7167 37.3005 15.6717 37.3005 14.3826C37.3005 13.0936 36.254 12.0486 34.963 12.0486C33.6721 12.0486 32.6256 13.0936 32.6256 14.3826C32.6256 15.6717 33.6721 16.7167 34.963 16.7167Z" fill="#87DFFF"/>
<path d="M37.2998 17.886H32.6256V31.9513H37.2998V17.886Z" fill="#87DFFF"/>
<path d="M39.6379 16.7395C40.9288 16.7395 41.9753 15.693 41.9753 14.4021C41.9753 13.1112 40.9288 12.0647 39.6379 12.0647C38.347 12.0647 37.3005 13.1112 37.3005 14.4021C37.3005 15.693 38.347 16.7395 39.6379 16.7395Z" fill="#8700FF"/>
</g>
<defs>
<clipPath id="clip0_4586_62029">
<rect width="14.0231" height="19.9029" fill="white" transform="translate(15.1214 12.0486)"/>
</clipPath>
<clipPath id="clip1_4586_62029">
<rect width="14.0231" height="19.9029" fill="white" transform="translate(27.9514 12.0486)"/>
</clipPath>
</defs>
</svg>
