<svg width="23" height="23" viewBox="0 0 23 23" fill="none" xmlns="http://www.w3.org/2000/svg">
<path d="M18.7481 8.90364C18.4995 8.90364 18.261 9.00241 18.0852 9.17822C17.9094 9.35404 17.8106 9.5925 17.8106 9.84114V13.8049C17.8096 14.6176 17.4863 15.3968 16.9116 15.9715C16.3369 16.5462 15.5577 16.8695 14.745 16.8705H9.76406L11.4431 15.1952C11.6142 15.0186 11.709 14.7819 11.7072 14.5361C11.7054 14.2903 11.6072 14.055 11.4336 13.8809C11.26 13.7069 11.025 13.6079 10.7792 13.6055C10.5334 13.603 10.2964 13.6972 10.1194 13.8677L6.83437 17.1443C6.65855 17.3201 6.55946 17.5584 6.55875 17.8071V17.808C6.55875 17.8296 6.57 17.8474 6.57094 17.8689C6.57596 18.0967 6.67063 18.3133 6.83437 18.4718L10.1175 21.7568C10.2943 21.9275 10.5311 22.022 10.7769 22.0199C11.0227 22.0178 11.2579 21.9192 11.4317 21.7453C11.6055 21.5715 11.7041 21.3364 11.7063 21.0906C11.7084 20.8448 11.6139 20.6079 11.4431 20.4311L9.75844 18.7455H14.7441C16.0539 18.744 17.3097 18.223 18.236 17.2968C19.1622 16.3706 19.6832 15.1148 19.6847 13.8049V9.84114C19.6847 9.5925 19.5859 9.35404 19.4101 9.17822C19.2343 9.00241 18.9968 8.90364 18.7481 8.90364ZM12.7387 5.62614L11.0559 7.30895C10.9664 7.39543 10.895 7.49888 10.8458 7.61326C10.7967 7.72764 10.7708 7.85065 10.7698 7.97513C10.7687 8.09962 10.7924 8.22307 10.8395 8.33828C10.8867 8.4535 10.9563 8.55817 11.0443 8.64619C11.1323 8.73422 11.237 8.80383 11.3522 8.85097C11.4674 8.89811 11.5909 8.92183 11.7154 8.92075C11.8399 8.91966 11.9629 8.8938 12.0773 8.84467C12.1916 8.79554 12.2951 8.72411 12.3816 8.63457L15.6628 5.35332C15.8387 5.17704 15.9375 4.93816 15.9375 4.68911C15.9375 4.44005 15.8387 4.20117 15.6628 4.02489L12.3816 0.743636C12.2047 0.572863 11.9679 0.478368 11.7221 0.480504C11.4763 0.48264 11.2412 0.581236 11.0674 0.755056C10.8935 0.928876 10.7949 1.16401 10.7928 1.40982C10.7907 1.65563 10.8852 1.89245 11.0559 2.06926L12.7378 3.75114H7.75313C6.44332 3.75287 5.18766 4.27396 4.26149 5.20013C3.33532 6.1263 2.81424 7.38196 2.8125 8.69176V12.6564C2.8125 12.9051 2.91127 13.1435 3.08709 13.3194C3.2629 13.4952 3.50136 13.5939 3.75 13.5939C3.99864 13.5939 4.2371 13.4952 4.41291 13.3194C4.58873 13.1435 4.6875 12.9051 4.6875 12.6564V8.69176C4.68874 7.87893 5.01225 7.09975 5.5871 6.52508C6.16195 5.9504 6.94123 5.62713 7.75406 5.62614H12.7387Z" fill="black"/>
</svg>
