<svg width="23" height="23" viewBox="0 0 23 23" fill="none" xmlns="http://www.w3.org/2000/svg">
<path d="M18.7481 8.90357C18.4995 8.90357 18.261 9.00235 18.0852 9.17816C17.9094 9.35398 17.8106 9.59243 17.8106 9.84107V13.8048C17.8096 14.6176 17.4863 15.3968 16.9116 15.9715C16.3369 16.5462 15.5577 16.8695 14.745 16.8704H9.76406L11.4431 15.1951C11.6142 15.0186 11.709 14.7819 11.7072 14.5361C11.7054 14.2902 11.6072 14.055 11.4336 13.8809C11.26 13.7068 11.025 13.6079 10.7792 13.6054C10.5334 13.6029 10.2964 13.6971 10.1194 13.8676L6.83437 17.1442C6.65855 17.3201 6.55946 17.5583 6.55875 17.807V17.8079C6.55875 17.8295 6.57 17.8473 6.57094 17.8689C6.57596 18.0967 6.67063 18.3133 6.83437 18.4717L10.1175 21.7567C10.2943 21.9275 10.5311 22.022 10.7769 22.0198C11.0227 22.0177 11.2579 21.9191 11.4317 21.7453C11.6055 21.5715 11.7041 21.3363 11.7063 21.0905C11.7084 20.8447 11.6139 20.6079 11.4431 20.4311L9.75844 18.7454H14.7441C16.0539 18.744 17.3097 18.223 18.236 17.2967C19.1622 16.3705 19.6832 15.1147 19.6847 13.8048V9.84107C19.6847 9.59243 19.5859 9.35398 19.4101 9.17816C19.2343 9.00235 18.9968 8.90357 18.7481 8.90357ZM12.7387 5.62608L11.0559 7.30889C10.9664 7.39537 10.895 7.49882 10.8458 7.6132C10.7967 7.72757 10.7708 7.85059 10.7698 7.97507C10.7687 8.09955 10.7924 8.223 10.8395 8.33822C10.8867 8.45343 10.9563 8.55811 11.0443 8.64613C11.1323 8.73416 11.237 8.80377 11.3522 8.85091C11.4674 8.89805 11.5909 8.92177 11.7154 8.92068C11.8399 8.9196 11.9629 8.89374 12.0773 8.84461C12.1916 8.79547 12.2951 8.72405 12.3816 8.63451L15.6628 5.35326C15.8387 5.17698 15.9375 4.9381 15.9375 4.68904C15.9375 4.43999 15.8387 4.20111 15.6628 4.02483L12.3816 0.743575C12.2047 0.572802 11.9679 0.478307 11.7221 0.480443C11.4763 0.482579 11.2412 0.581175 11.0674 0.754995C10.8935 0.928815 10.7949 1.16395 10.7928 1.40976C10.7907 1.65557 10.8852 1.89239 11.0559 2.0692L12.7378 3.75108H7.75313C6.44332 3.75281 5.18766 4.2739 4.26149 5.20007C3.33532 6.12624 2.81424 7.3819 2.8125 8.6917V12.6564C2.8125 12.905 2.91127 13.1435 3.08709 13.3193C3.2629 13.4951 3.50136 13.5939 3.75 13.5939C3.99864 13.5939 4.2371 13.4951 4.41291 13.3193C4.58873 13.1435 4.6875 12.905 4.6875 12.6564V8.6917C4.68874 7.87886 5.01225 7.09969 5.5871 6.52501C6.16195 5.95034 6.94123 5.62707 7.75406 5.62608H12.7387Z" fill="white"/>
</svg>
