<svg width="36" height="36" viewBox="0 0 36 36" fill="none" xmlns="http://www.w3.org/2000/svg">
<g id="Refresh">
<path id="Vector" d="M25.2734 15.508C25.0323 15.508 24.801 15.6035 24.6305 15.7735C24.46 15.9435 24.3642 16.174 24.3642 16.4145V20.247C24.3632 21.0328 24.0497 21.7862 23.4923 22.3419C22.9349 22.8976 22.1792 23.2102 21.391 23.2111H16.5601L18.1886 21.5913C18.3545 21.4206 18.4465 21.1917 18.4447 20.954C18.443 20.7163 18.3477 20.4888 18.1794 20.3205C18.011 20.1522 17.7831 20.0566 17.5447 20.0542C17.3063 20.0518 17.0765 20.1428 16.9048 20.3077L13.7188 23.4758C13.5482 23.6459 13.4521 23.8763 13.4514 24.1167V24.1176C13.4514 24.1385 13.4624 24.1557 13.4633 24.1765C13.4681 24.3968 13.56 24.6062 13.7188 24.7594L16.9029 27.9356C17.0744 28.1008 17.3041 28.1921 17.5425 28.1901C17.7809 28.188 18.0089 28.0927 18.1775 27.9246C18.3461 27.7565 18.4417 27.5292 18.4438 27.2915C18.4459 27.0538 18.3542 26.8249 18.1886 26.6539L16.5547 25.0241H21.39C22.6604 25.0226 23.8784 24.5189 24.7767 23.6233C25.675 22.7277 26.1803 21.5135 26.1818 20.247V16.4145C26.1818 16.174 26.086 15.9435 25.9154 15.7735C25.7449 15.6035 25.5146 15.508 25.2734 15.508ZM19.4452 12.339L17.8131 13.9661C17.7262 14.0497 17.657 14.1497 17.6093 14.2603C17.5617 14.3709 17.5366 14.4899 17.5355 14.6102C17.5345 14.7306 17.5575 14.8499 17.6032 14.9613C17.6489 15.0727 17.7164 15.174 17.8018 15.2591C17.8872 15.3442 17.9887 15.4115 18.1004 15.4571C18.2122 15.5026 18.3319 15.5256 18.4526 15.5245C18.5734 15.5235 18.6927 15.4985 18.8036 15.451C18.9145 15.4035 19.0149 15.3344 19.0988 15.2478L22.2811 12.0752C22.4517 11.9047 22.5475 11.6738 22.5475 11.433C22.5475 11.1922 22.4517 10.9612 22.2811 10.7907L19.0988 7.6181C18.9273 7.45298 18.6976 7.36162 18.4592 7.36368C18.2208 7.36575 17.9927 7.46108 17.8242 7.62915C17.6556 7.79721 17.56 8.02456 17.5579 8.26224C17.5558 8.49991 17.6475 8.72889 17.8131 8.89985L19.4443 10.526H14.6098C13.3395 10.5277 12.1217 11.0316 11.2234 11.9271C10.3252 12.8226 9.8198 14.0367 9.81812 15.3031V19.1366C9.81812 19.377 9.91391 19.6075 10.0844 19.7775C10.2549 19.9475 10.4862 20.043 10.7274 20.043C10.9685 20.043 11.1998 19.9475 11.3703 19.7775C11.5408 19.6075 11.6366 19.377 11.6366 19.1366V15.3031C11.6378 14.5172 11.9516 13.7638 12.5091 13.2082C13.0666 12.6525 13.8224 12.3399 14.6107 12.339H19.4452Z" fill="black"/>
</g>
</svg>
