<svg width="24" height="24" viewBox="0 0 24 24" fill="none" xmlns="http://www.w3.org/2000/svg">
<g clip-path="url(#clip0_3524_37319)">
<path d="M17.2874 16.3596L14.8143 13.8866C15.4097 13.0939 15.7312 12.1292 15.7301 11.1378C15.7301 8.60565 13.67 6.54553 11.1378 6.54553C8.6056 6.54553 6.54549 8.60565 6.54549 11.1378C6.54549 13.67 8.6056 15.7301 11.1378 15.7301C12.1291 15.7312 13.0939 15.4098 13.8865 14.8144L16.3596 17.2874C16.4847 17.3993 16.648 17.4591 16.8159 17.4544C16.9837 17.4497 17.1434 17.3809 17.2621 17.2622C17.3808 17.1434 17.4496 16.9838 17.4543 16.8159C17.459 16.6481 17.3993 16.4848 17.2874 16.3596ZM7.85757 11.1378C7.85757 10.4891 8.04995 9.85486 8.41038 9.31544C8.77082 8.77601 9.28312 8.35558 9.8825 8.10731C10.4819 7.85904 11.1414 7.79408 11.7777 7.92064C12.414 8.04721 12.9985 8.35962 13.4572 8.81837C13.916 9.27711 14.2284 9.86159 14.355 10.4979C14.4815 11.1342 14.4166 11.7937 14.1683 12.3931C13.92 12.9925 13.4996 13.5048 12.9602 13.8652C12.4207 14.2256 11.7865 14.418 11.1378 14.418C10.2681 14.417 9.4344 14.0711 8.81947 13.4561C8.20454 12.8412 7.85861 12.0075 7.85757 11.1378Z" fill="#A0A0A0"/>
</g>
<defs>
<clipPath id="clip0_3524_37319">
<rect width="10.9091" height="10.9091" fill="white" transform="translate(6.54546 6.54547)"/>
</clipPath>
</defs>
</svg>
