<svg width="24" height="24" viewBox="0 0 24 24" fill="none" xmlns="http://www.w3.org/2000/svg">
<g clip-path="url(#clip0_3524_37319)">
<path d="M17.2878 16.3595L14.8148 13.8865C15.4102 13.0938 15.7316 12.129 15.7305 11.1377C15.7305 8.60553 13.6704 6.54541 11.1382 6.54541C8.60602 6.54541 6.5459 8.60553 6.5459 11.1377C6.5459 13.6699 8.60602 15.73 11.1382 15.73C12.1295 15.7311 13.0943 15.4097 13.8869 14.8143L16.36 17.2873C16.4852 17.3992 16.6484 17.4589 16.8163 17.4542C16.9841 17.4495 17.1438 17.3808 17.2625 17.262C17.3813 17.1433 17.45 16.9836 17.4547 16.8158C17.4594 16.6479 17.3997 16.4847 17.2878 16.3595ZM7.85798 11.1377C7.85798 10.4889 8.05036 9.85474 8.4108 9.31532C8.77123 8.77589 9.28353 8.35546 9.88291 8.10718C10.4823 7.85891 11.1418 7.79395 11.7781 7.92052C12.4144 8.04709 12.9989 8.3595 13.4576 8.81824C13.9164 9.27699 14.2288 9.86147 14.3554 10.4978C14.4819 11.1341 14.417 11.7936 14.1687 12.393C13.9204 12.9924 13.5 13.5047 12.9606 13.8651C12.4211 14.2255 11.787 14.4179 11.1382 14.4179C10.2685 14.4169 9.43482 14.0709 8.81988 13.456C8.20495 12.8411 7.85902 12.0073 7.85798 11.1377Z" fill="#A0A0A0"/>
</g>
<defs>
<clipPath id="clip0_3524_37319">
<rect width="10.9091" height="10.9091" fill="white" transform="translate(6.5459 6.54541)"/>
</clipPath>
</defs>
</svg>
