<svg width="44" height="44" viewBox="0 0 44 44" fill="none" xmlns="http://www.w3.org/2000/svg">
<g clip-path="url(#clip0_198_4687)">
<path d="M31.6935 29.9925L27.1596 25.4586C28.2511 24.0055 28.8404 22.2367 28.8384 20.4192C28.8384 15.7769 25.0615 12 20.4192 12C15.7769 12 12 15.7769 12 20.4192C12 25.0615 15.7769 28.8384 20.4192 28.8384C22.2367 28.8404 24.0054 28.2512 25.4586 27.1596L29.9925 31.6935C30.222 31.8987 30.5213 32.0082 30.829 31.9996C31.1367 31.9909 31.4295 31.8649 31.6472 31.6472C31.8648 31.4295 31.9909 31.1368 31.9995 30.8291C32.0081 30.5213 31.8986 30.222 31.6935 29.9925ZM14.4055 20.4192C14.4055 19.2298 14.7582 18.0671 15.419 17.0782C16.0798 16.0892 17.019 15.3184 18.1179 14.8633C19.2167 14.4081 20.4259 14.289 21.5924 14.5211C22.759 14.7531 23.8305 15.3259 24.6715 16.1669C25.5126 17.0079 26.0853 18.0795 26.3174 19.246C26.5494 20.4126 26.4303 21.6217 25.9751 22.7206C25.52 23.8194 24.7492 24.7587 23.7602 25.4195C22.7713 26.0802 21.6086 26.4329 20.4192 26.4329C18.8249 26.431 17.2964 25.7968 16.169 24.6695C15.0416 23.5421 14.4074 22.0136 14.4055 20.4192Z" fill="black"/>
</g>
<defs>
<clipPath id="clip0_198_4687">
<rect width="20" height="20" fill="white" transform="translate(12 12)"/>
</clipPath>
</defs>
</svg>
