<svg width="20" height="20" viewBox="0 0 20 20" xmlns="http://www.w3.org/2000/svg">
  <g id="ion:search" clip-path="url(#clip0_125_475)">
    <path id="Vector"
      d="M19.6935 17.9925L15.1596 13.4586C16.2511 12.0055 16.8404 10.2367 16.8384 8.41923C16.8384 3.77691 13.0615 3.05176e-05 8.4192 3.05176e-05C3.77688 3.05176e-05 0 3.77691 0 8.41923C0 13.0615 3.77688 16.8384 8.4192 16.8384C10.2367 16.8404 12.0054 16.2512 13.4586 15.1596L17.9925 19.6935C18.222 19.8987 18.5213 20.0082 18.829 19.9996C19.1367 19.9909 19.4295 19.8649 19.6472 19.6472C19.8648 19.4295 19.9909 19.1368 19.9995 18.8291C20.0081 18.5213 19.8986 18.222 19.6935 17.9925ZM2.40549 8.41923C2.40549 7.22983 2.75818 6.06714 3.41898 5.07819C4.07977 4.08924 5.01899 3.31845 6.11785 2.86328C7.21671 2.40812 8.42587 2.28903 9.59242 2.52107C10.759 2.75311 11.8305 3.32586 12.6715 4.16689C13.5126 5.00793 14.0853 6.07947 14.3174 7.24601C14.5494 8.41256 14.4303 9.62172 13.9751 10.7206C13.52 11.8194 12.7492 12.7587 11.7602 13.4195C10.7713 14.0802 9.6086 14.4329 8.4192 14.4329C6.82485 14.431 5.29635 13.7968 4.16897 12.6695C3.0416 11.5421 2.4074 10.0136 2.40549 8.41923Z"
      fillRule="evenodd" />
  </g>
  <defs>
    <clipPath id="clip0_125_475">
      <rect width="20" height="20" fill="white" />
    </clipPath>
  </defs>
</svg>