<svg width="25" height="23" viewBox="0 0 25 23" fill="black" xmlns="http://www.w3.org/2000/svg">
<rect width="20" height="3.25" rx="1.08333" fill="black"/>
<rect y="6.45001" width="20" height="3.25" rx="1.08333" fill="black"/>
<rect y="12.9" width="20" height="3.25" rx="1.08333" fill="black"/>
<rect width="7" height="6" transform="translate(13 10.2)" fill="white"/>
<path d="M23.7025 14.2544L20.912 11.4967L21.8312 10.5775C22.0829 10.3258 22.3922 10.2 22.759 10.2C23.1258 10.2 23.4349 10.3258 23.6861 10.5775L24.6054 11.4967C24.8571 11.7484 24.9884 12.0522 24.9993 12.4081C25.0103 12.764 24.8899 13.0675 24.6382 13.3188L23.7025 14.2544ZM22.7505 15.2229L15.7905 22.1828H13V19.3923L19.9599 12.4324L22.7505 15.2229Z" fill="black"/>
</svg>
