<svg width="44" height="44" viewBox="0 0 44 44" fill="none" xmlns="http://www.w3.org/2000/svg">
<path fill-rule="evenodd" clip-rule="evenodd" d="M21.2929 12.2929C21.6834 11.9024 22.3166 11.9024 22.7071 12.2929L27.7071 17.2929C28.0977 17.6834 28.0977 18.3166 27.7071 18.7071C27.3166 19.0976 26.6834 19.0976 26.2929 18.7071L23 15.4142V25C23 25.5523 22.5523 26 22 26C21.4477 26 21 25.5523 21 25V15.4142L17.7071 18.7071C17.3166 19.0976 16.6834 19.0976 16.2929 18.7071C15.9024 18.3166 15.9024 17.6834 16.2929 17.2929L21.2929 12.2929ZM13 24C13.5523 24 14 24.4477 14 25V26.2C14 27.0566 14.0008 27.6389 14.0376 28.089C14.0734 28.5274 14.1383 28.7516 14.218 28.908C14.4098 29.2843 14.7157 29.5903 15.0921 29.782C15.2484 29.8617 15.4727 29.9266 15.9111 29.9624C16.3612 29.9992 16.9435 30 17.8 30H26.2C27.0566 30 27.6389 29.9992 28.089 29.9624C28.5274 29.9266 28.7516 29.8617 28.908 29.782C29.2843 29.5903 29.5903 29.2843 29.782 28.908C29.8617 28.7516 29.9267 28.5274 29.9625 28.089C29.9993 27.6389 30 27.0566 30 26.2V25C30 24.4477 30.4477 24 31 24C31.5523 24 32 24.4477 32 25V26.2413C32 27.0463 32.0001 27.7106 31.9558 28.2518C31.9099 28.8139 31.8113 29.3306 31.5641 29.816C31.1806 30.5686 30.5686 31.1805 29.816 31.564C29.3307 31.8113 28.814 31.9099 28.2519 31.9558C27.7107 32 27.0463 32 26.2414 32H17.7587C16.9537 32 16.2894 32 15.7482 31.9558C15.1861 31.9099 14.6694 31.8113 14.1841 31.564C13.4314 31.1805 12.8195 30.5686 12.436 29.816C12.1887 29.3306 12.0902 28.8139 12.0442 28.2518C12 27.7106 12 27.0463 12 26.2413L12 25C12 24.4477 12.4477 24 13 24Z" fill="black"/>
</svg>
