<svg width="24" height="24" viewBox="0 0 24 24" fill="none" xmlns="http://www.w3.org/2000/svg">
<path d="M2.05186 12.8224C1.98278 12.6151 1.98271 12.3907 2.05167 12.1834C3.44004 8.00972 7.3771 5 12.0171 5C16.655 5 20.5905 8.00692 21.9806 12.1776C22.0497 12.3849 22.0498 12.6093 21.9808 12.8166C20.5925 16.9903 16.6554 20 12.0154 20C7.37751 20 3.44195 16.9931 2.05186 12.8224Z" fill="#D9D9D9"/>
<path d="M15.0163 12.5C15.0163 14.1569 13.6732 15.5 12.0163 15.5C10.3595 15.5 9.01631 14.1569 9.01631 12.5C9.01631 10.8431 10.3595 9.5 12.0163 9.5C13.6732 9.5 15.0163 10.8431 15.0163 12.5Z" fill="#D9D9D9"/>
<path d="M2.05186 12.8224C1.98278 12.6151 1.98271 12.3907 2.05167 12.1834C3.44004 8.00972 7.3771 5 12.0171 5C16.655 5 20.5905 8.00692 21.9806 12.1776C22.0497 12.3849 22.0498 12.6093 21.9808 12.8166C20.5925 16.9903 16.6554 20 12.0154 20C7.37751 20 3.44195 16.9931 2.05186 12.8224Z" stroke="#737373" stroke-width="2" stroke-linecap="round" stroke-linejoin="round"/>
<path d="M15.0163 12.5C15.0163 14.1569 13.6732 15.5 12.0163 15.5C10.3595 15.5 9.01631 14.1569 9.01631 12.5C9.01631 10.8431 10.3595 9.5 12.0163 9.5C13.6732 9.5 15.0163 10.8431 15.0163 12.5Z" stroke="#737373" stroke-width="2" stroke-linecap="round" stroke-linejoin="round"/>
<circle cx="12.5" cy="12.5" r="2.5" fill="#737373"/>
</svg>
