<svg width="20" height="20" viewBox="0 0 20 20" fill="none" xmlns="http://www.w3.org/2000/svg">
<circle cx="10.085" cy="10.085" r="8.085" fill="black"/>
<path d="M14.9167 9.08335C12.25 7.50002 7.79169 7.33335 5.25002 8.12502C4.83335 8.25002 4.41669 8.00002 4.29169 7.62502C4.16669 7.20835 4.41669 6.79169 4.79169 6.66669C7.75002 5.79169 12.625 5.95835 15.7084 7.79169C16.0834 8.00002 16.2084 8.50002 16 8.87502C15.7917 9.16669 15.2917 9.29169 14.9167 9.08335ZM14.8334 11.4167C14.625 11.7084 14.25 11.8334 13.9584 11.625C11.7084 10.25 8.29169 9.83335 5.66669 10.6667C5.33335 10.75 4.95835 10.5834 4.87502 10.25C4.79169 9.91669 4.95835 9.54169 5.29169 9.45835C8.33335 8.54169 12.0834 9.00002 14.6667 10.5834C14.9167 10.7084 15.0417 11.125 14.8334 11.4167ZM13.8334 13.7084C13.6667 13.9584 13.375 14.0417 13.125 13.875C11.1667 12.6667 8.70835 12.4167 5.79169 13.0834C5.50002 13.1667 5.25002 12.9584 5.16669 12.7084C5.08335 12.4167 5.29169 12.1667 5.54169 12.0834C8.70835 11.375 11.4584 11.6667 13.625 13C13.9167 13.125 13.9584 13.4584 13.8334 13.7084ZM10 1.66669C8.90567 1.66669 7.82204 1.88224 6.81099 2.30102C5.79994 2.71981 4.88129 3.33364 4.10746 4.10746C2.54466 5.67027 1.66669 7.78988 1.66669 10C1.66669 12.2102 2.54466 14.3298 4.10746 15.8926C4.88129 16.6664 5.79994 17.2802 6.81099 17.699C7.82204 18.1178 8.90567 18.3334 10 18.3334C12.2102 18.3334 14.3298 17.4554 15.8926 15.8926C17.4554 14.3298 18.3334 12.2102 18.3334 10C18.3334 8.90567 18.1178 7.82204 17.699 6.81099C17.2802 5.79994 16.6664 4.88129 15.8926 4.10746C15.1188 3.33364 14.2001 2.71981 13.189 2.30102C12.178 1.88224 11.0944 1.66669 10 1.66669Z" fill="#1ED760"/>
</svg>
