<svg width="36" height="36" viewBox="0 0 36 36" fill="none" xmlns="http://www.w3.org/2000/svg">
<path d="M8.4242 24.2252H28.3271C28.8801 24.2252 29.1937 23.4144 28.868 22.9499C28.114 21.8741 27.3816 20.2884 27.3816 18.3762L27.414 15.7607C27.414 10.5725 23.3671 6.3667 18.375 6.3667C13.4554 6.3667 9.46721 10.5115 9.46721 15.6243L9.4348 18.3762C9.4348 20.2754 8.67618 21.8525 7.89022 22.9278C7.5515 23.3912 7.86425 24.2252 8.4242 24.2252Z" fill="black"/>
<path d="M14.8333 27.8886C15.7732 28.6005 17.0144 29.0334 18.375 29.0334C19.7356 29.0334 20.9768 28.6005 21.9167 27.8886M8.4242 24.2252C7.86425 24.2252 7.5515 23.3912 7.89022 22.9278C8.67618 21.8525 9.4348 20.2754 9.4348 18.3762L9.46721 15.6243C9.46721 10.5115 13.4554 6.3667 18.375 6.3667C23.3671 6.3667 27.414 10.5725 27.414 15.7607L27.3816 18.3762C27.3816 20.2884 28.114 21.8741 28.868 22.9499C29.1937 23.4144 28.8801 24.2252 28.3271 24.2252H8.4242Z" stroke="black" stroke-width="2.57576" stroke-linecap="round" stroke-linejoin="round"/>
</svg>
