<svg width="44" height="44" viewBox="0 0 44 44" fill="none" xmlns="http://www.w3.org/2000/svg">
<g id="tabler:edit">
<g id="Group">
<path id="Vector" d="M16.4461 15.7892H15.2697C14.6456 15.7892 14.0472 16.0371 13.6059 16.4783C13.1646 16.9196 12.9167 17.5181 12.9167 18.1421V28.7303C12.9167 29.3543 13.1646 29.9528 13.6059 30.394C14.0472 30.8353 14.6456 31.0832 15.2697 31.0832H25.8578C26.4819 31.0832 27.0804 30.8353 27.5216 30.394C27.9629 29.9528 28.2108 29.3543 28.2108 28.7303V27.5538" stroke="black" stroke-width="2.35293" stroke-linecap="round" stroke-linejoin="round"/>
<path id="Vector_2" d="M27.0343 13.4363L30.5637 16.9657M32.1931 15.301C32.6565 14.8377 32.9168 14.2092 32.9168 13.554C32.9168 12.8987 32.6565 12.2702 32.1931 11.8069C31.7298 11.3436 31.1013 11.0833 30.4461 11.0833C29.7908 11.0833 29.1624 11.3436 28.699 11.8069L18.7991 21.6715V25.2009H22.3285L32.1931 15.301Z" stroke="black" stroke-width="2.35293" stroke-linecap="round" stroke-linejoin="round"/>
</g>
</g>
</svg>
