<svg width="44" height="44" viewBox="0 0 44 44" fill="none" xmlns="http://www.w3.org/2000/svg">
<path d="M24.8571 32C24.8571 29.7267 23.9541 27.5466 22.3466 25.9391C20.7392 24.3316 18.559 23.4286 16.2857 23.4286C14.0124 23.4286 11.8322 24.3316 10.2248 25.9391C8.61732 27.5466 7.71426 29.7267 7.71426 32" stroke="black" stroke-width="2.5" stroke-linecap="round" stroke-linejoin="round"/>
<path d="M16.2857 23.4286C19.4416 23.4286 22 20.8702 22 17.7143C22 14.5584 19.4416 12 16.2857 12C13.1298 12 10.5714 14.5584 10.5714 17.7143C10.5714 20.8702 13.1298 23.4286 16.2857 23.4286Z" stroke="black" stroke-width="2.5" stroke-linecap="round" stroke-linejoin="round"/>
<path d="M32 16.2856V24.8571M36.2857 20.5714H27.7143" stroke="black" stroke-width="2.5" stroke-linecap="round" stroke-linejoin="round"/>
</svg>
