<svg width="20" height="20" viewBox="0 0 20 20" fill="none" xmlns="http://www.w3.org/2000/svg">
<g id="solar:menu-dots-bold">
<path id="Vector" d="M4.44444 10C4.44444 10.5894 4.21032 11.1546 3.79357 11.5714C3.37682 11.9881 2.81159 12.2222 2.22222 12.2222C1.63285 12.2222 1.06762 11.9881 0.650874 11.5714C0.234126 11.1546 0 10.5894 0 10C0 9.41067 0.234126 8.84545 0.650874 8.4287C1.06762 8.01196 1.63285 7.77783 2.22222 7.77783C2.81159 7.77783 3.37682 8.01196 3.79357 8.4287C4.21032 8.84545 4.44444 9.41067 4.44444 10ZM12.2222 10C12.2222 10.5894 11.9881 11.1546 11.5713 11.5714C11.1546 11.9881 10.5894 12.2222 10 12.2222C9.41063 12.2222 8.8454 11.9881 8.42865 11.5714C8.0119 11.1546 7.77778 10.5894 7.77778 10C7.77778 9.41067 8.0119 8.84545 8.42865 8.4287C8.8454 8.01196 9.41063 7.77783 10 7.77783C10.5894 7.77783 11.1546 8.01196 11.5713 8.4287C11.9881 8.84545 12.2222 9.41067 12.2222 10ZM20 10C20 10.5894 19.7659 11.1546 19.3491 11.5714C18.9324 11.9881 18.3671 12.2222 17.7778 12.2222C17.1884 12.2222 16.6232 11.9881 16.2064 11.5714C15.7897 11.1546 15.5556 10.5894 15.5556 10C15.5556 9.41067 15.7897 8.84545 16.2064 8.4287C16.6232 8.01196 17.1884 7.77783 17.7778 7.77783C18.3671 7.77783 18.9324 8.01196 19.3491 8.4287C19.7659 8.84545 20 9.41067 20 10Z" fill="black"/>
</g>
</svg>
