<svg width="24" height="24" viewBox="0 0 24 24" fill="none" xmlns="http://www.w3.org/2000/svg">
<path d="M10 9.25C10.4142 9.25 10.75 9.58579 10.75 10V18C10.75 18.4142 10.4142 18.75 10 18.75C9.58579 18.75 9.25 18.4142 9.25 18V10C9.25 9.58579 9.58579 9.25 10 9.25Z" fill="#2F363F"/>
<path d="M14.75 10C14.75 9.58579 14.4142 9.25 14 9.25C13.5858 9.25 13.25 9.58579 13.25 10V18C13.25 18.4142 13.5858 18.75 14 18.75C14.4142 18.75 14.75 18.4142 14.75 18V10Z" fill="#2F363F"/>
<path fill-rule="evenodd" clip-rule="evenodd" d="M7.41441 5.25L7.89366 3.33303C8.19971 2.10882 9.29966 1.25 10.5615 1.25H13.4384C14.7003 1.25 15.8003 2.10882 16.1063 3.33303L16.5856 5.25L20 5.25C20.4142 5.25 20.75 5.58579 20.75 6C20.75 6.41422 20.4142 6.75 20 6.75H19.75V18.8694C19.75 19.3856 19.75 19.8164 19.7222 20.1688C19.6931 20.5361 19.6304 20.8815 19.4696 21.2098C19.2011 21.7579 18.7579 22.2011 18.2098 22.4696C17.8815 22.6304 17.5361 22.6931 17.1688 22.7222C16.8165 22.75 16.3856 22.75 15.8695 22.75H8.1306C7.61446 22.75 7.18354 22.75 6.8312 22.7222C6.46385 22.6931 6.11851 22.6304 5.79017 22.4696C5.2421 22.2011 4.79892 21.7579 4.53042 21.2098C4.36957 20.8815 4.30685 20.5361 4.27782 20.1688C4.24998 19.8164 4.24999 19.3856 4.25 18.8694L4.25 6.75H4C3.58579 6.75 3.25 6.41421 3.25 6C3.25 5.58579 3.58579 5.25 4 5.25H7.41441ZM9.34887 3.69683C9.48798 3.14037 9.98796 2.75 10.5615 2.75H13.4384C14.012 2.75 14.512 3.14037 14.6511 3.69683L15.0394 5.25H8.96058L9.34887 3.69683ZM7.98431 6.75C7.99517 6.75024 8.00601 6.75024 8.01681 6.75H15.9832C15.994 6.75024 16.0048 6.75024 16.0157 6.75H18.25V18.84C18.25 19.3931 18.2495 19.7644 18.2268 20.0506C18.2049 20.3286 18.1656 20.462 18.1225 20.5499C18.0005 20.799 17.799 21.0005 17.5499 21.1225C17.462 21.1656 17.3286 21.2049 17.0506 21.2268C16.7644 21.2495 16.3931 21.25 15.84 21.25H8.16C7.60686 21.25 7.2356 21.2495 6.94936 21.2268C6.67144 21.2049 6.53804 21.1656 6.45008 21.1225C6.20096 21.0005 5.99951 20.799 5.87747 20.5499C5.83437 20.462 5.79512 20.3286 5.77316 20.0506C5.75055 19.7644 5.75 19.3931 5.75 18.84V6.75H7.98431Z" fill="#2F363F"/>
</svg>
