<svg width="28" height="28" viewBox="0 0 28 28" fill="none" xmlns="http://www.w3.org/2000/svg">
<rect width="28" height="28" fill="white"/>
<circle cx="14" cy="14" r="14" fill="black"/>
<g clip-path="url(#clip0_601_2631)">
<path d="M17.5628 10.6929H19.2732V22.0001H15.5156V12.74C15.5156 11.6103 16.4331 10.6929 17.5628 10.6929Z" fill="#8700FF"/>
<path d="M9.87906 9.75273C10.9168 9.75273 11.7581 8.91265 11.7581 7.87636C11.7581 6.84008 10.9168 6 9.87906 6C8.84128 6 8 6.84008 8 7.87636C8 8.91265 8.84128 9.75273 9.87906 9.75273Z" fill="#87DFFF"/>
<path d="M11.7576 10.6929H8V22.0001H11.7576V10.6929Z" fill="#87DFFF"/>
<path d="M13.6366 9.75273C14.6744 9.75273 15.5157 8.91265 15.5157 7.87636C15.5157 6.84008 14.6744 6 13.6366 6C12.5989 6 11.7576 6.84008 11.7576 7.87636C11.7576 8.91265 12.5989 9.75273 13.6366 9.75273Z" fill="#87DFFF"/>
<path d="M15.5151 10.6929H11.7576V22.0001H15.5151V10.6929Z" fill="#87DFFF"/>
<path d="M17.3947 9.77081C18.4325 9.77081 19.2737 8.92953 19.2737 7.89175C19.2737 6.85398 18.4325 6.0127 17.3947 6.0127C16.3569 6.0127 15.5156 6.85398 15.5156 7.89175C15.5156 8.92953 16.3569 9.77081 17.3947 9.77081Z" fill="#8700FF"/>
</g>
<defs>
<clipPath id="clip0_601_2631">
<rect width="11.2733" height="16" fill="white" transform="translate(8 6)"/>
</clipPath>
</defs>
</svg>
